<svg xmlns="http://www.w3.org/2000/svg" width="97.013" height="119.471" viewBox="0 0 97.013 119.471">
  <g id="Vaccine" transform="translate(-4.023)">
    <rect id="Rectángulo_44866" data-name="Rectángulo 44866" width="29.868" height="9.956" rx="1" transform="translate(61.212 32.357)" fill="#fc6"/>
    <path id="Trazado_225814" data-name="Trazado 225814" d="M53.89,15.489v2.489H33.978A4.978,4.978,0,0,1,29,13H51.4A2.489,2.489,0,0,1,53.89,15.489Z" transform="translate(37.19 19.357)" fill="#ffde76"/>
    <path id="Trazado_225815" data-name="Trazado 225815" d="M68.8,43v4.978a4.978,4.978,0,0,1-4.978,4.978H28.978A4.978,4.978,0,0,1,24,47.978V43Z" transform="translate(29.745 64.026)" fill="#dad7e5"/>
    <path id="Trazado_225816" data-name="Trazado 225816" d="M65.824,43v4.978H30.978A4.978,4.978,0,0,1,26,43Z" transform="translate(32.723 64.026)" fill="#edebf2"/>
    <rect id="Rectángulo_44867" data-name="Rectángulo 44867" width="19.912" height="9.956" transform="translate(66.19 42.313)" fill="#c6c3d8"/>
    <path id="Trazado_225817" data-name="Trazado 225817" d="M45.975,23.978H29V19h9.956A7.467,7.467,0,0,1,45.975,23.978Z" transform="translate(37.19 28.29)" fill="#dad7e5"/>
    <path id="Trazado_225818" data-name="Trazado 225818" d="M68.8,25.978v4.978H24V25.978A4.978,4.978,0,0,1,28.978,21H63.824A4.978,4.978,0,0,1,68.8,25.978Z" transform="translate(29.745 31.268)" fill="#dad7e5"/>
    <path id="Trazado_225819" data-name="Trazado 225819" d="M65.824,25.978H30.978A4.978,4.978,0,0,1,26,21H60.846A4.978,4.978,0,0,1,65.824,25.978Z" transform="translate(32.723 31.268)" fill="#edebf2"/>
    <rect id="Rectángulo_44868" data-name="Rectángulo 44868" width="44.802" height="44.802" transform="translate(53.745 62.224)" fill="#fc6"/>
    <path id="Trazado_225820" data-name="Trazado 225820" d="M65.824,25V64.824A39.824,39.824,0,0,1,26,25Z" transform="translate(32.723 37.224)" fill="#ffde76"/>
    <path id="Trazado_225821" data-name="Trazado 225821" d="M31.89,15.978V70.735H7V15.978A4.978,4.978,0,0,1,11.978,11H26.912A4.978,4.978,0,0,1,31.89,15.978Z" transform="translate(4.433 16.379)" fill="#9fdbf3"/>
    <path id="Trazado_225822" data-name="Trazado 225822" d="M28.912,15.978c0,51.82-.249,49.779,0,49.779A19.912,19.912,0,0,1,9,45.846V11H23.934A4.978,4.978,0,0,1,28.912,15.978Z" transform="translate(7.411 16.379)" fill="#b2e5fb"/>
    <path id="Trazado_225823" data-name="Trazado 225823" d="M19.956,9.489v7.467H10V9.489A2.489,2.489,0,0,1,12.489,7h4.978A2.489,2.489,0,0,1,19.956,9.489Z" transform="translate(8.9 10.423)" fill="#7c7d7d"/>
    <path id="Trazado_225824" data-name="Trazado 225824" d="M18.467,9.489v4.978A7.467,7.467,0,0,1,11,7h4.978A2.489,2.489,0,0,1,18.467,9.489Z" transform="translate(10.389 10.423)" fill="#919191"/>
    <path id="Trazado_225825" data-name="Trazado 225825" d="M38.365,43.528C36.423,45.519,37.17,45,9.966,45a4.978,4.978,0,0,1-3.509-8.487c2.016-2.016,1.344-1.468,28.4-1.468a4.978,4.978,0,0,1,3.509,8.487Z" transform="translate(1.467 52.073)" fill="#9fdbf3"/>
    <path id="Trazado_225826" data-name="Trazado 225826" d="M36.868,39.978H11.978A4.978,4.978,0,0,1,7,35H31.89A4.978,4.978,0,0,1,36.868,39.978Z" transform="translate(4.433 52.114)" fill="#b2e5fb"/>
    <rect id="Rectángulo_44869" data-name="Rectángulo 44869" width="14.934" height="19.912" transform="translate(16.411 97.07)" fill="#c6c3d8"/>
    <path id="Trazado_225827" data-name="Trazado 225827" d="M18.956,45.978v9.956H9V41h4.978A4.978,4.978,0,0,1,18.956,45.978Z" transform="translate(7.411 61.048)" fill="#dad7e5"/>
    <path id="Trazado_225828" data-name="Trazado 225828" d="M39.089,42.544H31V36.62A39.3,39.3,0,0,0,39.089,42.544Z" transform="translate(40.168 54.526)" fill="#db5669"/>
    <path id="Trazado_225829" data-name="Trazado 225829" d="M33.924,40.839H28V32.75a39.3,39.3,0,0,0,5.924,8.089Z" transform="translate(35.701 48.764)" fill="#db5669"/>
    <path id="Trazado_225830" data-name="Trazado 225830" d="M52.89,36.467v9.956H45.423V53.89H43.556a39.3,39.3,0,0,1-8.089-5.924V46.423H33.924A39.3,39.3,0,0,1,28,38.334V36.467h7.467V29h9.956v7.467Z" transform="translate(35.701 43.18)" fill="#f26674"/>
    <path id="Trazado_225831" data-name="Trazado 225831" d="M65.313,31.912H60.335V26.934h2.489a2.489,2.489,0,0,0,2.489-2.489V14.489A2.489,2.489,0,0,0,62.824,12H32.956a2.489,2.489,0,0,0-2.489,2.489v9.956a2.489,2.489,0,0,0,2.489,2.489h2.489v4.978H30.467A7.467,7.467,0,0,0,23,39.379V94.136a7.467,7.467,0,0,0,7.467,7.467H65.313a7.467,7.467,0,0,0,7.467-7.467V39.379A7.467,7.467,0,0,0,65.313,31.912ZM35.445,16.978h24.89v4.978H35.445ZM30.467,36.89h7.467A2.489,2.489,0,0,0,40.423,34.4V26.934H55.357V34.4a2.489,2.489,0,0,0,2.489,2.489h7.467A2.489,2.489,0,0,1,67.8,39.379v2.489H27.978V39.379A2.489,2.489,0,0,1,30.467,36.89ZM67.8,86.669H27.978V46.846H67.8Zm-2.489,9.956H30.467a2.489,2.489,0,0,1-2.489-2.489V91.647H67.8v2.489A2.489,2.489,0,0,1,65.313,96.625Z" transform="translate(28.256 17.868)" fill="#231f20"/>
    <path id="Trazado_225832" data-name="Trazado 225832" d="M29.489,50.4h4.978v4.978a2.489,2.489,0,0,0,2.489,2.489h9.956A2.489,2.489,0,0,0,49.4,55.379V50.4h4.978a2.489,2.489,0,0,0,2.489-2.489V37.956a2.489,2.489,0,0,0-2.489-2.489H49.4V30.489A2.489,2.489,0,0,0,46.912,28H36.956a2.489,2.489,0,0,0-2.489,2.489v4.978H29.489A2.489,2.489,0,0,0,27,37.956v9.956A2.489,2.489,0,0,0,29.489,50.4Zm2.489-9.956h4.978a2.489,2.489,0,0,0,2.489-2.489V32.978h4.978v4.978a2.489,2.489,0,0,0,2.489,2.489H51.89v4.978H46.912a2.489,2.489,0,0,0-2.489,2.489V52.89H39.445V47.912a2.489,2.489,0,0,0-2.489-2.489H31.978Z" transform="translate(34.212 41.691)" fill="#231f20"/>
    <path id="Trazado_225833" data-name="Trazado 225833" d="M38.811,85.073V32.357a7.467,7.467,0,0,0-7.467-7.467V17.423a2.489,2.489,0,0,0-2.489-2.489H26.367V2.489a2.489,2.489,0,1,0-4.978,0V14.934H18.9a2.489,2.489,0,0,0-2.489,2.489V24.89a7.467,7.467,0,0,0-7.467,7.467V85.073a7.467,7.467,0,0,0,2.489,14.486h2.489v14.934H11.433a2.489,2.489,0,0,0,0,4.978h24.89a2.489,2.489,0,1,0,0-4.978H33.833V99.559h2.489a7.467,7.467,0,0,0,2.489-14.486ZM21.389,19.912h4.978V24.89H21.389ZM13.922,32.357a2.489,2.489,0,0,1,2.489-2.489H31.344a2.489,2.489,0,0,1,2.489,2.489v2.489H31.344a2.489,2.489,0,1,0,0,4.978h2.489V44.8H26.367a2.489,2.489,0,1,0,0,4.978h7.467v4.978H31.344a2.489,2.489,0,1,0,0,4.978h2.489v4.978H26.367a2.489,2.489,0,1,0,0,4.978h7.467v4.978H31.344a2.489,2.489,0,1,0,0,4.978h2.489v4.978H13.922Zm14.934,82.136H18.9V99.559h9.956Zm7.467-19.912H11.433a2.489,2.489,0,1,1,0-4.978h24.89a2.489,2.489,0,1,1,0,4.978Z" transform="translate(0)" fill="#231f20"/>
  </g>
</svg>
