<svg xmlns="http://www.w3.org/2000/svg" width="110.007" height="113.177" viewBox="0 0 110.007 113.177">
  <g id="Grupo_159882" data-name="Grupo 159882" transform="translate(-1 -1)">
    <g id="Grupo_159880" data-name="Grupo 159880" transform="translate(2.774 6.177)">
      <rect id="Rectángulo_44870" data-name="Rectángulo 44870" width="6.804" height="22" transform="translate(79.873 84)" fill="#b27946"/>
      <rect id="Rectángulo_44871" data-name="Rectángulo 44871" width="6.804" height="22" transform="translate(21.554 84)" fill="#b27946"/>
      <path id="Trazado_225834" data-name="Trazado 225834" d="M73.261,50.254H44.872A9,9,0,0,1,36,41.127h0A9,9,0,0,1,44.872,32H73.261a9,9,0,0,1,8.872,9.127h0A9,9,0,0,1,73.261,50.254Z" transform="translate(24.327 19.411)" fill="#fc6e51"/>
      <rect id="Rectángulo_44872" data-name="Rectángulo 44872" width="24.3" height="19" transform="translate(71.125 51)" fill="#ecc19c"/>
      <path id="Trazado_225835" data-name="Trazado 225835" d="M73.261,36.254H44.872A9,9,0,0,1,36,27.127h0A9,9,0,0,1,44.872,18H73.261a9,9,0,0,1,8.872,9.127h0A9,9,0,0,1,73.261,36.254Z" transform="translate(24.327 7.855)" fill="#fc6e51"/>
      <rect id="Rectángulo_44873" data-name="Rectángulo 44873" width="24.3" height="18" transform="translate(71.125 26)" fill="#ecc19c"/>
      <path id="Trazado_225836" data-name="Trazado 225836" d="M73.261,22.254H44.872A9,9,0,0,1,36,13.127h0A9,9,0,0,1,44.872,4H73.261a9,9,0,0,1,8.872,9.127h0A9,9,0,0,1,73.261,22.254Z" transform="translate(24.327 -3.701)" fill="#fc6e51"/>
      <rect id="Rectángulo_44874" data-name="Rectángulo 44874" width="24.3" height="19" transform="translate(71.125)" fill="#ecc19c"/>
      <path id="Trazado_225837" data-name="Trazado 225837" d="M51.681,52.905h0a7.526,7.526,0,0,0-4.3-6.823,5.933,5.933,0,0,1-2.459-1.756c-1.471-2.158-.751-6.559-2.782-8.114s-5.923.418-8.353-.411c-2.374-.809-4.34-4.8-6.941-4.8s-4.567,3.992-6.941,4.8c-2.433.829-6.322-1.145-8.353.411s-1.313,5.956-2.784,8.114A5.933,5.933,0,0,1,6.3,46.082,7.527,7.527,0,0,0,2,52.905H51.681Z" transform="translate(-2 18.586)" fill="#fcd770"/>
      <path id="Trazado_225838" data-name="Trazado 225838" d="M51.681,34.905h0a7.526,7.526,0,0,0-4.3-6.823,5.933,5.933,0,0,1-2.459-1.756c-1.471-2.158-.751-6.559-2.782-8.114s-5.923.418-8.353-.411c-2.374-.809-4.34-4.8-6.941-4.8s-4.567,3.992-6.941,4.8c-2.433.829-6.322-1.145-8.353.411s-1.313,5.956-2.784,8.114A5.933,5.933,0,0,1,6.3,28.082,7.527,7.527,0,0,0,2,34.905H51.681Z" transform="translate(-2 3.728)" fill="#fcd770"/>
    </g>
    <g id="Grupo_159881" data-name="Grupo 159881" transform="translate(1 1)">
      <rect id="Rectángulo_44875" data-name="Rectángulo 44875" width="3.888" height="4" transform="translate(77.759 62.177)"/>
      <rect id="Rectángulo_44876" data-name="Rectángulo 44876" width="3.888" height="3" transform="translate(88.451 66.177)"/>
      <path id="Trazado_225839" data-name="Trazado 225839" d="M74.035,52.112a10.957,10.957,0,0,0,0-21.905H61.615V26.556h12.42A10.813,10.813,0,0,0,84.681,15.6,10.813,10.813,0,0,0,74.035,4.651H61.615V1H58.066V4.651H45.646A10.813,10.813,0,0,0,35,15.6,10.813,10.813,0,0,0,45.646,26.556h12.42v3.651H45.646a10.957,10.957,0,0,0,0,21.905h12.42v3.651H45.646a10.957,10.957,0,0,0,0,21.905h12.42V88.621H54.517v25.556H65.163V88.621H61.615V77.668h12.42a10.957,10.957,0,0,0,0-21.905H61.615V52.112ZM49.194,22.905V8.3H70.486v14.6Zm31.938-7.3a7.209,7.209,0,0,1-7.1,7.3V8.3A7.209,7.209,0,0,1,81.132,15.6Zm-42.583,0a7.209,7.209,0,0,1,7.1-7.3v14.6A7.209,7.209,0,0,1,38.549,15.6Zm23.066,94.923H58.066V92.272h3.549Zm8.872-51.112v14.6H49.194v-14.6Zm-31.938,7.3a7.209,7.209,0,0,1,7.1-7.3v14.6A7.209,7.209,0,0,1,38.549,66.716Zm42.583,0a7.209,7.209,0,0,1-7.1,7.3v-14.6A7.209,7.209,0,0,1,81.132,66.716ZM49.194,48.461v-14.6H70.486v14.6Zm31.938-7.3a7.209,7.209,0,0,1-7.1,7.3v-14.6A7.209,7.209,0,0,1,81.132,41.16Zm-42.583,0a7.209,7.209,0,0,1,7.1-7.3v14.6A7.209,7.209,0,0,1,38.549,41.16Z" transform="translate(25.327 -1)"/>
      <rect id="Rectángulo_44877" data-name="Rectángulo 44877" width="3.888" height="4" transform="translate(77.759 36.177)"/>
      <rect id="Rectángulo_44878" data-name="Rectángulo 44878" width="3.888" height="4" transform="translate(88.451 40.177)"/>
      <rect id="Rectángulo_44879" data-name="Rectángulo 44879" width="3.888" height="3" transform="translate(77.759 11.177)"/>
      <rect id="Rectángulo_44880" data-name="Rectángulo 44880" width="3.888" height="4" transform="translate(88.451 14.177)"/>
      <rect id="Rectángulo_44881" data-name="Rectángulo 44881" width="3.888" height="4" transform="translate(17.496 67.177)"/>
      <rect id="Rectángulo_44882" data-name="Rectángulo 44882" width="3.888" height="4" transform="translate(26.244 62.177)"/>
      <rect id="Rectángulo_44883" data-name="Rectángulo 44883" width="2.916" height="4" transform="translate(34.02 67.177)"/>
      <path id="Trazado_225840" data-name="Trazado 225840" d="M48.887,29.722a5.1,5.1,0,0,1-1.742-1.143,8.644,8.644,0,0,1-.795-2.992c-.316-1.982-.672-4.231-2.381-5.538s-3.9-1.013-5.841-.754a7.959,7.959,0,0,1-3.015.075,8.071,8.071,0,0,1-2.284-1.86,11.467,11.467,0,0,0-3.439-2.654V9H25.842v5.856A11.467,11.467,0,0,0,22.4,17.51a8.136,8.136,0,0,1-2.284,1.86,8,8,0,0,1-3.015-.075c-1.938-.259-4.134-.553-5.841.754S9.2,23.6,8.88,25.588a8.613,8.613,0,0,1-.8,2.992,5.1,5.1,0,0,1-1.741,1.143A9.387,9.387,0,0,0,1,38.207v1.825H25.84v7.681A11.467,11.467,0,0,0,22.4,50.368a8.135,8.135,0,0,1-2.284,1.86,8.035,8.035,0,0,1-3.015-.075c-1.938-.261-4.134-.553-5.841.754S9.2,56.461,8.88,58.446a8.613,8.613,0,0,1-.8,2.992A5.1,5.1,0,0,1,6.342,62.58,9.387,9.387,0,0,0,1,71.065V72.89H25.84v9.127H22.292v25.556H32.938V82.018H29.389V72.89h24.84V71.065a9.387,9.387,0,0,0-5.342-8.485,5.1,5.1,0,0,1-1.742-1.143,8.644,8.644,0,0,1-.795-2.992c-.316-1.982-.672-4.231-2.381-5.538s-3.9-1.015-5.841-.754a8.035,8.035,0,0,1-3.015.075,8.071,8.071,0,0,1-2.284-1.86,11.467,11.467,0,0,0-3.439-2.654V40.032h24.84V38.207A9.392,9.392,0,0,0,48.887,29.722Zm-19.5,74.2H25.84V85.668h3.549ZM34,55.693a10.129,10.129,0,0,0,4.588.08c1.269-.172,2.709-.363,3.267.062s.79,1.9,1,3.2a10.888,10.888,0,0,0,1.391,4.5A7.492,7.492,0,0,0,47.416,65.9a5.7,5.7,0,0,1,2.965,3.339H4.85A5.7,5.7,0,0,1,7.815,65.9a7.486,7.486,0,0,0,3.174-2.368,10.847,10.847,0,0,0,1.393-4.5c.206-1.3.44-2.773,1-3.2s2-.234,3.267-.062a10.1,10.1,0,0,0,4.588-.08,10.127,10.127,0,0,0,3.643-2.709c.933-.938,1.994-2,2.738-2s1.8,1.062,2.74,2A10.112,10.112,0,0,0,34,55.693ZM4.85,36.382a5.7,5.7,0,0,1,2.965-3.339,7.486,7.486,0,0,0,3.174-2.368,10.847,10.847,0,0,0,1.393-4.5c.206-1.3.44-2.773,1-3.2s2-.234,3.267-.062a10.1,10.1,0,0,0,4.588-.08,10.128,10.128,0,0,0,3.643-2.709c.933-.938,1.994-2,2.738-2s1.8,1.062,2.74,2A10.113,10.113,0,0,0,34,22.835a10.1,10.1,0,0,0,4.588.08c1.269-.172,2.709-.363,3.267.062s.79,1.9,1,3.2a10.888,10.888,0,0,0,1.391,4.5,7.492,7.492,0,0,0,3.176,2.369,5.7,5.7,0,0,1,2.965,3.339H4.85Z" transform="translate(-1 5.604)"/>
      <rect id="Rectángulo_44884" data-name="Rectángulo 44884" width="3.888" height="3" transform="translate(17.496 35.177)"/>
      <rect id="Rectángulo_44885" data-name="Rectángulo 44885" width="3.888" height="4" transform="translate(26.244 29.177)"/>
      <rect id="Rectángulo_44886" data-name="Rectángulo 44886" width="2.916" height="3" transform="translate(34.02 35.177)"/>
    </g>
  </g>
</svg>
