<svg xmlns="http://www.w3.org/2000/svg" width="88.775" height="83.995" viewBox="0 0 88.775 83.995">
  <g id="_x34_0_x2C__news_x2C__report_x2C__virus" transform="translate(-32.5 -44.75)">
    <g id="XMLID_15_" transform="translate(32.5 44.75)">
      <path id="XMLID_119_" d="M169.082,56.676v68.191a6.925,6.925,0,0,1-6.926,6.926H119.426a6.925,6.925,0,0,1-6.926-6.926V56.676a6.925,6.925,0,0,1,6.926-6.926h42.729A6.925,6.925,0,0,1,169.082,56.676Z" transform="translate(-96.891 -48.774)" fill="#d0dce7"/>
      <path id="XMLID_113_" d="M225.087,147.65a9.775,9.775,0,1,1-9.777,9.775A9.775,9.775,0,0,1,225.087,147.65Z" transform="translate(-179.642 -127.573)" fill="#d94556"/>
      <circle id="XMLID_110_" cx="5.853" cy="5.853" r="5.853" transform="translate(76.093 7.902)" fill="#07cc66"/>
      <path id="XMLID_107_" d="M46.4,360.25a3.9,3.9,0,1,1-3.9,3.9A3.9,3.9,0,0,1,46.4,360.25Z" transform="translate(-40.549 -298.693)" fill="#07cc66"/>
      <path id="XMLID_104_" d="M200.471,129.617a2.256,2.256,0,1,1-3.19,0A2.254,2.254,0,0,1,200.471,129.617Z" transform="translate(-164.598 -112.528)" fill="#d94556"/>
      <path id="XMLID_101_" d="M267.675,170.77a2.256,2.256,0,1,1-2.255,2.255A2.255,2.255,0,0,1,267.675,170.77Z" transform="translate(-219.975 -146.182)" fill="#ffd400"/>
      <path id="XMLID_98_" d="M247.652,209.31a1.5,1.5,0,1,1-1.5,1.5A1.5,1.5,0,0,1,247.652,209.31Z" transform="translate(-204.465 -177.203)" fill="#ffd400"/>
      <path id="XMLID_95_" d="M160.577,182.33a3.077,3.077,0,1,1-3.077,3.077A3.075,3.075,0,0,1,160.577,182.33Z" transform="translate(-133.111 -155.487)" fill="#d94556"/>
      <path id="XMLID_92_" d="M256.107,80.25a2.255,2.255,0,1,1-2.257,2.255A2.257,2.257,0,0,1,256.107,80.25Z" transform="translate(-210.662 -73.324)" fill="#d94556"/>
      <path id="XMLID_89_" d="M337.045,186.19a2.255,2.255,0,1,1-2.255,2.255A2.256,2.256,0,0,1,337.045,186.19Z" transform="translate(-275.81 -158.594)" fill="#d94556"/>
      <path id="XMLID_86_" d="M314.938,244.081a2.256,2.256,0,1,1-3.19,0A2.254,2.254,0,0,1,314.938,244.081Z" transform="translate(-256.732 -204.657)" fill="#d94556"/>
      <path id="XMLID_83_" d="M327.822,115.426a3.561,3.561,0,1,1-5.036,0A3.56,3.56,0,0,1,327.822,115.426Z" transform="translate(-265.308 -100.796)" fill="#d94556"/>
      <path id="XMLID_80_" d="M256.107,267.13a2.255,2.255,0,1,1-2.257,2.255A2.255,2.255,0,0,1,256.107,267.13Z" transform="translate(-210.662 -223.741)" fill="#d94556"/>
      <path id="XMLID_77_" d="M200.471,244.081a2.256,2.256,0,1,1-3.19,0A2.254,2.254,0,0,1,200.471,244.081Z" transform="translate(-164.598 -204.657)" fill="#d94556"/>
      <circle id="XMLID_76_" cx="1.463" cy="1.463" r="1.463" transform="translate(80.483 32.291)"/>
      <circle id="XMLID_75_" cx="1.463" cy="1.463" r="1.463" transform="translate(79.02 77.166)"/>
      <circle id="XMLID_74_" cx="1.463" cy="1.463" r="1.463" transform="translate(76.093 47.9)"/>
      <circle id="XMLID_73_" cx="1.463" cy="1.463" r="1.463" transform="translate(8.78 24.486)"/>
      <circle id="XMLID_72_" cx="1.463" cy="1.463" r="1.463" transform="translate(7.804 79.117)"/>
      <circle id="XMLID_71_" cx="1.463" cy="1.463" r="1.463" transform="translate(1.951 50.826)"/>
      <circle id="XMLID_70_" cx="1.463" cy="1.463" r="1.463" transform="translate(0 4)"/>
      <path id="XMLID_67_" d="M158.131,128.745H115.4a7.911,7.911,0,0,1-7.9-7.9V52.652a7.911,7.911,0,0,1,7.9-7.9h42.729a7.911,7.911,0,0,1,7.9,7.9v68.191A7.911,7.911,0,0,1,158.131,128.745ZM115.4,46.7a5.958,5.958,0,0,0-5.951,5.951v68.191a5.958,5.958,0,0,0,5.951,5.951h42.729a5.958,5.958,0,0,0,5.951-5.951V52.652a5.958,5.958,0,0,0-5.951-5.951Z" transform="translate(-92.867 -44.75)"/>
      <path id="XMLID_66_" d="M192.5,285.37H153.476a.976.976,0,0,1-.976-.976V251.226a.976.976,0,0,1,1.951,0v32.193h37.071V264.883a.976.976,0,1,1,1.951,0v19.511A.976.976,0,0,1,192.5,285.37Z" transform="translate(-129.087 -210.155)"/>
      <path id="XMLID_65_" d="M213.84,387.2H188.476a.976.976,0,1,1,0-1.951H213.84a.976.976,0,0,1,0,1.951Z" transform="translate(-157.258 -318.815)"/>
      <path id="XMLID_64_" d="M213.84,362.2H188.476a.976.976,0,1,1,0-1.951H213.84a.976.976,0,0,1,0,1.951Z" transform="translate(-157.258 -298.693)"/>
      <path id="XMLID_63_" d="M213.84,337.2H188.476a.976.976,0,1,1,0-1.951H213.84a.976.976,0,0,1,0,1.951Z" transform="translate(-157.258 -278.57)"/>
      <path id="XMLID_60_" d="M221.063,164.151a10.748,10.748,0,1,1,7.6-3.148A10.687,10.687,0,0,1,221.063,164.151Zm0-19.55a8.8,8.8,0,1,0,8.8,8.8A8.748,8.748,0,0,0,221.063,144.6Z" transform="translate(-175.618 -123.549)"/>
      <path id="XMLID_57_" d="M252.083,81.712a3.231,3.231,0,1,1,3.231-3.231A3.236,3.236,0,0,1,252.083,81.712Zm0-4.511a1.28,1.28,0,1,0,1.28,1.28A1.282,1.282,0,0,0,252.083,77.2Z" transform="translate(-206.638 -69.299)"/>
      <path id="XMLID_54_" d="M252.083,268.592a3.231,3.231,0,1,1,3.231-3.231A3.236,3.236,0,0,1,252.083,268.592Zm0-4.511a1.28,1.28,0,1,0,1.28,1.28A1.282,1.282,0,0,0,252.083,264.081Z" transform="translate(-206.638 -219.717)"/>
      <path id="XMLID_53_" d="M261.4,248.563a.976.976,0,0,1-.976-.976v-3.762a.976.976,0,1,1,1.951,0v3.762A.976.976,0,0,1,261.4,248.563Z" transform="translate(-215.95 -204.199)"/>
      <path id="XMLID_52_" d="M261.4,108.961a.976.976,0,0,1-.976-.976V99.346a.976.976,0,1,1,1.951,0v8.639A.976.976,0,0,1,261.4,108.961Z" transform="translate(-215.95 -87.908)"/>
      <path id="XMLID_49_" d="M321.278,118.457a4.537,4.537,0,1,1,3.208-1.329A4.5,4.5,0,0,1,321.278,118.457Zm0-7.123a2.587,2.587,0,1,0,1.829.758A2.564,2.564,0,0,0,321.278,111.335Z" transform="translate(-261.283 -96.773)"/>
      <path id="XMLID_46_" d="M194.852,244.882a3.232,3.232,0,1,1,2.285-.946A3.21,3.21,0,0,1,194.852,244.882Zm0-4.511a1.283,1.283,0,1,0,.906.376A1.269,1.269,0,0,0,194.852,240.37Z" transform="translate(-160.574 -200.632)"/>
      <path id="XMLID_45_" d="M212.335,232.792a.975.975,0,0,1-.69-1.665l2.659-2.659a.976.976,0,1,1,1.38,1.38l-2.659,2.659A.973.973,0,0,1,212.335,232.792Z" transform="translate(-176.462 -192.392)"/>
      <path id="XMLID_44_" d="M301.555,146.689a.975.975,0,0,1-.69-1.665l4.2-4.2a.976.976,0,1,1,1.38,1.38l-4.2,4.2A.973.973,0,0,1,301.555,146.689Z" transform="translate(-248.274 -121.851)"/>
      <path id="XMLID_41_" d="M333.021,187.652a3.231,3.231,0,1,1,3.233-3.231A3.235,3.235,0,0,1,333.021,187.652Zm0-4.511a1.28,1.28,0,1,0,1.282,1.28A1.281,1.281,0,0,0,333.021,183.141Z" transform="translate(-271.786 -154.569)"/>
      <path id="XMLID_38_" d="M156.552,185.435a4.052,4.052,0,1,1,4.05-4.052A4.057,4.057,0,0,1,156.552,185.435Zm0-6.154a2.1,2.1,0,1,0,2.1,2.1A2.1,2.1,0,0,0,156.552,179.281Z" transform="translate(-129.087 -151.462)"/>
      <path id="XMLID_37_" d="M190.133,195.051h-5.128a.976.976,0,0,1,0-1.951h5.128a.976.976,0,0,1,0,1.951Z" transform="translate(-154.465 -164.155)"/>
      <path id="XMLID_36_" d="M315.255,194.7H311.5a.976.976,0,0,1,0-1.951h3.76a.976.976,0,0,1,0,1.951Z" transform="translate(-256.275 -163.874)"/>
      <path id="XMLID_33_" d="M194.852,130.42a3.233,3.233,0,1,1,2.284-.946A3.208,3.208,0,0,1,194.852,130.42Zm0-4.511a1.28,1.28,0,1,0,.905.374A1.272,1.272,0,0,0,194.852,125.909Z" transform="translate(-160.574 -108.504)"/>
      <path id="XMLID_30_" d="M309.327,244.882a3.231,3.231,0,1,1,2.285-.946A3.214,3.214,0,0,1,309.327,244.882Zm0-4.511a1.283,1.283,0,1,0,.905.376A1.273,1.273,0,0,0,309.327,240.371Z" transform="translate(-252.716 -200.633)"/>
      <path id="XMLID_29_" d="M299.483,232.79a.973.973,0,0,1-.69-.286l-2.657-2.659a.976.976,0,0,1,1.38-1.379l2.657,2.659a.976.976,0,0,1-.69,1.665Z" transform="translate(-244.467 -192.39)"/>
      <path id="XMLID_28_" d="M214.994,148.3a.973.973,0,0,1-.69-.286l-2.659-2.659a.976.976,0,0,1,1.38-1.38l2.659,2.659a.975.975,0,0,1-.69,1.665Z" transform="translate(-176.462 -124.387)"/>
      <path id="XMLID_25_" d="M263.651,172.234A3.232,3.232,0,1,1,266.882,169,3.236,3.236,0,0,1,263.651,172.234Zm0-4.513a1.281,1.281,0,1,0,1.28,1.28A1.281,1.281,0,0,0,263.651,167.721Z" transform="translate(-215.95 -142.158)"/>
      <path id="XMLID_22_" d="M243.628,209.27a2.48,2.48,0,1,1,2.48-2.48A2.482,2.482,0,0,1,243.628,209.27Zm0-3.009a.529.529,0,1,0,.529.529A.528.528,0,0,0,243.628,206.261Z" transform="translate(-200.44 -173.178)"/>
      <path id="XMLID_19_" d="M424.329,93.908a6.829,6.829,0,1,1,6.829-6.829A6.837,6.837,0,0,1,424.329,93.908Zm0-11.707a4.878,4.878,0,1,0,4.878,4.878A4.883,4.883,0,0,0,424.329,82.2Z" transform="translate(-342.382 -73.324)"/>
      <path id="XMLID_16_" d="M42.378,365.006a4.878,4.878,0,1,1,4.878-4.878A4.883,4.883,0,0,1,42.378,365.006Zm0-7.8a2.927,2.927,0,1,0,2.927,2.927A2.93,2.93,0,0,0,42.378,357.2Z" transform="translate(-36.524 -294.668)"/>
    </g>
  </g>
</svg>
