<svg xmlns="http://www.w3.org/2000/svg" width="190.333" height="107.379" viewBox="0 0 190.333 107.379">
  <g id="Grupo_159906" data-name="Grupo 159906" transform="translate(-179.667 -1804.811)">
    <rect id="Rectángulo_33803" data-name="Rectángulo 33803" width="190" height="100" transform="translate(180 1812.189)" fill="none"/>
    <path id="Trazado_113613" data-name="Trazado 113613" d="M-22,0H107a40,40,0,0,1,0,80H-22Z" transform="translate(201.667 1822.189)" fill="rgba(121,210,220,0.2)"/>
    <g id="Grupo_159905" data-name="Grupo 159905" transform="translate(210.573 1804.811)">
      <g id="Grupo_159903" data-name="Grupo 159903" transform="translate(1.729 1.729)">
        <g id="Grupo_159887" data-name="Grupo 159887" transform="translate(62.239)">
          <path id="Trazado_225860" data-name="Trazado 225860" d="M57.746,1a20.746,20.746,0,0,1,0,41.493,20.456,20.456,0,0,1-10.373-2.783V30.892a13.841,13.841,0,1,0-3.458-9.146H37A20.741,20.741,0,0,1,57.746,1Z" transform="translate(-37 -1)" fill="#ccd1d9"/>
        </g>
        <g id="Grupo_159888" data-name="Grupo 159888" transform="translate(69.154 6.915)">
          <path id="Trazado_225861" data-name="Trazado 225861" d="M64.616,9.046A13.834,13.834,0,1,1,44.458,27.977V22.289A3.468,3.468,0,0,0,41,18.831,13.839,13.839,0,0,1,64.616,9.046Z" transform="translate(-41 -5)" fill="#69d6f4"/>
        </g>
        <g id="Grupo_159889" data-name="Grupo 159889" transform="translate(20.746 20.746)">
          <path id="Trazado_225862" data-name="Trazado 225862" d="M64.866,30.963V82.154a3.468,3.468,0,0,1-3.458,3.458H13V78.7H57.95V19.915H47.577V13H61.408a3.468,3.468,0,0,1,3.458,3.458V30.963Z" transform="translate(-13 -13)" fill="#ffeaa7"/>
        </g>
        <g id="Grupo_159890" data-name="Grupo 159890" transform="translate(13.831 20.746)">
          <path id="Trazado_225863" data-name="Trazado 225863" d="M26.289,13v6.915H15.915v24.2L10.729,33.746,9,30.289V16.458A3.468,3.468,0,0,1,12.458,13Z" transform="translate(-9 -13)" fill="#ffeaa7"/>
        </g>
        <g id="Grupo_159891" data-name="Grupo 159891" transform="translate(20.746 27.662)">
          <path id="Trazado_225864" data-name="Trazado 225864" d="M13,72.324V17H57.95V75.781H13Z" transform="translate(-13 -17)" fill="#e6e9ed"/>
        </g>
        <g id="Grupo_159892" data-name="Grupo 159892" transform="translate(27.662 34.577)">
          <rect id="Rectángulo_44887" data-name="Rectángulo 44887" width="32" height="28" transform="translate(-0.391 -0.116)" fill="#d3a06c"/>
        </g>
        <g id="Grupo_159893" data-name="Grupo 159893" transform="translate(5.187 34.577)">
          <path id="Trazado_225865" data-name="Trazado 225865" d="M12.644,24.458l1.729,3.458H4l2.68-5.377a2.811,2.811,0,0,1,5.014,0l.951,1.9Z" transform="translate(-4 -21)" fill="#969faa"/>
        </g>
        <g id="Grupo_159894" data-name="Grupo 159894" transform="translate(0 41.493)">
          <path id="Trazado_225866" data-name="Trazado 225866" d="M16.56,25l5.187,10.373H1L6.187,25Z" transform="translate(-1 -25)" fill="#ccd1d9"/>
        </g>
        <g id="Grupo_159895" data-name="Grupo 159895" transform="translate(0 89.901)">
          <path id="Trazado_225867" data-name="Trazado 225867" d="M21.746,53v3.458A10.389,10.389,0,0,1,11.373,66.831,10.381,10.381,0,0,1,1,56.458V53Z" transform="translate(-1 -53)" fill="#ccd1d9"/>
        </g>
        <g id="Grupo_159896" data-name="Grupo 159896" transform="translate(0 82.985)">
          <path id="Trazado_225868" data-name="Trazado 225868" d="M21.746,52.458v3.458H1V49H21.746Z" transform="translate(-1 -49)" fill="#5cd6b3"/>
        </g>
        <g id="Grupo_159897" data-name="Grupo 159897" transform="translate(13.831 51.866)">
          <rect id="Rectángulo_44888" data-name="Rectángulo 44888" width="6" height="32" transform="translate(0.44 -0.405)" fill="#fcd770"/>
        </g>
        <g id="Grupo_159898" data-name="Grupo 159898" transform="translate(0 51.866)">
          <rect id="Rectángulo_44889" data-name="Rectángulo 44889" width="7" height="32" transform="translate(0.271 -0.405)" fill="#fcd770"/>
        </g>
        <g id="Grupo_159899" data-name="Grupo 159899" transform="translate(6.915 51.866)">
          <rect id="Rectángulo_44890" data-name="Rectángulo 44890" width="7" height="32" transform="translate(0.355 -0.405)" fill="#ff826e"/>
        </g>
        <g id="Grupo_159900" data-name="Grupo 159900" transform="translate(48.408 69.154)">
          <rect id="Rectángulo_44891" data-name="Rectángulo 44891" width="11" height="10" transform="translate(-0.137 0.306)" fill="#ff826e"/>
        </g>
        <g id="Grupo_159901" data-name="Grupo 159901" transform="translate(34.577 34.577)">
          <rect id="Rectángulo_44892" data-name="Rectángulo 44892" width="7" height="10" transform="translate(-0.306 -0.116)" fill="#b27946"/>
        </g>
        <g id="Grupo_159902" data-name="Grupo 159902" transform="translate(31.12 10.373)">
          <path id="Trazado_225869" data-name="Trazado 225869" d="M43.2,17.373v6.915H19V17.373a3.468,3.468,0,0,1,3.458-3.458h3.458V12.187a5.187,5.187,0,0,1,10.373,0v1.729h3.458A3.468,3.468,0,0,1,43.2,17.373Z" transform="translate(-19 -7)" fill="#5cd6b3"/>
        </g>
      </g>
      <g id="Grupo_159904" data-name="Grupo 159904">
        <path id="Trazado_225870" data-name="Trazado 225870" d="M84.714,0A22.489,22.489,0,0,0,62.327,20.746H58.463a5.18,5.18,0,0,0-4.868-3.458H51.866a6.915,6.915,0,1,0-13.831,0H36.306a5.18,5.18,0,0,0-4.868,3.458H19.017a5.193,5.193,0,0,0-5.187,5.187v9.028a4.411,4.411,0,0,0-5.778,2.118L0,53.187v41.9a12.094,12.094,0,0,0,24.066,1.729H70.883A5.193,5.193,0,0,0,76.07,91.63V43.223A22.476,22.476,0,1,0,84.714,0ZM19.678,51.866H4.526L7.984,44.95H16.22Zm1.068,31.12H17.289V55.324h3.458ZM13.831,55.324V82.985H10.373V55.324Zm-6.915,0V82.985H3.458V55.324Zm13.831,31.12V89.9H3.458V86.443ZM24.2,53.187V31.12H65.7V86.443H24.2Zm12.1-32.44h5.187V17.289a3.458,3.458,0,0,1,6.915,0v3.458h5.187a1.732,1.732,0,0,1,1.729,1.729v5.187H34.577V22.475A1.732,1.732,0,0,1,36.306,20.746ZM19.017,24.2h12.1v3.458H20.746V46.271l-3.458-6.915V25.933A1.732,1.732,0,0,1,19.017,24.2Zm-7.872,14.42a1.109,1.109,0,0,1,1.91,0l1.435,2.868H9.713l1.433-2.868Zm.956,65.107a8.654,8.654,0,0,1-8.644-8.644V93.359H20.746v1.729A8.654,8.654,0,0,1,12.1,103.732Zm60.51-12.1a1.732,1.732,0,0,1-1.729,1.729H24.2V89.9h44.95V27.662H58.781V24.2h12.1a1.732,1.732,0,0,1,1.729,1.729Zm2.424-76.388,2.344,2.344,2.445-2.445L77.481,12.8a12.01,12.01,0,0,1,5.5-2.286v3.319h3.458V10.511a12.01,12.01,0,0,1,5.5,2.286L89.6,15.141l2.445,2.445,2.344-2.344a12.01,12.01,0,0,1,2.286,5.5H93.359V24.2h3.319a12.01,12.01,0,0,1-2.286,5.5l-2.344-2.344L89.6,29.809l2.344,2.344a12.01,12.01,0,0,1-5.5,2.286V31.12H82.985v3.318a12.086,12.086,0,0,1-6.915-3.518V25.933A5.178,5.178,0,0,0,72.7,21.092,12.026,12.026,0,0,1,75.036,15.242Zm9.678,26.251a18.978,18.978,0,0,1-8.644-2.118V35.386a15.546,15.546,0,1,0-6.813-14.64H65.785A19.013,19.013,0,1,1,84.714,41.493Z"/>
        <path id="Trazado_225871" data-name="Trazado 225871" d="M53.1,19.827l-1.641-4.92V10H48v5.467l1.817,5.453Z" transform="translate(34.985 7.289)"/>
        <path id="Trazado_225872" data-name="Trazado 225872" d="M16,51.12H50.577V20H16ZM26.373,23.458h3.458v6.915H26.373Zm-6.915,0h3.458V33.831H33.289V23.458H47.12v24.2H19.458Z" transform="translate(11.662 14.577)"/>
        <rect id="Rectángulo_44893" data-name="Rectángulo 44893" width="10" height="4" transform="translate(45 55.189)"/>
        <path id="Trazado_225873" data-name="Trazado 225873" d="M28,53.831H41.831V40H28Zm3.458-10.373h6.915v6.915H31.458Z" transform="translate(20.408 29.154)"/>
        <rect id="Rectángulo_44894" data-name="Rectángulo 44894" width="3" height="3" transform="translate(28 69.189)"/>
        <rect id="Rectángulo_44895" data-name="Rectángulo 44895" width="10" height="3" transform="translate(35 69.189)"/>
        <rect id="Rectángulo_44896" data-name="Rectángulo 44896" width="17" height="3" transform="translate(28 76.189)"/>
        <path id="Trazado_225874" data-name="Trazado 225874" d="M52.915,28H49.458v3.458H46v3.458h3.458v3.458h3.458V34.915h3.458V31.458H52.915Z" transform="translate(33.528 20.408)"/>
        <path id="Trazado_225875" data-name="Trazado 225875" d="M52.915,36H49.458v3.458H46v3.458h3.458v3.458h3.458V42.915h3.458V39.458H52.915Z" transform="translate(33.528 26.239)"/>
        <path id="Trazado_225876" data-name="Trazado 225876" d="M52.915,44H49.458v3.458H46v3.458h3.458v3.458h3.458V50.915h3.458V47.458H52.915Z" transform="translate(33.528 32.07)"/>
      </g>
    </g>
  </g>
</svg>
