<svg xmlns="http://www.w3.org/2000/svg" width="190.333" height="107.379" viewBox="0 0 190.333 107.379">
  <g id="Grupo_160847" data-name="Grupo 160847" transform="translate(-179.667 -3963)">
    <rect id="Rectángulo_33803" data-name="Rectángulo 33803" width="190" height="100" transform="translate(180 3970.379)" fill="none"/>
    <path id="Trazado_113613" data-name="Trazado 113613" d="M-22,0H107a40,40,0,0,1,0,80H-22Z" transform="translate(201.667 3980.379)" fill="rgba(121,210,220,0.2)"/>
    <g id="Layer_32" transform="translate(194.96 3905.6)">
      <g id="Grupo_159940" data-name="Grupo 159940" transform="translate(0 57.4)">
        <g id="Grupo_159938" data-name="Grupo 159938" transform="translate(1.217 1.217)">
          <g id="Grupo_159931" data-name="Grupo 159931" transform="translate(94.619 35.252)">
            <path id="Trazado_225890" data-name="Trazado 225890" d="M390.78,248.26H354.5V192.3h24.358a9.876,9.876,0,0,1,8.813,5.488l7.191,14.571a9.665,9.665,0,0,1,1,4.325v26.52A5.088,5.088,0,0,1,390.78,248.26Z" transform="translate(-354.5 -192.3)" fill="#ff5741"/>
            <path id="Trazado_225891" data-name="Trazado 225891" d="M383.3,241.3V223.271A2.267,2.267,0,0,1,385.571,221h14.3a2,2,0,0,1,1.811,1.135l6.894,13.977a5.081,5.081,0,0,1,.514,2.163v3.487a1.811,1.811,0,0,1-1.811,1.811H385.6A2.29,2.29,0,0,1,383.3,241.3Z" transform="translate(-375.514 -213.241)" fill="#def6fc"/>
            <path id="Trazado_225892" data-name="Trazado 225892" d="M385.571,221.1a2.267,2.267,0,0,0-2.271,2.271V241.4a2.267,2.267,0,0,0,2.271,2.271h4.569V221.127h-4.569Z" transform="translate(-375.514 -213.314)" fill="#fff"/>
          </g>
          <g id="Grupo_159937" data-name="Grupo 159937">
            <g id="Grupo_159935" data-name="Grupo 159935" transform="translate(0 0)">
              <g id="Grupo_159932" data-name="Grupo 159932">
                <path id="Trazado_225893" data-name="Trazado 225893" d="M4.6,348.4v9.894a3.836,3.836,0,0,0,3.839,3.839H99.192V348.4Z" transform="translate(-4.573 -270.948)" fill="#7180bc"/>
                <path id="Trazado_225894" data-name="Trazado 225894" d="M4.6,348.4v9.894a3.836,3.836,0,0,0,3.839,3.839h2.947V348.4Z" transform="translate(-4.573 -270.948)" fill="#93a3d8"/>
                <path id="Trazado_225895" data-name="Trazado 225895" d="M99.192,139.352H4.6V67.929A6.034,6.034,0,0,1,10.629,61.9H93.19a6.034,6.034,0,0,1,6.029,6.029v71.424Z" transform="translate(-4.573 -61.9)" fill="#ff8103"/>
                <path id="Trazado_225896" data-name="Trazado 225896" d="M17.368,61.9h-6.84A6.034,6.034,0,0,0,4.5,67.929v71.424h6.813V67.929A6.075,6.075,0,0,1,17.368,61.9Z" transform="translate(-4.5 -61.9)" fill="#ff9d4d"/>
              </g>
              <g id="Grupo_159933" data-name="Grupo 159933" transform="translate(6.813 77.479)">
                <circle id="Elipse_6509" data-name="Elipse 6509" cx="13.733" cy="13.733" r="13.733" fill="#43527a"/>
                <circle id="Elipse_6510" data-name="Elipse 6510" cx="5.65" cy="5.65" r="5.65" transform="translate(8.083 8.083)" fill="#7782bb"/>
              </g>
              <g id="Grupo_159934" data-name="Grupo 159934" transform="translate(99.539 77.479)">
                <circle id="Elipse_6511" data-name="Elipse 6511" cx="13.733" cy="13.733" r="13.733" fill="#43527a"/>
                <circle id="Elipse_6512" data-name="Elipse 6512" cx="5.65" cy="5.65" r="5.65" transform="translate(8.083 8.083)" fill="#7782bb"/>
              </g>
            </g>
            <path id="Trazado_225897" data-name="Trazado 225897" d="M147.86,95.638l-9.435-4.893a1.723,1.723,0,0,0-1.622,0l-9.435,4.893A1.766,1.766,0,0,1,124.8,94.07V61.9h25.628V94.07A1.766,1.766,0,0,1,147.86,95.638Z" transform="translate(-92.278 -61.9)" fill="#f9c04a"/>
            <g id="Grupo_159936" data-name="Grupo 159936" transform="translate(32.522 0)">
              <path id="Trazado_225898" data-name="Trazado 225898" d="M131.613,61.9H124.8V94.07a1.766,1.766,0,0,0,2.568,1.568l4.271-2.217V61.9Z" transform="translate(-124.8 -61.9)" fill="#ffda9f"/>
            </g>
          </g>
        </g>
        <g id="Grupo_159939" data-name="Grupo 159939">
          <path id="Trazado_225899" data-name="Trazado 225899" d="M47.755,276.6H26.344a1.24,1.24,0,0,0-1.244,1.244,1.224,1.224,0,0,0,1.244,1.244H47.754A1.24,1.24,0,0,0,49,277.844,1.224,1.224,0,0,0,47.755,276.6Z" transform="translate(-18.314 -217.341)" fill="#133260"/>
          <path id="Trazado_225900" data-name="Trazado 225900" d="M47.755,304.9H26.344a1.244,1.244,0,0,0,0,2.487H47.754A1.24,1.24,0,0,0,49,306.144,1.224,1.224,0,0,0,47.755,304.9Z" transform="translate(-18.314 -237.991)" fill="#133260"/>
          <path id="Trazado_225901" data-name="Trazado 225901" d="M61.967,373.8a6.867,6.867,0,1,0,6.867,6.867A6.876,6.876,0,0,0,61.967,373.8Zm0,11.3a4.407,4.407,0,1,1,4.407-4.407A4.407,4.407,0,0,1,61.967,385.1Z" transform="translate(-40.204 -288.264)" fill="#133260"/>
          <path id="Trazado_225902" data-name="Trazado 225902" d="M399.508,218.311a3.244,3.244,0,0,0-2.92-1.811h-14.3a3.5,3.5,0,0,0-3.487,3.487v18.032a3.5,3.5,0,0,0,3.487,3.487h21.681A3.023,3.023,0,0,0,407,238.479v-3.487a6.4,6.4,0,0,0-.622-2.73Zm5.055,20.167a.554.554,0,0,1-.568.568H382.314a1.027,1.027,0,0,1-1.027-1.027V219.987a1.027,1.027,0,0,1,1.027-1.027h14.3a.779.779,0,0,1,.7.433l6.894,13.977a3.849,3.849,0,0,1,.378,1.622v3.487Z" transform="translate(-276.395 -173.489)" fill="#133260"/>
          <path id="Trazado_225903" data-name="Trazado 225903" d="M404.967,373.8a6.867,6.867,0,1,0,6.867,6.867A6.876,6.876,0,0,0,404.967,373.8Zm0,11.3a4.407,4.407,0,1,1,4.407-4.407A4.407,4.407,0,0,1,404.967,385.1Z" transform="translate(-290.478 -288.264)" fill="#133260"/>
          <path id="Trazado_225904" data-name="Trazado 225904" d="M137.279,113.36l-7.191-14.571a10.953,10.953,0,0,0-9.894-6.164H97.079V64.645A7.246,7.246,0,0,0,89.834,57.4H7.245A7.246,7.246,0,0,0,0,64.645v81.318a5.077,5.077,0,0,0,5.082,5.082H6.84a14.974,14.974,0,0,0,29.846,0H99.566a14.974,14.974,0,0,0,29.846,0h2.7a6.305,6.305,0,0,0,6.3-6.3v-26.52A11.272,11.272,0,0,0,137.279,113.36ZM34.955,59.86H58.123V90.787a.626.626,0,0,1-.243.46.538.538,0,0,1-.514.027L47.931,86.38a2.93,2.93,0,0,0-2.757,0l-9.435,4.893a.538.538,0,0,1-.514-.027.531.531,0,0,1-.243-.46V59.86ZM5.082,148.586a2.625,2.625,0,0,1-2.622-2.622v-8.651H13.544a14.989,14.989,0,0,0-6.7,11.273Zm16.68,13.733A12.517,12.517,0,1,1,34.279,149.8,12.541,12.541,0,0,1,21.762,162.319Zm72.857-13.733H36.685a14.912,14.912,0,0,0-6.7-11.273H94.592v11.273Zm0-13.733H2.46V64.645A4.794,4.794,0,0,1,7.245,59.86h25.25V90.787a2.949,2.949,0,0,0,1.433,2.541,2.893,2.893,0,0,0,1.541.433,2.828,2.828,0,0,0,1.379-.351l9.435-4.893a.517.517,0,0,1,.487,0L56.2,93.409a2.893,2.893,0,0,0,2.92-.108,2.949,2.949,0,0,0,1.433-2.541V59.86H89.78a4.794,4.794,0,0,1,4.785,4.785v70.207Zm19.87,27.467A12.517,12.517,0,1,1,127.006,149.8,12.541,12.541,0,0,1,114.489,162.319Zm21.465-17.545a3.807,3.807,0,0,1-3.812,3.812h-2.7a14.974,14.974,0,0,0-29.846,0H97.079v-53.5h23.114a8.546,8.546,0,0,1,7.7,4.785l7.191,14.571a8.746,8.746,0,0,1,.892,3.785v26.547Z" transform="translate(0 -57.4)" fill="#133260"/>
        </g>
      </g>
    </g>
  </g>
</svg>
