<svg xmlns="http://www.w3.org/2000/svg" width="169" height="107.379" viewBox="0 0 169 107.379">
  <g id="Grupo_159956" data-name="Grupo 159956" transform="translate(-180.667 -4042)">
    <path id="Trazado_113613" data-name="Trazado 113613" d="M-22,0H107a40,40,0,0,1,0,80H-22Z" transform="translate(202.667 4059.379)" fill="rgba(121,210,220,0.2)"/>
    <g id="Grupo_159955" data-name="Grupo 159955">
      <g id="SVG" transform="translate(190.455 4037.39)">
        <g id="Orange" transform="translate(4.61 4.61)">
          <g id="Grupo_159953" data-name="Grupo 159953" transform="translate(0 0)">
            <path id="Fill-1" d="M120.265,99.747a50.511,50.511,0,1,1-101.022,0c0-27.9,22.613-42.6,50.51-42.6s50.512,14.706,50.512,42.6" transform="translate(-16.135 -45.988)" fill="#f47c4a" fill-rule="evenodd"/>
            <path id="Fill-3" d="M197.213,66.1c14.809,6.462,24.762,19.115,24.762,37.6a50.385,50.385,0,0,1-61.764,49.208,50.458,50.458,0,0,0,71.084-46.1c0-22.137-14.262-35.933-34.082-40.7" transform="translate(-127.167 -53.045)" fill="#dd5b36" fill-rule="evenodd"/>
            <path id="Fill-5" d="M58.229,48.731c-21.87,0-47.406,10.345-47.406,39.5a47.4,47.4,0,1,0,94.809,0c0-29.152-25.536-39.5-47.4-39.5m0,93.116A53.683,53.683,0,0,1,4.61,88.228c0-27.341,21.547-45.71,53.619-45.71s53.616,18.369,53.616,45.71a53.68,53.68,0,0,1-53.616,53.619" transform="translate(-4.61 -34.468)" fill="#454849" fill-rule="evenodd"/>
            <path id="Fill-8" d="M189.333,172.143c-12.221,0-17.387-6.35-17.6-6.623a3.106,3.106,0,0,1,4.874-3.852c.118.14,3.7,4.262,12.727,4.262s12.609-4.122,12.756-4.3a3.125,3.125,0,0,1,4.355-.426,3.087,3.087,0,0,1,.488,4.315c-.214.273-5.381,6.623-17.6,6.623" transform="translate(-135.714 -127.385)" fill="#454849" fill-rule="evenodd"/>
            <path id="Fill-10" d="M240.517,49.366a3.1,3.1,0,0,1-2.964-2.187c-.3-.979-7.2-24.181,11.336-41.718a3.106,3.106,0,1,1,4.268,4.514c-15.676,14.831-9.919,34.545-9.665,35.377a3.109,3.109,0,0,1-2.976,4.014" transform="translate(-186.903 -4.61)" fill="#454849" fill-rule="evenodd"/>
            <path id="Fill-12" d="M89.315,32.171c34.24-10.811,32.625,16.968,32.625,16.968S100.126,66.411,89.315,32.171" transform="translate(-71.327 -24.35)" fill="#3bb777" fill-rule="evenodd"/>
            <path id="Fill-14" d="M89.315,41.436,121.94,58.4S100.126,75.676,89.315,41.436" transform="translate(-71.327 -33.615)" fill="#229857" fill-rule="evenodd"/>
            <path id="Fill-16" d="M81.783,22.728c3.24,8.77,7.518,14.02,12.737,15.62,5.334,1.646,10.5-.935,12.768-2.346-.162-2.672-1.038-8.44-5.436-11.839C97.54,20.829,90.8,20.351,81.783,22.728M98.068,45.085a18.187,18.187,0,0,1-5.368-.8c-7.863-2.411-13.877-10.046-17.869-22.7a3.108,3.108,0,0,1,2.025-3.9c12.653-3.989,22.358-3.454,28.847,1.6,8.41,6.549,7.844,18.027,7.816,18.518a3.112,3.112,0,0,1-1.174,2.252c-.314.245-6.462,5.03-14.278,5.03" transform="translate(-59.805 -12.833)" fill="#454849" fill-rule="evenodd"/>
            <path id="Fill-18" d="M131.812,225.76a24.435,24.435,0,0,1-19.059-9.14,2.33,2.33,0,0,1,3.765-2.746,19.939,19.939,0,0,0,16.229,7.207,2.257,2.257,0,0,1,2.429,2.227,2.327,2.327,0,0,1-2.225,2.426c-.385.018-.767.025-1.14.025" transform="translate(-89.438 -168.684)" fill="#fefefe" fill-rule="evenodd"/>
            <path id="Fill-20" d="M94.332,174.3a3.047,3.047,0,1,1-4.293.354,3.044,3.044,0,0,1,4.293-.354" transform="translate(-71.327 -137.698)" fill="#fefefe" fill-rule="evenodd"/>
          </g>
        </g>
      </g>
      <g id="Grupo_159954" data-name="Grupo 159954" transform="translate(257.015 4089.567)">
        <path id="Trazado_225915" data-name="Trazado 225915" d="M60.216,55.334l-.34-1.4-6.465,3.328a2.21,2.21,0,0,1-2.36-.21,2.441,2.441,0,0,1-.923-2.278l.954-6.86a2.809,2.809,0,0,0-.727-2.3l-4.618-4.944a2.462,2.462,0,0,1-.539-2.407,2.33,2.33,0,0,1,1.793-1.619l6.431-1.153a2.8,2.8,0,0,0,2.009-1.5l3.058-6.066a2.248,2.248,0,0,1,4.057,0l3.058,6.066a2.8,2.8,0,0,0,2.009,1.5l6.431,1.153a2.33,2.33,0,0,1,1.793,1.619,2.462,2.462,0,0,1-.539,2.407l-4.618,4.944a2.809,2.809,0,0,0-.727,2.3l.954,6.86a2.441,2.441,0,0,1-.923,2.278,2.21,2.21,0,0,1-2.36.21s-5.236-2.7-6.285-3.235c-.856-.441-1.013.4-.985,1.237l-.14.073ZM22.5,8.746a3.364,3.364,0,0,1,5.9,0l4.717,8.768a2.805,2.805,0,0,0,2.006,1.437l4.45.749,5.555.934A3.316,3.316,0,0,1,47.73,22.84a3.21,3.21,0,0,1-.783,3.283L39.9,33.2a2.8,2.8,0,0,0-.786,2.393c.443,2.991,1.448,9.764,1.448,9.764a3.231,3.231,0,0,1-1.341,3.106,3.394,3.394,0,0,1-3.434.286l-9.456-4.562a2.5,2.5,0,0,0-.881-.269,1.384,1.384,0,0,0-.609.14L15.11,48.751a3.394,3.394,0,0,1-3.434-.286,3.231,3.231,0,0,1-1.341-3.106s1-6.773,1.448-9.764A2.8,2.8,0,0,0,11,33.2L3.946,26.122a3.21,3.21,0,0,1-.783-3.283,3.316,3.316,0,0,1,2.607-2.205l10.005-1.683a2.805,2.805,0,0,0,2.006-1.437L22.5,8.746Z" transform="translate(0.903 0.903)" fill="#f4d160" fill-rule="evenodd"/>
        <path id="Star" d="M58.142,28.193l-3.058,6.066a1.411,1.411,0,0,1-1.007.749l-6.431,1.153a3.722,3.722,0,0,0-2.882,2.581,3.874,3.874,0,0,0,.85,3.782l4.618,4.947a1.4,1.4,0,0,1,.365,1.15l-.954,6.857A3.843,3.843,0,0,0,51.1,59.068a3.6,3.6,0,0,0,3.852.34l6.465-3.325,6.465,3.325a3.6,3.6,0,0,0,3.852-.34A3.843,3.843,0,0,0,73.2,55.479l-.954-6.857a1.4,1.4,0,0,1,.365-1.15l4.618-4.947a3.874,3.874,0,0,0,.85-3.782A3.722,3.722,0,0,0,75.2,36.161l-6.431-1.153a1.411,1.411,0,0,1-1.007-.749L64.7,28.193a3.648,3.648,0,0,0-6.56,0Zm2.506,3.263a.844.844,0,0,1,1.549,0l1.693,5.219A4.2,4.2,0,0,0,66.9,38.922l5.821.795a.927.927,0,0,1,.7.654A1.061,1.061,0,0,1,73.2,41.4L68.978,45.17a4.2,4.2,0,0,0-1.091,3.451,27.261,27.261,0,0,0,1.47,5.207,1.022,1.022,0,0,1-.379.965.811.811,0,0,1-.87.081l-6.044-3.619a1.4,1.4,0,0,0-1.285,0l-5.833,3.619a.811.811,0,0,1-.87-.081,1.022,1.022,0,0,1-.379-.965,51.852,51.852,0,0,0,1.091-5.207A4.2,4.2,0,0,0,53.7,45.17L49.643,41.4a1.061,1.061,0,0,1-.224-1.033.927.927,0,0,1,.7-.654,38.888,38.888,0,0,0,5.626-.389,4.2,4.2,0,0,0,3.013-2.247l1.888-5.624ZM22.163,8.984l-4.717,8.768a1.4,1.4,0,0,1-1,.718L6.439,20.154a4.713,4.713,0,0,0-3.7,3.145,4.61,4.61,0,0,0,1.12,4.717L10.9,35.095a1.4,1.4,0,0,1,.4,1.2c-.443,2.994-1.448,9.767-1.448,9.767a4.628,4.628,0,0,0,1.914,4.456,4.8,4.8,0,0,0,4.857.407l9.728-4.694,9.728,4.694a4.8,4.8,0,0,0,4.857-.407,4.628,4.628,0,0,0,1.914-4.456s-1-6.773-1.448-9.767a1.4,1.4,0,0,1,.4-1.2l7.048-7.079a4.61,4.61,0,0,0,1.12-4.717,4.713,4.713,0,0,0-3.7-3.145L36.254,18.471a1.4,1.4,0,0,1-1-.718L30.535,8.984a4.77,4.77,0,0,0-8.372,0Zm2.472,3.327a1.965,1.965,0,0,1,3.429,0,74.406,74.406,0,0,0,3.259,7.843,4.207,4.207,0,0,0,3.008,2.158c3.013.505,9.37,1.508,9.37,1.508a1.9,1.9,0,0,1,1.507,1.265,1.816,1.816,0,0,1-.443,1.852l-6.285,5.636A4.219,4.219,0,0,0,37.3,36.161c.443,2.994,1.731,8.387,1.731,8.387a1.828,1.828,0,0,1-.763,1.756,3.593,3.593,0,0,1-2.012.166l-9.3-5.067a1.4,1.4,0,0,0-1.218,0L16.91,46.47A1.992,1.992,0,0,1,14.9,46.3a1.828,1.828,0,0,1-.763-1.756s.822-5.393,1.265-8.387a4.219,4.219,0,0,0-1.181-3.589L8.331,26.937a1.816,1.816,0,0,1-.443-1.852,1.9,1.9,0,0,1,1.507-1.265s5.773-1,8.786-1.508a4.207,4.207,0,0,0,3.008-2.158c1.431-2.66,3.447-7.843,3.447-7.843Z" transform="translate(0 0)" fill-rule="evenodd"/>
      </g>
    </g>
  </g>
</svg>
