<svg xmlns="http://www.w3.org/2000/svg" width="110.008" height="97.514" viewBox="0 0 110.008 97.514">
  <g id="Grupo_159879" data-name="Grupo 159879" transform="translate(-2)">
    <g id="Grupo_159877" data-name="Grupo 159877" transform="translate(5.048 3.048)">
      <path id="Trazado_225782" data-name="Trazado 225782" d="M49.569,74.14A18.287,18.287,0,1,1,19.1,60.548V13.19A12.191,12.191,0,0,1,31.287,1h0a12.191,12.191,0,0,1,12.19,12.19V60.548A18.132,18.132,0,0,1,49.569,74.14Z" transform="translate(17.476 -1)" fill="#c9f9fb"/>
      <path id="Trazado_225783" data-name="Trazado 225783" d="M6.048,13.19C9.1,25.38,3,28.428,3,37.57a18.285,18.285,0,0,0,36.57,0C39.57,22.333,21.285,1,21.285,1a50.664,50.664,0,0,1-3.048,24.38Q12.144,13.189,6.048,13.19Z" transform="translate(-3 -1)" fill="#d62144"/>
      <path id="Trazado_225784" data-name="Trazado 225784" d="M28.19,55.321V6H22.1V55.321a9.143,9.143,0,1,0,6.1,0Z" transform="translate(23.618 9.238)" fill="#d62144"/>
      <path id="Trazado_225785" data-name="Trazado 225785" d="M17.19,38.951A12.2,12.2,0,0,1,5,26.76,17.305,17.305,0,0,1,6.249,22.1a55.791,55.791,0,0,0,1.832-5.991c.2.378.4.771.61,1.189l6.25,12.5,4.91-13.089A61.1,61.1,0,0,0,22.41,8c3.755,6.278,6.97,13.3,6.97,18.76A12.2,12.2,0,0,1,17.19,38.951Z" transform="translate(1.095 13.333)" fill="#fff3ae"/>
    </g>
    <g id="Grupo_159878" data-name="Grupo 159878" transform="translate(2)">
      <path id="Trazado_225786" data-name="Trazado 225786" d="M69.045,61.289V15.238a15.238,15.238,0,0,0-30.475,0v4.8A117.92,117.92,0,0,0,25.646,1.064a3.046,3.046,0,0,0-5.336,2.362A46.633,46.633,0,0,1,19.4,19.87C15.83,14.713,12.1,12.19,8.1,12.19a3.049,3.049,0,0,0-2.956,3.788c1.6,6.409.393,9.731-1.006,13.577A27.655,27.655,0,0,0,2,39.618a21.314,21.314,0,0,0,36.57,14.9v6.765a21.315,21.315,0,0,0,10.8,35.784,22.129,22.129,0,0,0,4.407.445A21.307,21.307,0,0,0,69.045,61.289ZM23.333,54.855A15.255,15.255,0,0,1,8.1,39.618a21.649,21.649,0,0,1,1.768-7.978,26.47,26.47,0,0,0,2.1-11.279,31.882,31.882,0,0,1,5.6,8.432,3.048,3.048,0,0,0,5.58-.3,55.763,55.763,0,0,0,3.514-16.106C31.786,19.656,38.57,30.9,38.57,39.618A15.255,15.255,0,0,1,23.333,54.855ZM63.429,88a15.336,15.336,0,0,1-12.845,3.1,15.213,15.213,0,0,1-6.948-26.218,3.048,3.048,0,0,0,1.03-2.283V15.238a9.143,9.143,0,0,1,18.285,0V62.6a3.056,3.056,0,0,0,1.027,2.283A15.189,15.189,0,0,1,63.429,88Z" transform="translate(-2)" fill="#1a1a1a"/>
    </g>
    <path id="Trazado_225787" data-name="Trazado 225787" d="M2.293,55.148l5.2-5.2V9.8l-5.2-5.2L6.6.293l3.94,3.94,3.94-3.94L18.792,4.6l-5.2,5.2V22.519l6.1-6.1V8.543h6.1v6.1h6.1v6.1H23.994l-6.1,6.1H33.661l5.2-5.2,4.309,4.309-3.94,3.94,3.94,3.94-4.309,4.309-5.2-5.2H17.9l6.1,6.1h7.881v6.1h-6.1v6.1h-6.1V43.327l-6.1-6.1V49.946l5.2,5.2-4.309,4.309-3.94-3.94L6.6,59.457Z" transform="translate(68.836 0.6)" fill="#1a1a1a"/>
  </g>
</svg>
