<svg xmlns="http://www.w3.org/2000/svg" width="110.042" height="110.042" viewBox="0 0 110.042 110.042">
  <g id="Bacteria" transform="translate(0.003)">
    <path id="Trazado_225788" data-name="Trazado 225788" d="M68.282,24.743a16.047,16.047,0,0,1-4.7,11.462l-19.44,19.44a16.047,16.047,0,0,1-27-14.786c1.307-6.144,3.347-6.877,23.749-27.348A16.047,16.047,0,0,1,68.282,24.743Z" transform="translate(21.676 11.385)" fill="#9dcc6b"/>
    <path id="Trazado_225789" data-name="Trazado 225789" d="M67.684,21.361c-1.353,6.327-3.76,7.359-23.749,27.348a16.047,16.047,0,0,1-27-7.909c1.307-6.144,3.347-6.877,23.749-27.348a16.047,16.047,0,0,1,27,7.909Z" transform="translate(21.884 11.329)" fill="#b5e08c"/>
    <path id="Trazado_225790" data-name="Trazado 225790" d="M48.17,42.579a4.585,4.585,0,1,1-2.1-3.843A4.585,4.585,0,0,1,48.17,42.579Z" transform="translate(50.407 49.117)" fill="#a522f2"/>
    <path id="Trazado_225791" data-name="Trazado 225791" d="M46.455,44.455A4.585,4.585,0,0,1,40.4,38.4a4.585,4.585,0,0,1,6.052,6.052Z" transform="translate(51.71 49.121)" fill="#ae3ef9"/>
    <path id="Trazado_225792" data-name="Trazado 225792" d="M40.17,17.579a4.585,4.585,0,1,1-2.1-3.843A4.585,4.585,0,0,1,40.17,17.579Z" transform="translate(40.068 16.807)" fill="#a522f2"/>
    <path id="Trazado_225793" data-name="Trazado 225793" d="M38.455,19.455A4.585,4.585,0,0,1,32.4,13.4a4.585,4.585,0,0,1,6.052,6.052Z" transform="translate(41.37 16.811)" fill="#ae3ef9"/>
    <path id="Trazado_225794" data-name="Trazado 225794" d="M36.17,47.579a4.585,4.585,0,1,1-2.1-3.843A4.585,4.585,0,0,1,36.17,47.579Z" transform="translate(34.898 55.579)" fill="#a522f2"/>
    <path id="Trazado_225795" data-name="Trazado 225795" d="M34.455,49.455A4.585,4.585,0,0,1,28.4,43.4a4.585,4.585,0,0,1,6.052,6.052Z" transform="translate(36.201 55.583)" fill="#ae3ef9"/>
    <path id="Trazado_225796" data-name="Trazado 225796" d="M10.17,21.579a4.585,4.585,0,1,1-2.1-3.843A4.585,4.585,0,0,1,10.17,21.579Z" transform="translate(1.295 21.976)" fill="#a522f2"/>
    <path id="Trazado_225797" data-name="Trazado 225797" d="M8.455,23.455A4.585,4.585,0,0,1,2.4,17.4a4.585,4.585,0,0,1,6.052,6.052Z" transform="translate(2.598 21.981)" fill="#ae3ef9"/>
    <path id="Trazado_225798" data-name="Trazado 225798" d="M30.585,18.292a2.292,2.292,0,1,0-2.292,2.292A2.292,2.292,0,0,0,30.585,18.292Z" transform="translate(33.606 20.679)" fill="#ae3ef9"/>
    <path id="Trazado_225799" data-name="Trazado 225799" d="M30.585,25.292a2.292,2.292,0,1,0-2.292,2.292A2.292,2.292,0,0,0,30.585,25.292Z" transform="translate(33.606 29.726)" fill="#ae3ef9"/>
    <path id="Trazado_225800" data-name="Trazado 225800" d="M24.585,25.292a2.292,2.292,0,1,0-2.292,2.292A2.292,2.292,0,0,0,24.585,25.292Z" transform="translate(25.852 29.726)" fill="#ae3ef9"/>
    <path id="Trazado_225801" data-name="Trazado 225801" d="M16.755,9.882A6.877,6.877,0,1,1,12.689,3.6a6.877,6.877,0,0,1,4.066,6.285Z" transform="translate(3.881 3.872)" fill="#9dcc6b"/>
    <path id="Trazado_225802" data-name="Trazado 225802" d="M15.471,9.882a2.292,2.292,0,0,1,0,.55A6.877,6.877,0,0,1,4.009,5.3a2.292,2.292,0,0,1,0-.55A6.877,6.877,0,0,1,15.471,9.882Z" transform="translate(5.164 3.872)" fill="#b5e08c"/>
    <path id="Trazado_225803" data-name="Trazado 225803" d="M20.442,54.44a4.585,4.585,0,0,1-6.488,0L4.212,44.7A4.585,4.585,0,0,1,7.467,36.88c2.545,0,2.545.642,12.975,11.072a4.585,4.585,0,0,1,0,6.488Z" transform="translate(3.723 47.664)" fill="#9dcc6b"/>
    <path id="Trazado_225804" data-name="Trazado 225804" d="M98.87,37.216c-5.5-4.722-5.364-4.585-5.616-4.768a6.167,6.167,0,0,0-7.519.94,1.6,1.6,0,0,1-2.292,0L81.149,31.1a18.156,18.156,0,0,0-2.636-5.5l.986-.5a7.519,7.519,0,0,0,4.126-6.763,2.934,2.934,0,0,1,1.628-2.636l3.6-1.788a2.3,2.3,0,1,0-2.063-4.1c-3.507,1.651-7.748,3.118-7.748,8.528a2.934,2.934,0,0,1-1.628,2.636l-2.292,1.1a18.11,18.11,0,0,0-6.648-3.53L66.18,16.24a1.559,1.559,0,0,1,0-2.292,6.167,6.167,0,0,0,.711-7.84L62.306.812a2.293,2.293,0,0,0-3.484,2.98L63.2,8.9c.917,1.926-2.109,2.292-2.109,6.144a5.914,5.914,0,0,0,.711,2.82,18.2,18.2,0,0,0-8.665,3.072,8.6,8.6,0,0,0-3.9-4.241c-3.186-1.582-1.949-4.791-1.353-7.7A2.336,2.336,0,0,0,43.3,8.1l-.688,3.507a8.436,8.436,0,0,0,4.585,9.17,3.92,3.92,0,0,1,1.949,2.292l.367,1.1-6.4,6.373c-3.9-5.777-7.748-1.7-9.88-8.092A2.294,2.294,0,0,0,28.882,23.9c3.072,9.17,8.8,5.227,10.866,10.041l-7.68,7.68c-2.109-.711-2.728-1.077-3.347-2.292a8.436,8.436,0,0,0-9.17-4.585l-3.507.688a2.336,2.336,0,0,0,.894,4.585c3.026-.6,6.144-1.765,7.7,1.375a8.459,8.459,0,0,0,4.241,3.943,18.339,18.339,0,0,0-3.095,8.688A6.281,6.281,0,0,0,18.635,55.1c-1.146,1.123-1.857.275-7.45-3.072a2.292,2.292,0,0,0-2.292,3.92l5.525,3.324a6.167,6.167,0,0,0,7.519-.94,1.6,1.6,0,0,1,2.292,0l2.292,2.292a17.7,17.7,0,0,0,2.659,5.5l-1.009.5a7.519,7.519,0,0,0-4.149,6.717,2.934,2.934,0,0,1-1.628,2.636L18.75,77.929a2.3,2.3,0,1,0,2.063,4.1c3.553-1.811,7.794-3.278,7.794-8.688a2.934,2.934,0,0,1,1.628-2.636l2.178-1.1a18.11,18.11,0,0,0,6.648,3.53l2.292,2.292a1.559,1.559,0,0,1,0,2.292,6.144,6.144,0,0,0-.917,7.519l3.3,5.525a2.292,2.292,0,0,0,3.92-2.292l-3.3-5.5C43.187,81,46.4,80.68,46.4,76.691a6.19,6.19,0,0,0-.711-2.82A18.2,18.2,0,0,0,54.351,70.8a8.711,8.711,0,0,0,4.058,4.172c3.186,1.582,1.949,4.791,1.353,7.7a2.336,2.336,0,1,0,4.585.894l.688-3.507a8.436,8.436,0,0,0-4.585-9.17A3.92,3.92,0,0,1,58.5,68.6l-.367-1.1,7.68-7.68c4.814,2.086.871,7.817,10.041,10.866A2.294,2.294,0,1,0,77.3,66.33c-6.327-2.109-2.292-6.006-8.092-9.88l6.373-6.4c2.109.711,2.728,1.077,3.347,2.292a8.436,8.436,0,0,0,7.542,4.585,25.881,25.881,0,0,0,5.158-.848,2.336,2.336,0,1,0-.894-4.585c-2.957.573-6.144,1.788-7.7-1.375a8.459,8.459,0,0,0-4.241-3.943,18.339,18.339,0,0,0,3.095-8.688,6.281,6.281,0,0,0,7.084-.825,1.6,1.6,0,0,1,1.811-.3c5.525,4.677,5.479,4.883,6.6,4.883a2.292,2.292,0,0,0,1.49-4.035ZM53.824,65.3A13.762,13.762,0,1,1,34.361,45.835L53.824,26.373A13.762,13.762,0,1,1,73.287,45.835Z" transform="translate(10.367 0.013)" fill="#231f20"/>
    <path id="Trazado_225805" data-name="Trazado 225805" d="M2.292,16.047c3.874,0,1.88-.573,3.6,2.292L4.012,20.2a2.3,2.3,0,0,0,3.255,3.255c2.774-2.82.917-1.7,4.2-.848v2.613a2.292,2.292,0,0,0,4.585,0V22.6c3.278-.848,1.421-1.88,4.2.894A2.3,2.3,0,0,0,23.5,20.242l-1.88-1.9c1.742-2.888-.3-2.292,3.6-2.292a2.292,2.292,0,0,0,0-4.585c-3.874,0-1.88.573-3.6-2.292L23.5,7.313a2.318,2.318,0,1,0-3.255-3.3l-1.9,1.88c-2.888-1.742-2.292.3-2.292-3.6a2.292,2.292,0,1,0-4.585,0c0,3.874.573,1.88-2.292,3.6L7.313,4.012a2.318,2.318,0,1,0-3.3,3.255l1.88,1.9c-1.742,2.888.3,2.292-3.6,2.292a2.292,2.292,0,1,0,0,4.585Zm8.23-5.525a4.585,4.585,0,0,1,7.817,3.232,4.447,4.447,0,0,1-1.353,3.232A4.585,4.585,0,0,1,9.17,13.754a4.447,4.447,0,0,1,1.353-3.232Z" transform="translate(0.003)" fill="#231f20"/>
    <path id="Trazado_225806" data-name="Trazado 225806" d="M28.361,48.262c-2.866,2.292-2.292,2.017-2.59,1.788l-3.232-3.232L24.555,44.8A2.3,2.3,0,0,0,21.3,41.546l-2.017,2.017L16.05,40.331h0c-.229-.229-.527.275,1.788-2.59a2.3,2.3,0,0,0-3.576-2.888l-2.8,3.553a6.877,6.877,0,0,0-3.164.619l-2.04-2.063a2.3,2.3,0,1,0-3.255,3.255l2.04,2.017a6.877,6.877,0,0,0-.711,3.232l-3.484,2.8A2.3,2.3,0,1,0,3.74,51.838c2.866-2.292,2.292-2.017,2.59-1.788l3.232,3.232L7.546,55.3a2.292,2.292,0,0,0,1.628,3.92c1.261,0,1.788-.825,3.645-2.682,4.585,4.585,2.888,2.888,3.416,3.393l-1.971,2.43a2.3,2.3,0,0,0,3.576,2.888c3.209-4.012,2.659-3.462,3.072-3.462a6.877,6.877,0,0,0,2.957-.688l2.017,2.04a2.3,2.3,0,1,0,3.255-3.255L27.1,57.868a6.877,6.877,0,0,0,.665-3.232l3.484-2.8a2.3,2.3,0,1,0-2.888-3.576Zm-18.8-1.444a2.3,2.3,0,0,1,3.255-3.255l9.72,9.72a2.3,2.3,0,0,1-3.255,3.255Z" transform="translate(0 43.939)" fill="#231f20"/>
    <path id="Trazado_225807" data-name="Trazado 225807" d="M44.877,37a6.877,6.877,0,1,0,6.877,6.877A6.877,6.877,0,0,0,44.877,37Zm0,9.17a2.292,2.292,0,1,1,2.292-2.292A2.292,2.292,0,0,1,44.877,46.17Z" transform="translate(49.115 47.819)" fill="#231f20"/>
    <path id="Trazado_225808" data-name="Trazado 225808" d="M36.877,12a6.877,6.877,0,1,0,6.877,6.877A6.877,6.877,0,0,0,36.877,12Zm0,9.17a2.292,2.292,0,1,1,2.292-2.292A2.292,2.292,0,0,1,36.877,21.17Z" transform="translate(38.776 15.509)" fill="#231f20"/>
    <path id="Trazado_225809" data-name="Trazado 225809" d="M32.877,42a6.877,6.877,0,1,0,6.877,6.877A6.877,6.877,0,0,0,32.877,42Zm0,9.17a2.292,2.292,0,1,1,2.292-2.292A2.292,2.292,0,0,1,32.877,51.17Z" transform="translate(33.606 54.281)" fill="#231f20"/>
    <path id="Trazado_225810" data-name="Trazado 225810" d="M6.877,29.754A6.877,6.877,0,1,0,0,22.877a6.877,6.877,0,0,0,6.877,6.877Zm0-9.17a2.292,2.292,0,1,1-2.292,2.292A2.292,2.292,0,0,1,6.877,20.585Z" transform="translate(0.003 20.679)" fill="#231f20"/>
    <path id="Trazado_225811" data-name="Trazado 225811" d="M28.292,16a2.292,2.292,0,1,0,2.292,2.292A2.292,2.292,0,0,0,28.292,16Z" transform="translate(33.606 20.679)" fill="#231f20"/>
    <path id="Trazado_225812" data-name="Trazado 225812" d="M28.292,23a2.292,2.292,0,1,0,2.292,2.292A2.292,2.292,0,0,0,28.292,23Z" transform="translate(33.606 29.726)" fill="#231f20"/>
    <path id="Trazado_225813" data-name="Trazado 225813" d="M22.292,23a2.292,2.292,0,1,0,2.292,2.292A2.292,2.292,0,0,0,22.292,23Z" transform="translate(25.852 29.726)" fill="#231f20"/>
  </g>
</svg>
