<svg xmlns="http://www.w3.org/2000/svg" width="190.332" height="107.381" viewBox="0 0 190.332 107.381">
  <g id="Grupo_160847" data-name="Grupo 160847" transform="translate(-179.669 -5570.619)">
    <g id="Grupo_159886" data-name="Grupo 159886">
      <rect id="Rectángulo_33803" data-name="Rectángulo 33803" width="190" height="100" transform="translate(180.001 5577.998)" fill="none"/>
      <path id="Trazado_113613" data-name="Trazado 113613" d="M-22,0H107a40,40,0,0,1,0,80H-22Z" transform="translate(201.669 5587.998)" fill="rgba(121,210,220,0.2)"/>
      <g id="Grupo_159885" data-name="Grupo 159885" transform="translate(209.479 5569.619)">
        <g id="Grupo_159883" data-name="Grupo 159883" transform="translate(6.196 2.732)">
          <path id="Trazado_225841" data-name="Trazado 225841" d="M43.515,15.856a3.489,3.489,0,0,1-3.464,3.464H24.672a3.674,3.674,0,0,1-2.6-6.27l.658-.658-1.143-2.286A5.675,5.675,0,0,1,21,7.612,5.618,5.618,0,0,1,26.612,2h16.28A21.418,21.418,0,0,1,52.47,42.562l-2.026,1v-8.66l5.075-3.81a4.616,4.616,0,0,0-2.771-8.313h-2.3A6.926,6.926,0,0,0,43.515,15.856Z" transform="translate(8.443 -2)" fill="#b27946"/>
          <path id="Trazado_225842" data-name="Trazado 225842" d="M61.464,50.077l-2.373-1.056a3.479,3.479,0,0,1-2.061-3.169v-16.8l5.075-3.81a4.616,4.616,0,0,0-2.771-8.313h-2.3A6.926,6.926,0,0,0,50.1,10a3.489,3.489,0,0,1-3.464,3.464H32.783v.675a20.685,20.685,0,0,1-3.464,11.448l3.464,1.732v9.006a4.841,4.841,0,0,0,4.849,4.849,4.664,4.664,0,0,0,.693-.052l4.849-.693v5.421a3.479,3.479,0,0,1-2.061,3.169l-2.373,1.056A45.015,45.015,0,0,0,12,91.228v8.833H88.206V91.228A45.015,45.015,0,0,0,61.464,50.077Z" transform="translate(1.856 3.856)" fill="#f0d0b4"/>
          <path id="Trazado_225843" data-name="Trazado 225843" d="M58.783,73.141V76.1a3.474,3.474,0,0,1-3.464,3.464H41.464A3.474,3.474,0,0,1,38,76.1V40.563A2.558,2.558,0,0,1,40.563,38a2.6,2.6,0,0,1,1.611.554A44.33,44.33,0,0,1,58.783,73.141Z" transform="translate(20.886 24.35)" fill="#ef7385"/>
          <path id="Trazado_225844" data-name="Trazado 225844" d="M18,73.141V76.1a3.474,3.474,0,0,0,3.464,3.464H35.319A3.474,3.474,0,0,0,38.783,76.1V40.563A2.558,2.558,0,0,0,36.22,38a2.6,2.6,0,0,0-1.611.554A44.33,44.33,0,0,0,18,73.141Z" transform="translate(6.247 24.35)" fill="#ef7385"/>
          <circle id="Elipse_6499" data-name="Elipse 6499" cx="3.5" cy="3.5" r="3.5" transform="translate(31.185 96.649)" fill="#ffeaa7"/>
          <circle id="Elipse_6500" data-name="Elipse 6500" cx="3" cy="3" r="3" transform="translate(28.185 76.649)" fill="#5cd6b3"/>
          <circle id="Elipse_6501" data-name="Elipse 6501" cx="3.5" cy="3.5" r="3.5" transform="translate(38.185 86.649)" fill="#ffeaa7"/>
          <circle id="Elipse_6502" data-name="Elipse 6502" cx="3.5" cy="3.5" r="3.5" transform="translate(90.185 51.649)" fill="#ef7385"/>
          <circle id="Elipse_6503" data-name="Elipse 6503" cx="3.5" cy="3.5" r="3.5" transform="translate(69.185 41.649)" fill="#ef7385"/>
          <circle id="Elipse_6504" data-name="Elipse 6504" cx="3.5" cy="3.5" r="3.5" transform="translate(93.185 3.649)" fill="#ef7385"/>
          <path id="Trazado_225845" data-name="Trazado 225845" d="M58.928,14A6.928,6.928,0,1,1,52,20.928,6.926,6.926,0,0,1,58.928,14Z" transform="translate(31.134 6.783)" fill="#5cd6b3"/>
          <circle id="Elipse_6505" data-name="Elipse 6505" cx="3.5" cy="3.5" r="3.5" transform="translate(19.185 17.649)" fill="#ef7385"/>
          <circle id="Elipse_6506" data-name="Elipse 6506" cx="3.5" cy="3.5" r="3.5" transform="translate(8.185 3.649)" fill="#5cd6b3"/>
          <path id="Trazado_225846" data-name="Trazado 225846" d="M11.274,34.01a6.928,6.928,0,1,1-.693,0,3.464,3.464,0,1,0,.693,0Z" transform="translate(-4 21.43)" fill="#ef7385"/>
          <path id="Trazado_225847" data-name="Trazado 225847" d="M9.81,34.017a3.464,3.464,0,1,1-.693,0A2.208,2.208,0,0,1,9.464,34,2.208,2.208,0,0,1,9.81,34.017Z" transform="translate(-2.536 21.422)" fill="#5cd6b3"/>
        </g>
        <g id="Grupo_159884" data-name="Grupo 159884" transform="translate(1 1)">
          <path id="Trazado_225848" data-name="Trazado 225848" d="M27.392,46.783V43H23.928v3.783a5.191,5.191,0,0,0-3.145,3.145H17v3.464h3.783a5.191,5.191,0,0,0,3.145,3.145v3.783h3.464V56.537a5.191,5.191,0,0,0,3.145-3.145h3.783V49.928H30.537A5.191,5.191,0,0,0,27.392,46.783ZM25.66,53.392a1.732,1.732,0,1,1,1.732-1.732A1.733,1.733,0,0,1,25.66,53.392Z" transform="translate(10.711 29.742)"/>
          <path id="Trazado_225849" data-name="Trazado 225849" d="M33.928,16.732a1.732,1.732,0,1,1-3.464,0V15H27v1.732a5.2,5.2,0,0,0,10.392,0V15H33.928Z" transform="translate(18.031 9.247)"/>
          <path id="Trazado_225850" data-name="Trazado 225850" d="M62.9,55.078l-2.376-1.053a1.741,1.741,0,0,1-1.029-1.586v-7.07l1.063-.532A23.14,23.14,0,0,0,50.211,1H33.926a7.338,7.338,0,0,0-6.564,10.619l.587,1.173a5.392,5.392,0,0,0,3.8,8.968,18.836,18.836,0,0,1-3.135,9.456l-1.088,1.631,4.261,2.13v7.934a6.59,6.59,0,0,0,6.583,6.583,6.762,6.762,0,0,0,.932-.066l2.877-.41v3.421a1.732,1.732,0,0,1-1.029,1.583L38.77,55.077A46.806,46.806,0,0,0,11,97.809v10.572H90.67V97.809A46.8,46.8,0,0,0,62.9,55.078Zm-32.848-38.7A1.955,1.955,0,0,1,30.62,15l1.54-1.54-1.7-3.4a3.87,3.87,0,0,1,3.462-5.6H50.21a19.653,19.653,0,0,1,9.285,36.988V36.5l4.387-3.291a6.35,6.35,0,0,0-3.81-11.431H59.32a8.681,8.681,0,0,0-7.033-6.8,5.184,5.184,0,0,0-4.915-3.592H45.639v3.464h1.732a1.732,1.732,0,0,1,0,3.464H31.993A1.944,1.944,0,0,1,30.051,16.378Zm3.464,88.539a1.732,1.732,0,1,1,1.732-1.732A1.733,1.733,0,0,1,33.515,104.917ZM36.5,70.967A42.738,42.738,0,0,1,40.822,67a.861.861,0,0,1,1.353.649V87.916a5.137,5.137,0,0,0-1.732-.319,5.2,5.2,0,0,0,0,10.392,5.137,5.137,0,0,0,1.732-.319v5.515a1.733,1.733,0,0,1-1.732,1.732H38.393a5.137,5.137,0,0,0,.319-1.732,5.2,5.2,0,0,0-10.392,0,5.137,5.137,0,0,0,.319,1.732H26.588a1.733,1.733,0,0,1-1.732-1.732v-2.967a42.656,42.656,0,0,1,.92-8.8L22.386,90.7a46.108,46.108,0,0,0-.994,9.515v2.967a5.137,5.137,0,0,0,.319,1.732H14.464V97.809A43.331,43.331,0,0,1,40.178,58.243l2.376-1.056a5.2,5.2,0,0,0,3.085-4.747V48.523l3.464-.5V69.561l-3.464,3.464V67.645a4.3,4.3,0,0,0-6.978-3.355,46.2,46.2,0,0,0-4.669,4.3Zm5.67,21.826a1.732,1.732,0,1,1-1.732-1.732A1.733,1.733,0,0,1,42.175,92.793Zm3.145,12.124a5.137,5.137,0,0,0,.319-1.732V77.923l5.2-5.2,5.2,5.2v25.262a5.137,5.137,0,0,0,.319,1.732Zm31.494-1.732a1.733,1.733,0,0,1-1.732,1.732H61.227a1.733,1.733,0,0,1-1.732-1.732V67.645A.86.86,0,0,1,60.845,67a42.333,42.333,0,0,1,15.969,33.222Zm10.392,1.732H79.959a5.137,5.137,0,0,0,.319-1.732v-2.967A45.782,45.782,0,0,0,63.009,64.291a4.3,4.3,0,0,0-6.978,3.355v5.378l-3.464-3.464V44.3a8.67,8.67,0,0,0-8.66-8.66h-5.2V39.1h5.2a5.2,5.2,0,0,1,5.2,5.2v.229L38.812,46a3.159,3.159,0,0,1-3.564-3.086V32.837L32.5,31.465a22.242,22.242,0,0,0,2.678-9.682H47.371a5.2,5.2,0,0,0,4.815-3.263,5.186,5.186,0,0,1,3.845,4.995v1.732h4.041a2.887,2.887,0,0,1,1.734,5.2l-5.774,4.33V52.439a5.2,5.2,0,0,0,3.085,4.749l2.376,1.055A43.333,43.333,0,0,1,87.206,97.809Z" transform="translate(6.319 -1)"/>
          <path id="Trazado_225851" data-name="Trazado 225851" d="M62.856,14.639V11H59.392v3.639a8.687,8.687,0,0,0-6.753,6.753H49v3.464h3.639a8.687,8.687,0,0,0,6.753,6.753v3.639h3.464V31.608a8.687,8.687,0,0,0,6.753-6.753h3.639V21.392H69.608A8.687,8.687,0,0,0,62.856,14.639ZM61.124,28.319a5.2,5.2,0,1,1,5.2-5.2A5.2,5.2,0,0,1,61.124,28.319Z" transform="translate(34.134 6.319)"/>
          <circle id="Elipse_6507" data-name="Elipse 6507" cx="2" cy="2" r="2" transform="translate(93.381 27.381)"/>
          <path id="Trazado_225852" data-name="Trazado 225852" d="M62.2,13.392A5.2,5.2,0,1,0,57,8.2,5.2,5.2,0,0,0,62.2,13.392Zm0-6.928A1.732,1.732,0,1,1,60.464,8.2,1.733,1.733,0,0,1,62.2,6.464Z" transform="translate(39.989 0.464)"/>
          <path id="Trazado_225853" data-name="Trazado 225853" d="M43,30.2A5.2,5.2,0,1,0,48.2,25,5.2,5.2,0,0,0,43,30.2Zm6.928,0A1.732,1.732,0,1,1,48.2,28.464,1.733,1.733,0,0,1,49.928,30.2Z" transform="translate(29.742 16.567)"/>
          <path id="Trazado_225854" data-name="Trazado 225854" d="M60.2,31a5.2,5.2,0,1,0,5.2,5.2A5.2,5.2,0,0,0,60.2,31Zm0,6.928A1.732,1.732,0,1,1,61.928,36.2,1.733,1.733,0,0,1,60.2,37.928Z" transform="translate(38.525 20.958)"/>
          <path id="Trazado_225855" data-name="Trazado 225855" d="M16.2,26.464h8.66V23H16.2a5.2,5.2,0,1,0,0,10.392h1.732V29.928H16.2a1.732,1.732,0,1,1,0-3.464Z" transform="translate(6.319 15.103)"/>
          <path id="Trazado_225856" data-name="Trazado 225856" d="M9.66,28.319H32.175V24.856H9.66a5.2,5.2,0,1,1,0-10.392,1.732,1.732,0,1,1,0,3.464H7.928v3.464H9.66A5.2,5.2,0,1,0,9.66,11a8.66,8.66,0,0,0,0,17.319Z" transform="translate(-1 6.319)"/>
          <path id="Trazado_225857" data-name="Trazado 225857" d="M12.928,14.537v3.783h3.464V14.537a5.191,5.191,0,0,0,3.145-3.145h3.783V7.928H19.537a5.191,5.191,0,0,0-3.145-3.145V1H12.928V4.783A5.191,5.191,0,0,0,9.783,7.928H6v3.464H9.783A5.191,5.191,0,0,0,12.928,14.537ZM14.66,7.928A1.732,1.732,0,1,1,12.928,9.66,1.733,1.733,0,0,1,14.66,7.928Z" transform="translate(2.66 -1)"/>
          <path id="Trazado_225858" data-name="Trazado 225858" d="M14,16.2A5.2,5.2,0,1,0,19.2,11,5.2,5.2,0,0,0,14,16.2Zm5.2-1.732A1.732,1.732,0,1,1,17.464,16.2,1.733,1.733,0,0,1,19.2,14.464Z" transform="translate(8.515 6.319)"/>
          <path id="Trazado_225859" data-name="Trazado 225859" d="M21.608,44.856h3.639V41.392H21.608a8.687,8.687,0,0,0-6.753-6.753V31H11.392v3.639a8.687,8.687,0,0,0-6.753,6.753H1v3.464H4.639a8.687,8.687,0,0,0,6.753,6.753v3.639h3.464V51.608A8.687,8.687,0,0,0,21.608,44.856Zm-8.485-6.928a1.732,1.732,0,1,1-1.732,1.732A1.733,1.733,0,0,1,13.124,37.928Zm0,10.392a5.2,5.2,0,0,1-5.2-5.2,5.137,5.137,0,0,1,.319-1.732,5.165,5.165,0,0,0,9.754,0,5.137,5.137,0,0,1,.319,1.732A5.2,5.2,0,0,1,13.124,48.319Z" transform="translate(-1 20.958)"/>
        </g>
      </g>
    </g>
  </g>
</svg>
