<svg xmlns="http://www.w3.org/2000/svg" width="169" height="97.197" viewBox="0 0 169 97.197">
  <g id="Grupo_160846" data-name="Grupo 160846" transform="translate(-180 -395)">
    <path id="Trazado_113613" data-name="Trazado 113613" d="M-22,0H107a40,40,0,0,1,0,80H-22Z" transform="translate(202 412.197)" fill="rgba(121,210,220,0.2)"/>
    <g id="_x33_7-Diploma" transform="translate(202.999 386.7)">
      <g id="Grupo_159864" data-name="Grupo 159864" transform="translate(0 8.3)">
        <g id="Grupo_159853" data-name="Grupo 159853" transform="translate(2.111 2.111)">
          <path id="Trazado_225769" data-name="Trazado 225769" d="M119.687,9.4V85.58H108.366l-6.908-12.089a5.677,5.677,0,0,1-1.919-.384,3.46,3.46,0,0,0-1.919-.384A4.582,4.582,0,0,0,93.4,75.6a3.93,3.93,0,0,1-1.919,2.3l4.413,7.676H83.228L87.45,78.1a5.832,5.832,0,0,1-2.3-2.495,4.317,4.317,0,0,0-4.222-3.07,6.817,6.817,0,0,0-1.919.384,4.516,4.516,0,0,1-1.535.384L70.564,85.58H1.1V9.4Z" transform="translate(-1.1 -9.4)" fill="#ffeea9"/>
        </g>
        <g id="Grupo_159854" data-name="Grupo 159854" transform="translate(68.312 27.44)">
          <path id="Trazado_225770" data-name="Trazado 225770" d="M76.664,40.638a4.486,4.486,0,0,1-2.878-4.222A5.677,5.677,0,0,1,74.17,34.5a4.534,4.534,0,0,0-4.03-6.524,8.445,8.445,0,0,0-1.919.384,6.818,6.818,0,0,1-1.919.384,4.49,4.49,0,0,1-4.222-3.07,4.68,4.68,0,0,0-4.222-3.07,4.486,4.486,0,0,0-4.222,2.878,4.313,4.313,0,0,1-4.222,2.878,6.818,6.818,0,0,1-1.919-.384A4.58,4.58,0,0,0,40.973,32a8.445,8.445,0,0,0,.384,1.919,3.46,3.46,0,0,1,.384,1.919,4.49,4.49,0,0,1-3.07,4.222,4.68,4.68,0,0,0-3.07,4.222A4.486,4.486,0,0,0,38.478,48.5a4.313,4.313,0,0,1,2.878,4.222,6.818,6.818,0,0,1-.384,1.919A4.534,4.534,0,0,0,45,61.17h.384a4.516,4.516,0,0,0,1.535-.384A3.46,3.46,0,0,1,48.84,60.4a4.317,4.317,0,0,1,4.222,3.07,4.243,4.243,0,0,0,2.3,2.495,3.46,3.46,0,0,0,1.919.384,4.323,4.323,0,0,0,4.03-2.878,4.486,4.486,0,0,1,4.222-2.878,5.677,5.677,0,0,1,1.919.384,3.8,3.8,0,0,0,1.919.384,4.463,4.463,0,0,0,4.413-4.413,6.818,6.818,0,0,0-.384-1.919,6.818,6.818,0,0,1-.384-1.919,4.317,4.317,0,0,1,3.07-4.222C80.5,47.546,80.5,41.981,76.664,40.638Zm-19,14.775A10.938,10.938,0,1,1,68.6,44.475,10.933,10.933,0,0,1,57.667,55.413Z" transform="translate(-35.6 -22.6)" fill="#d32436"/>
        </g>
        <g id="Grupo_159855" data-name="Grupo 159855" transform="translate(68.888 65.242)">
          <path id="Trazado_225771" data-name="Trazado 225771" d="M55.281,47.865l-4.222,7.484L45.3,65.71l-3.646-4.605L35.9,60.338l2.686-4.989,6.908-12.281a4.516,4.516,0,0,0,1.535-.384,3.46,3.46,0,0,1,1.919-.384,4.317,4.317,0,0,1,4.222,3.07A3.492,3.492,0,0,0,55.281,47.865Z" transform="translate(-35.9 -42.3)" fill="#8dd1d3"/>
        </g>
        <g id="Grupo_159856" data-name="Grupo 159856" transform="translate(92.49 65.434)">
          <path id="Trazado_225772" data-name="Trazado 225772" d="M67.773,60.246l-5.757.768L58.37,65.619,52.613,55.257,48.2,47.581a3.845,3.845,0,0,0,1.919-2.3A4.486,4.486,0,0,1,54.34,42.4a5.677,5.677,0,0,1,1.919.384,3.8,3.8,0,0,0,1.919.384l6.908,12.089Z" transform="translate(-48.2 -42.4)" fill="#8dd1d3"/>
        </g>
        <g id="Grupo_159863" data-name="Grupo 159863">
          <g id="Grupo_159857" data-name="Grupo 159857">
            <path id="Trazado_225773" data-name="Trazado 225773" d="M120.7,8.3H2.111A2.13,2.13,0,0,0,0,10.411v76.18A2.13,2.13,0,0,0,2.111,88.7H67.737l-.959,1.727a1.743,1.743,0,0,0,0,1.919c.384.576.959,1.151,1.535,1.151l4.989.768,3.262,4.03a1.871,1.871,0,0,0,1.727.768h.192a1.844,1.844,0,0,0,1.727-1.151L85.391,88.7h10.17l5.181,9.211a2.794,2.794,0,0,0,1.727,1.151h.192a2.344,2.344,0,0,0,1.727-.768l3.262-4.03,4.989-.768a1.672,1.672,0,0,0,1.535-1.151,1.743,1.743,0,0,0,0-1.919l-.959-1.727h7.676A2.13,2.13,0,0,0,123,86.591V10.411A2.453,2.453,0,0,0,120.7,8.3ZM72.15,59.918a2.585,2.585,0,0,1-1.535-2.3,2.387,2.387,0,0,1,1.535-2.3,6.573,6.573,0,0,0,4.413-6.14,5.573,5.573,0,0,0-.576-2.686,2.086,2.086,0,0,1-.192-.959,2.111,2.111,0,0,1,1.151-1.919,2.321,2.321,0,0,1,2.3,0,7.7,7.7,0,0,0,2.878.576,6.393,6.393,0,0,0,6.14-4.413,2.585,2.585,0,0,1,2.3-1.535,2.387,2.387,0,0,1,2.3,1.535,6.65,6.65,0,0,0,9.019,3.838,2.086,2.086,0,0,1,.959-.192,2.111,2.111,0,0,1,1.919,1.151,2.438,2.438,0,0,1,.192,2.111,5.231,5.231,0,0,0-.768,3.07,6.393,6.393,0,0,0,4.413,6.14,2.495,2.495,0,0,1,0,4.605,6.635,6.635,0,0,0-4.413,6.332,8.505,8.505,0,0,0,.576,2.878,1.438,1.438,0,0,1,.192.959c0,1.727-2.111,2.686-3.454,2.111A6.9,6.9,0,0,0,92.3,76.421a1.965,1.965,0,0,1-.959,1.151,2.071,2.071,0,0,1-2.111,0,2.58,2.58,0,0,1-1.151-1.343,11.394,11.394,0,0,0-.768-1.535c-.192-.192-.192-.384-.384-.384-.192-.384-.576-.576-.959-.959a2.649,2.649,0,0,0-.768-.576,4.2,4.2,0,0,1-.959-.576c-.192,0-.576-.192-.768-.192a2.434,2.434,0,0,0-1.151-.192h-.384a7.7,7.7,0,0,0-2.878.576c-.192,0-.384.192-.576.192H78.1a2.111,2.111,0,0,1-1.919-1.151,2.321,2.321,0,0,1,0-2.3,7.7,7.7,0,0,0,.576-2.878A6.879,6.879,0,0,0,72.15,59.918Zm5.757,33.389L76.18,91.2a1.942,1.942,0,0,0-1.343-.768l-2.686-.384,7.676-13.624c.384-.192.768-.192,1.151-.384a2.339,2.339,0,0,1,3.262,1.343,4.893,4.893,0,0,0,1.535,2.3v.192Zm9.786-8.635,1.727-2.878c.384,0,.576.192.959.192a2.434,2.434,0,0,0,1.151-.192l1.727,3.07H87.693Zm18.229,5.757a1.942,1.942,0,0,0-1.343.768l-1.727,2.111L95.177,79.491h0a4.574,4.574,0,0,0,1.151-2.111,2.339,2.339,0,0,1,3.262-1.343c.576.192.959.384,1.535.576h0l7.484,13.24Zm12.665-5.757H110.72l-4.989-8.635a6.475,6.475,0,0,0,3.454-5.757,6.129,6.129,0,0,0-.576-2.686,2.434,2.434,0,0,1-.192-1.151,2.387,2.387,0,0,1,1.535-2.3A6.573,6.573,0,0,0,114.366,58a6.393,6.393,0,0,0-4.413-6.14h0a2.314,2.314,0,0,1-1.535-2.3,2.086,2.086,0,0,1,.192-.959,6.24,6.24,0,0,0-.384-6.332,6.6,6.6,0,0,0-8.251-2.495,2.4,2.4,0,0,1-3.262-1.343,6.635,6.635,0,0,0-6.332-4.413,6.477,6.477,0,0,0-6.14,4.222,2.314,2.314,0,0,1-2.3,1.535,2.086,2.086,0,0,1-.959-.192,6.406,6.406,0,0,0-9.4,5.757,7.7,7.7,0,0,0,.576,2.878,1.438,1.438,0,0,1,.192.959,2.493,2.493,0,0,1-1.535,2.3,6.635,6.635,0,0,0-4.413,6.332,6.393,6.393,0,0,0,4.413,6.14,2.314,2.314,0,0,1,1.535,2.3,1.438,1.438,0,0,1-.192.959,6.24,6.24,0,0,0,.384,6.332,5.659,5.659,0,0,0,2.686,2.495l-4.989,8.827H4.222V12.522H118.587Z" transform="translate(0 -8.3)" fill="#330d00"/>
          </g>
          <g id="Grupo_159858" data-name="Grupo 159858" transform="translate(77.331 36.267)">
            <path id="Trazado_225774" data-name="Trazado 225774" d="M53.348,53.3A13.048,13.048,0,1,0,40.3,40.248,13.062,13.062,0,0,0,53.348,53.3Zm0-21.683a8.827,8.827,0,1,1-8.827,8.827A8.928,8.928,0,0,1,53.348,31.613Z" transform="translate(-40.3 -27.2)" fill="#330d00"/>
          </g>
          <g id="Grupo_159859" data-name="Grupo 159859" transform="translate(12.665 19.189)">
            <path id="Trazado_225775" data-name="Trazado 225775" d="M8.711,22.522H51.118a2.111,2.111,0,1,0,0-4.222H8.711a2.111,2.111,0,0,0,0,4.222Z" transform="translate(-6.6 -18.3)" fill="#330d00"/>
          </g>
          <g id="Grupo_159860" data-name="Grupo 159860" transform="translate(12.665 31.854)">
            <path id="Trazado_225776" data-name="Trazado 225776" d="M8.711,29.122H51.118a2.111,2.111,0,0,0,0-4.222H8.711a2.111,2.111,0,0,0,0,4.222Z" transform="translate(-6.6 -24.9)" fill="#330d00"/>
          </g>
          <g id="Grupo_159861" data-name="Grupo 159861" transform="translate(12.665 44.518)">
            <path id="Trazado_225777" data-name="Trazado 225777" d="M8.711,35.722H51.118a2.111,2.111,0,0,0,0-4.222H8.711a2.111,2.111,0,0,0,0,4.222Z" transform="translate(-6.6 -31.5)" fill="#330d00"/>
          </g>
          <g id="Grupo_159862" data-name="Grupo 159862" transform="translate(12.665 57.183)">
            <path id="Trazado_225778" data-name="Trazado 225778" d="M8.711,42.322H51.118a2.111,2.111,0,1,0,0-4.222H8.711a2.111,2.111,0,1,0,0,4.222Z" transform="translate(-6.6 -38.1)" fill="#330d00"/>
          </g>
        </g>
      </g>
    </g>
  </g>
</svg>
