<svg xmlns="http://www.w3.org/2000/svg" width="34.669" height="38.521" viewBox="0 0 34.669 38.521">
  <g id="Outline" transform="translate(-5 -2)">
    <g id="Outline-2" data-name="Outline" transform="translate(5 2)">
      <path id="Trazado_225877" data-name="Trazado 225877" d="M35.977,32.988a8.988,8.988,0,1,0-8.988,8.988A8.988,8.988,0,0,0,35.977,32.988Zm-16.693,0a7.7,7.7,0,1,1,7.7,7.7A7.7,7.7,0,0,1,19.284,32.988Z" transform="translate(-9.654 -9.875)" fill="#f57c22"/>
      <path id="Trazado_225878" data-name="Trazado 225878" d="M34.84,34.42a6.42,6.42,0,1,0-6.42,6.42,6.42,6.42,0,0,0,6.42-6.42Zm-11.556,0a5.136,5.136,0,1,1,5.136,5.136A5.136,5.136,0,0,1,23.284,34.42Z" transform="translate(-11.086 -11.307)" fill="#f57c22"/>
      <path id="Trazado_225879" data-name="Trazado 225879" d="M32.086,36.83V34.422a.642.642,0,0,0-1.284,0v2.2l-1.1,1.1a.642.642,0,1,0,.905.912l1.284-1.284a.738.738,0,0,0,.193-.514Z" transform="translate(-13.775 -13.376)" fill="#f57c22"/>
      <path id="Trazado_225880" data-name="Trazado 225880" d="M36.459,4.568H34.533V4.247a2.247,2.247,0,1,0-4.494,0v.321H24.582V4.247a2.247,2.247,0,1,0-4.494,0v.321H14.63V4.247a2.247,2.247,0,0,0-4.494,0v.321H8.21A3.21,3.21,0,0,0,5,7.778v19.9a.642.642,0,1,0,1.284,0V13.556h32.1V28.965a.642.642,0,0,1-.642.642h-3.21a3.21,3.21,0,0,0-3.21,3.21v3.21a.642.642,0,0,1-.642.642L8.21,36.631A1.926,1.926,0,0,1,6.284,34.7V32.817a.642.642,0,1,0-1.284,0v4.494a3.21,3.21,0,0,0,3.21,3.21H36.459a3.21,3.21,0,0,0,3.21-3.21V7.778A3.21,3.21,0,0,0,36.459,4.568Zm-5.136-.321a.963.963,0,1,1,1.926,0V6.815a.963.963,0,1,1-1.926,0Zm-9.951,0a.963.963,0,0,1,1.926,0V6.815a.963.963,0,0,1-1.926,0Zm-9.951,0a.963.963,0,1,1,1.926,0V6.815a.963.963,0,1,1-1.926,0ZM6.284,12.272V7.778A1.926,1.926,0,0,1,8.21,5.852h1.926v.963a2.247,2.247,0,0,0,4.494,0V5.852h5.457v.963a2.247,2.247,0,1,0,4.494,0V5.852h5.457v.963a2.247,2.247,0,0,0,4.494,0V5.852h1.926a1.926,1.926,0,0,1,1.926,1.926v4.494ZM32.607,32.817a1.926,1.926,0,0,1,1.926-1.926H37.48l-4.873,4.873Zm3.852,6.42H8.21a1.926,1.926,0,0,1-1.926-1.984A3.146,3.146,0,0,0,8.21,37.9l22.683.058a3.21,3.21,0,0,0,2.279-.944L38.385,31.8v5.509A1.926,1.926,0,0,1,36.459,39.237Z" transform="translate(-5 -2)" fill="#f57c22"/>
      <circle id="Elipse_6508" data-name="Elipse 6508" cx="0.5" cy="0.5" r="0.5" transform="translate(0 28)" fill="#f57c22"/>
    </g>
  </g>
</svg>
