<svg xmlns="http://www.w3.org/2000/svg" width="46" height="46" viewBox="0 0 46 46">
  <g id="Grupo_159928" data-name="Grupo 159928" transform="translate(0.005)">
    <rect id="Rectángulo_44897" data-name="Rectángulo 44897" width="46" height="46" transform="translate(-0.005)" fill="none"/>
    <path id="Trazado_225881" data-name="Trazado 225881" d="M187.085,51.983a.9.9,0,0,1-.9-.9V44.8H179.9a.9.9,0,1,1,0-1.8h7.187a.9.9,0,0,1,.9.9v7.187A.9.9,0,0,1,187.085,51.983Z" transform="translate(-146.839 -35.274)" fill="#f57c22"/>
    <path id="Trazado_225882" data-name="Trazado 225882" d="M35.085,171.983H27.9a.9.9,0,0,1-.9-.9V163.9a.9.9,0,1,1,1.8,0v6.288h6.288a.9.9,0,1,1,0,1.8Z" transform="translate(-22.149 -133.714)" fill="#f57c22"/>
    <path id="Trazado_225883" data-name="Trazado 225883" d="M187.085,171.983H179.9a.9.9,0,1,1,0-1.8h6.288V163.9a.9.9,0,0,1,1.8,0v7.187A.9.9,0,0,1,187.085,171.983Z" transform="translate(-146.839 -133.714)" fill="#f57c22"/>
    <path id="Trazado_225884" data-name="Trazado 225884" d="M27.9,51.983a.9.9,0,0,1-.9-.9V43.9a.9.9,0,0,1,.9-.9h7.187a.9.9,0,1,1,0,1.8H28.8v6.288A.9.9,0,0,1,27.9,51.983Z" transform="translate(-22.149 -35.274)" fill="#f57c22"/>
    <path id="Línea_301" data-name="Línea 301" d="M-4.1,11.17a.9.9,0,0,1-.9-.9V-4.1A.9.9,0,0,1-4.1-5a.9.9,0,0,1,.9.9V10.272A.9.9,0,0,1-4.1,11.17Z" transform="translate(18.475 19.912)" fill="#f57c22"/>
    <path id="Línea_302" data-name="Línea 302" d="M-4.1,11.17a.9.9,0,0,1-.9-.9V-4.1A.9.9,0,0,1-4.1-5a.9.9,0,0,1,.9.9V10.272A.9.9,0,0,1-4.1,11.17Z" transform="translate(35.723 19.912)" fill="#f57c22"/>
    <path id="Línea_303" data-name="Línea 303" d="M-4.1,11.17a.9.9,0,0,1-.9-.9V-4.1A.9.9,0,0,1-4.1-5a.9.9,0,0,1,.9.9V10.272A.9.9,0,0,1-4.1,11.17Z" transform="translate(29.974 19.912)" fill="#f57c22"/>
    <path id="Línea_304" data-name="Línea 304" d="M-4.1,11.17a.9.9,0,0,1-.9-.9V-4.1A.9.9,0,0,1-4.1-5a.9.9,0,0,1,.9.9V10.272A.9.9,0,0,1-4.1,11.17Z" transform="translate(24.225 19.912)" fill="#f57c22"/>
  </g>
</svg>
