<svg xmlns="http://www.w3.org/2000/svg" width="41.196" height="42.005" viewBox="0 0 41.196 42.005">
  <g id="Layer_2" transform="translate(-4 -3.5)">
    <g id="Grupo_159908" data-name="Grupo 159908" transform="translate(4 3.5)">
      <path id="Trazado_225881" data-name="Trazado 225881" d="M28.22,16.1a10.5,10.5,0,0,0-4.635,19.936v8.9h1.177l1.324,3.9h4.34l.147-.515,1.1-3.384h1.177v-8.9A10.5,10.5,0,0,0,28.22,16.1ZM25.056,43.392V40.965h6.327v2.428Zm4.267,3.9H27.116l-.809-2.428h3.825Zm2.5-12.432-.441.221v4.487H28.955V32.431a2.1,2.1,0,0,0,1.324-1.913,2.06,2.06,0,1,0-4.12,0,1.991,1.991,0,0,0,1.324,1.913v7.136H25.056V35.08l-.441-.221a8.889,8.889,0,0,1-5.37-8.239,9.2,9.2,0,0,1,2.648-6.4,9.064,9.064,0,0,1,6.4-2.648,9.2,9.2,0,0,1,6.4,2.648,9.064,9.064,0,0,1,2.648,6.4A9.262,9.262,0,0,1,31.824,34.859Zm-3.6-3.825a.589.589,0,1,1,.589-.589A.58.58,0,0,1,28.22,31.034Z" transform="translate(-7.622 -6.831)" fill="#f57c22"/>
      <rect id="Rectángulo_44898" data-name="Rectángulo 44898" width="1.471" height="5.15" transform="translate(19.862)" fill="#f57c22"/>
      <rect id="Rectángulo_44899" data-name="Rectángulo 44899" width="5.15" height="1.471" transform="translate(36.047 19.862)" fill="#f57c22"/>
      <rect id="Rectángulo_44900" data-name="Rectángulo 44900" width="5.15" height="1.471" transform="translate(0 19.862)" fill="#f57c22"/>
      <rect id="Rectángulo_44901" data-name="Rectángulo 44901" width="5.15" height="1.471" transform="translate(31.002 9.18) rotate(-45)" fill="#f57c22"/>
      <rect id="Rectángulo_44902" data-name="Rectángulo 44902" width="1.471" height="5.15" transform="translate(5.534 6.562) rotate(-45)" fill="#f57c22"/>
    </g>
  </g>
</svg>
