<svg xmlns="http://www.w3.org/2000/svg" width="45.005" height="42.005" viewBox="0 0 45.005 42.005">
  <g id="listing_search_magnifier_magnifying_glass_loupe" transform="translate(-1 -2)">
    <g id="Grupo_159914" data-name="Grupo 159914" transform="translate(1 2)">
      <g id="tax_x2C__duty_x2C__charge_x2C__percent_1_">
        <g id="white_paper_1_">
          <g id="digital_key_1_">
            <g id="Grupo_159913" data-name="Grupo 159913">
              <g id="Grupo_159910" data-name="Grupo 159910" transform="translate(39.005)">
                <g id="Grupo_159909" data-name="Grupo 159909">
                  <path id="Trazado_225882" data-name="Trazado 225882" d="M32.251,8a.75.75,0,0,0,.75-.75V5.75A3.754,3.754,0,0,0,29.25,2h-1.5a.75.75,0,1,0,0,1.5h1.5A2.253,2.253,0,0,1,31.5,5.75v1.5A.75.75,0,0,0,32.251,8Z" transform="translate(-27 -2)" fill="#f57c22"/>
                </g>
              </g>
              <g id="Grupo_159912" data-name="Grupo 159912" transform="translate(0 36.004)">
                <g id="Grupo_159911" data-name="Grupo 159911">
                  <path id="Trazado_225883" data-name="Trazado 225883" d="M1,28.25v-1.5A.75.75,0,0,1,1.75,26h31.5a.75.75,0,0,1,.75.75v1.5a2.253,2.253,0,0,0,2.25,2.25.75.75,0,0,1,0,1.5H4.75A3.754,3.754,0,0,1,1,28.25Zm31.5,0V27.5H2.5v.75A2.253,2.253,0,0,0,4.75,30.5h28.5A3.734,3.734,0,0,1,32.5,28.25Z" transform="translate(-1 -26)" fill="#f57c22"/>
                </g>
              </g>
            </g>
          </g>
        </g>
      </g>
    </g>
    <g id="Grupo_159926" data-name="Grupo 159926" transform="translate(13.001 6.501)">
      <g id="Grupo_159921" data-name="Grupo 159921">
        <g id="Grupo_159920" data-name="Grupo 159920">
          <g id="Grupo_159916" data-name="Grupo 159916" transform="translate(19.299 19.297)">
            <g id="Grupo_159915" data-name="Grupo 159915">
              <path id="Trazado_225884" data-name="Trazado 225884" d="M22.084,18.084a.752.752,0,0,0,0,1.062l2.121,2.121a.75.75,0,0,0,1.061-1.061l-2.121-2.123A.748.748,0,0,0,22.084,18.084Z" transform="translate(-21.865 -17.863)" fill="#f57c22"/>
            </g>
          </g>
          <g id="Grupo_159918" data-name="Grupo 159918">
            <g id="Grupo_159917" data-name="Grupo 159917">
              <path id="Trazado_225885" data-name="Trazado 225885" d="M21,29A12,12,0,1,1,27.91,7.187a.749.749,0,1,1-.864,1.224,10.482,10.482,0,1,0,3.974,5.432.75.75,0,0,1,1.431-.452A12.011,12.011,0,0,1,21,29Z" transform="translate(-9 -5)" fill="#f57c22"/>
            </g>
          </g>
          <g id="Grupo_159919" data-name="Grupo 159919" transform="translate(21.002 21.002)">
            <path id="Trazado_225886" data-name="Trazado 225886" d="M26,20.5a1.5,1.5,0,0,1,1.061.44l6,6a1.5,1.5,0,1,1-2.121,2.121l-6-6A1.5,1.5,0,0,1,26,20.5ZM26,19a3,3,0,0,0-2.121,5.122l6,6a3,3,0,1,0,4.242-4.242l-6-6A2.98,2.98,0,0,0,26,19Z" transform="translate(-23 -19)" fill="#f57c22"/>
          </g>
        </g>
      </g>
      <g id="Grupo_159925" data-name="Grupo 159925" transform="translate(6.75 3.001)">
        <g id="Grupo_159924" data-name="Grupo 159924">
          <g id="Grupo_159923" data-name="Grupo 159923">
            <g id="Grupo_159922" data-name="Grupo 159922">
              <path id="Trazado_225887" data-name="Trazado 225887" d="M18,20.5h-.018a.754.754,0,0,1-.56-.27l-3.75-4.5a.751.751,0,1,1,1.154-.962l3.2,3.842L28.7,7.243a.75.75,0,1,1,1.1,1.014l-11.25,12A.748.748,0,0,1,18,20.5Z" transform="translate(-13.5 -7)" fill="#f57c22"/>
            </g>
          </g>
        </g>
      </g>
    </g>
    <g id="Grupo_159927" data-name="Grupo 159927" transform="translate(8.501 2)">
      <path id="Trazado_225888" data-name="Trazado 225888" d="M39.754,3.5a.75.75,0,1,0,0-1.5h-30A3.754,3.754,0,0,0,6,5.75v30a.75.75,0,1,0,1.5,0v-30A2.253,2.253,0,0,1,9.75,3.5h27A3.737,3.737,0,0,0,36,5.75v19.5a.75.75,0,0,0,.75.75h0a.75.75,0,0,0,.75-.75V5.75A2.253,2.253,0,0,1,39.754,3.5Z" transform="translate(-6 -2)" fill="#f57c22"/>
      <path id="Trazado_225889" data-name="Trazado 225889" d="M25.375,30H22.75v1.5h2.625a3.754,3.754,0,0,0,3.75-3.75h0a.75.75,0,0,0-.75-.75h0a.75.75,0,0,0-.75.75h0A2.253,2.253,0,0,1,25.375,30Z" transform="translate(2.378 10.504)" fill="#f57c22"/>
    </g>
  </g>
</svg>
