<svg xmlns="http://www.w3.org/2000/svg" width="508" height="507" viewBox="0 0 508 507">
  <g id="Grupo_160846" data-name="Grupo 160846" transform="translate(-545.667 -3396)">
    <path id="Trazado_231251" data-name="Trazado 231251" d="M225,233V33c110.457,0,200,89.542,200,200Z" transform="translate(1045.521 3436.146) rotate(90)" fill="#fed935"/>
    <path id="Trazado_231252" data-name="Trazado 231252" d="M0,0V200c110.457,0,200-89.542,200-200Z" transform="translate(808.388 3640.751) rotate(-90)" fill="#f57c22"/>
    <path id="Trazado_231253" data-name="Trazado 231253" d="M0,0V200c110.457,0,200-89.542,200-200Z" transform="translate(791.181 3657.486) rotate(90)" fill="#fda829"/>
    <path id="Trazado_231254" data-name="Trazado 231254" d="M0,200V0C110.457,0,200,89.542,200,200Z" transform="translate(587.167 3636.5) rotate(-90)" fill="#fed935"/>
    <path id="Trazado_231255" data-name="Trazado 231255" d="M118,0A118,118,0,1,1,0,118,118,118,0,0,1,118,0Z" transform="translate(681.667 3531)" fill="#fff"/>
    <path id="Trazado_231256" data-name="Trazado 231256" d="M105,0A105,105,0,1,1,0,105,105,105,0,0,1,105,0Z" transform="translate(694.667 3544)" fill="#fff"/>
    <g id="Trazado_231257" data-name="Trazado 231257" transform="translate(545.667 3396)" fill="#fff">
      <path d="M 89 175.5 C 83.12944793701172 175.5 77.26332855224609 174.9087219238281 71.5645751953125 173.7425994873047 C 66.01194763183594 172.6063537597656 60.55020141601562 170.9109191894531 55.33105087280273 168.7034301757812 C 50.20612335205078 166.5357513427734 45.26292419433594 163.8526458740234 40.63877487182617 160.7286224365234 C 36.05789947509766 157.6338806152344 31.75017547607422 154.0796508789062 27.83525085449219 150.1647186279297 C 23.92034912109375 146.2498016357422 20.36612510681152 141.9420776367188 17.2713508605957 137.3612213134766 C 14.1473503112793 132.7370758056641 11.46424961090088 127.7938766479492 9.296574592590332 122.6689224243164 C 7.089075088500977 117.4497985839844 5.393650054931641 111.9880523681641 4.257400035858154 106.4354019165039 C 3.091274976730347 100.7366714477539 2.5 94.87055206298828 2.5 89 C 2.5 83.12944793701172 3.091274976730347 77.26332855224609 4.257400035858154 71.5645751953125 C 5.393650054931641 66.01194763183594 7.089075088500977 60.55020141601562 9.296574592590332 55.33105087280273 C 11.46424961090088 50.20612335205078 14.1473503112793 45.26292419433594 17.2713508605957 40.63877487182617 C 20.36612510681152 36.05789947509766 23.92032432556152 31.75017547607422 27.83525085449219 27.83525085449219 C 31.75017547607422 23.92032432556152 36.05789947509766 20.36612510681152 40.63877487182617 17.2713508605957 C 45.26292419433594 14.1473503112793 50.20612335205078 11.46424961090088 55.33105087280273 9.296574592590332 C 60.55020141601562 7.089075088500977 66.01194763183594 5.393650054931641 71.5645751953125 4.257400035858154 C 77.26332855224609 3.091274976730347 83.12944793701172 2.5 89 2.5 C 94.87055206298828 2.5 100.7366714477539 3.091274976730347 106.4354019165039 4.257400035858154 C 111.9880523681641 5.393650054931641 117.4497985839844 7.089075088500977 122.6689224243164 9.296574592590332 C 127.7938766479492 11.46424961090088 132.7370758056641 14.1473503112793 137.3612213134766 17.2713508605957 C 141.9420776367188 20.36612510681152 146.2498016357422 23.92034912109375 150.1647186279297 27.83525085449219 C 154.0796508789062 31.75017547607422 157.6338806152344 36.05789947509766 160.7286224365234 40.63877487182617 C 163.8526458740234 45.26292419433594 166.5357513427734 50.20612335205078 168.7034301757812 55.33105087280273 C 170.9109191894531 60.55020141601562 172.6063537597656 66.01194763183594 173.7425994873047 71.5645751953125 C 174.9087219238281 77.26332855224609 175.5 83.12944793701172 175.5 89 C 175.5 94.87055206298828 174.9087219238281 100.7366714477539 173.7425994873047 106.4354019165039 C 172.6063537597656 111.9880523681641 170.9109191894531 117.4497985839844 168.7034301757812 122.6689224243164 C 166.5357513427734 127.7938766479492 163.8526458740234 132.7370758056641 160.7286224365234 137.3612213134766 C 157.6338806152344 141.9420776367188 154.0796508789062 146.2498016357422 150.1647186279297 150.1647186279297 C 146.2498016357422 154.0796508789062 141.9420776367188 157.6338806152344 137.3612213134766 160.7286224365234 C 132.7370758056641 163.8526458740234 127.7938766479492 166.5357513427734 122.6689224243164 168.7034301757812 C 117.4497985839844 170.9109191894531 111.9880523681641 172.6063537597656 106.4354019165039 173.7425994873047 C 100.7366714477539 174.9087219238281 94.87055206298828 175.5 89 175.5 Z" stroke="none"/>
      <path d="M 89 5 C 83.29744720458984 5 77.59994506835938 5.574203491210938 72.06576538085938 6.7066650390625 C 66.67481231689453 7.809814453125 61.37210845947266 9.45587158203125 56.30494689941406 11.59907531738281 C 51.32868194580078 13.70387268066406 46.5286865234375 16.30926513671875 42.03828430175781 19.34292602539062 C 37.58926391601562 22.34860229492188 33.40544128417969 25.80059814453125 29.60302734375 29.60302734375 C 25.80059814453125 33.40544128417969 22.34860229492188 37.58926391601562 19.34292602539062 42.03828430175781 C 16.30926513671875 46.5286865234375 13.70387268066406 51.32868194580078 11.59907531738281 56.30494689941406 C 9.45587158203125 61.37210845947266 7.809814453125 66.67481231689453 6.7066650390625 72.06576538085938 C 5.574203491210938 77.59994506835938 5 83.29744720458984 5 89 C 5 94.70255279541016 5.574203491210938 100.4000549316406 6.7066650390625 105.9342346191406 C 7.809814453125 111.3251876831055 9.45587158203125 116.6278991699219 11.59907531738281 121.6950531005859 C 13.70387268066406 126.6713104248047 16.30926513671875 131.4713134765625 19.34292602539062 135.9617156982422 C 22.34860229492188 140.4107360839844 25.80059814453125 144.5945434570312 29.60302734375 148.39697265625 C 33.40544128417969 152.1994018554688 37.58926391601562 155.6513977050781 42.03828430175781 158.6570739746094 C 46.5286865234375 161.6907348632812 51.32868194580078 164.2961273193359 56.30494689941406 166.4009246826172 C 61.37210845947266 168.5441284179688 66.67481231689453 170.190185546875 72.06576538085938 171.2933349609375 C 77.59994506835938 172.4257965087891 83.29744720458984 173 89 173 C 94.70255279541016 173 100.4000549316406 172.4257965087891 105.9342346191406 171.2933349609375 C 111.3251876831055 170.190185546875 116.6278991699219 168.5441284179688 121.6950531005859 166.4009246826172 C 126.6713104248047 164.2961273193359 131.4713134765625 161.6907348632812 135.9617156982422 158.6570739746094 C 140.4107360839844 155.6513977050781 144.5945434570312 152.1994018554688 148.39697265625 148.39697265625 C 152.1994018554688 144.5945434570312 155.6513977050781 140.4107360839844 158.6570739746094 135.9617156982422 C 161.6907348632812 131.4713134765625 164.2961273193359 126.6713104248047 166.4009246826172 121.6950531005859 C 168.5441284179688 116.6278991699219 170.190185546875 111.3251876831055 171.2933349609375 105.9342346191406 C 172.4257965087891 100.4000549316406 173 94.70255279541016 173 89 C 173 83.29744720458984 172.4257965087891 77.59994506835938 171.2933349609375 72.06576538085938 C 170.190185546875 66.67481231689453 168.5441284179688 61.37210845947266 166.4009246826172 56.30494689941406 C 164.2961273193359 51.32868194580078 161.6907348632812 46.5286865234375 158.6570739746094 42.03828430175781 C 155.6513977050781 37.58926391601562 152.1994018554688 33.40544128417969 148.39697265625 29.60302734375 C 144.5945434570312 25.80059814453125 140.4107360839844 22.34860229492188 135.9617156982422 19.34292602539062 C 131.4713134765625 16.30926513671875 126.6713104248047 13.70387268066406 121.6950531005859 11.59907531738281 C 116.6278991699219 9.45587158203125 111.3251876831055 7.809814453125 105.9342346191406 6.7066650390625 C 100.4000549316406 5.574203491210938 94.70255279541016 5 89 5 M 89 0 C 138.1533508300781 0 178 39.84666442871094 178 89 C 178 138.1533508300781 138.1533508300781 178 89 178 C 39.84666442871094 178 0 138.1533508300781 0 89 C 0 39.84666442871094 39.84666442871094 0 89 0 Z" stroke="none" fill="#fed935"/>
    </g>
    <g id="Trazado_231258" data-name="Trazado 231258" transform="translate(875.667 3396)" fill="#fff">
      <path d="M 89 175.5 C 83.12944793701172 175.5 77.26332855224609 174.9087219238281 71.5645751953125 173.7425994873047 C 66.01194763183594 172.6063537597656 60.55020141601562 170.9109191894531 55.33105087280273 168.7034301757812 C 50.20612335205078 166.5357513427734 45.26292419433594 163.8526458740234 40.63877487182617 160.7286224365234 C 36.05789947509766 157.6338806152344 31.75017547607422 154.0796508789062 27.83525085449219 150.1647186279297 C 23.92034912109375 146.2498016357422 20.36612510681152 141.9420776367188 17.2713508605957 137.3612213134766 C 14.1473503112793 132.7370758056641 11.46424961090088 127.7938766479492 9.296574592590332 122.6689224243164 C 7.089075088500977 117.4497985839844 5.393650054931641 111.9880523681641 4.257400035858154 106.4354019165039 C 3.091274976730347 100.7366714477539 2.5 94.87055206298828 2.5 89 C 2.5 83.12944793701172 3.091274976730347 77.26332855224609 4.257400035858154 71.5645751953125 C 5.393650054931641 66.01194763183594 7.089075088500977 60.55020141601562 9.296574592590332 55.33105087280273 C 11.46424961090088 50.20612335205078 14.1473503112793 45.26292419433594 17.2713508605957 40.63877487182617 C 20.36612510681152 36.05789947509766 23.92032432556152 31.75017547607422 27.83525085449219 27.83525085449219 C 31.75017547607422 23.92032432556152 36.05789947509766 20.36612510681152 40.63877487182617 17.2713508605957 C 45.26292419433594 14.1473503112793 50.20612335205078 11.46424961090088 55.33105087280273 9.296574592590332 C 60.55020141601562 7.089075088500977 66.01194763183594 5.393650054931641 71.5645751953125 4.257400035858154 C 77.26332855224609 3.091274976730347 83.12944793701172 2.5 89 2.5 C 94.87055206298828 2.5 100.7366714477539 3.091274976730347 106.4354019165039 4.257400035858154 C 111.9880523681641 5.393650054931641 117.4497985839844 7.089075088500977 122.6689224243164 9.296574592590332 C 127.7938766479492 11.46424961090088 132.7370758056641 14.1473503112793 137.3612213134766 17.2713508605957 C 141.9420776367188 20.36612510681152 146.2498016357422 23.92034912109375 150.1647186279297 27.83525085449219 C 154.0796508789062 31.75017547607422 157.6338806152344 36.05789947509766 160.7286224365234 40.63877487182617 C 163.8526458740234 45.26292419433594 166.5357513427734 50.20612335205078 168.7034301757812 55.33105087280273 C 170.9109191894531 60.55020141601562 172.6063537597656 66.01194763183594 173.7425994873047 71.5645751953125 C 174.9087219238281 77.26332855224609 175.5 83.12944793701172 175.5 89 C 175.5 94.87055206298828 174.9087219238281 100.7366714477539 173.7425994873047 106.4354019165039 C 172.6063537597656 111.9880523681641 170.9109191894531 117.4497985839844 168.7034301757812 122.6689224243164 C 166.5357513427734 127.7938766479492 163.8526458740234 132.7370758056641 160.7286224365234 137.3612213134766 C 157.6338806152344 141.9420776367188 154.0796508789062 146.2498016357422 150.1647186279297 150.1647186279297 C 146.2498016357422 154.0796508789062 141.9420776367188 157.6338806152344 137.3612213134766 160.7286224365234 C 132.7370758056641 163.8526458740234 127.7938766479492 166.5357513427734 122.6689224243164 168.7034301757812 C 117.4497985839844 170.9109191894531 111.9880523681641 172.6063537597656 106.4354019165039 173.7425994873047 C 100.7366714477539 174.9087219238281 94.87055206298828 175.5 89 175.5 Z" stroke="none"/>
      <path d="M 89 5 C 83.29744720458984 5 77.59994506835938 5.574203491210938 72.06576538085938 6.7066650390625 C 66.67481231689453 7.809814453125 61.37210845947266 9.45587158203125 56.30494689941406 11.59907531738281 C 51.32868194580078 13.70387268066406 46.5286865234375 16.30926513671875 42.03828430175781 19.34292602539062 C 37.58926391601562 22.34860229492188 33.40544128417969 25.80059814453125 29.60302734375 29.60302734375 C 25.80059814453125 33.40544128417969 22.34860229492188 37.58926391601562 19.34292602539062 42.03828430175781 C 16.30926513671875 46.5286865234375 13.70387268066406 51.32868194580078 11.59907531738281 56.30494689941406 C 9.45587158203125 61.37210845947266 7.809814453125 66.67481231689453 6.7066650390625 72.06576538085938 C 5.574203491210938 77.59994506835938 5 83.29744720458984 5 89 C 5 94.70255279541016 5.574203491210938 100.4000549316406 6.7066650390625 105.9342346191406 C 7.809814453125 111.3251876831055 9.45587158203125 116.6278991699219 11.59907531738281 121.6950531005859 C 13.70387268066406 126.6713104248047 16.30926513671875 131.4713134765625 19.34292602539062 135.9617156982422 C 22.34860229492188 140.4107360839844 25.80059814453125 144.5945434570312 29.60302734375 148.39697265625 C 33.40544128417969 152.1994018554688 37.58926391601562 155.6513977050781 42.03828430175781 158.6570739746094 C 46.5286865234375 161.6907348632812 51.32868194580078 164.2961273193359 56.30494689941406 166.4009246826172 C 61.37210845947266 168.5441284179688 66.67481231689453 170.190185546875 72.06576538085938 171.2933349609375 C 77.59994506835938 172.4257965087891 83.29744720458984 173 89 173 C 94.70255279541016 173 100.4000549316406 172.4257965087891 105.9342346191406 171.2933349609375 C 111.3251876831055 170.190185546875 116.6278991699219 168.5441284179688 121.6950531005859 166.4009246826172 C 126.6713104248047 164.2961273193359 131.4713134765625 161.6907348632812 135.9617156982422 158.6570739746094 C 140.4107360839844 155.6513977050781 144.5945434570312 152.1994018554688 148.39697265625 148.39697265625 C 152.1994018554688 144.5945434570312 155.6513977050781 140.4107360839844 158.6570739746094 135.9617156982422 C 161.6907348632812 131.4713134765625 164.2961273193359 126.6713104248047 166.4009246826172 121.6950531005859 C 168.5441284179688 116.6278991699219 170.190185546875 111.3251876831055 171.2933349609375 105.9342346191406 C 172.4257965087891 100.4000549316406 173 94.70255279541016 173 89 C 173 83.29744720458984 172.4257965087891 77.59994506835938 171.2933349609375 72.06576538085938 C 170.190185546875 66.67481231689453 168.5441284179688 61.37210845947266 166.4009246826172 56.30494689941406 C 164.2961273193359 51.32868194580078 161.6907348632812 46.5286865234375 158.6570739746094 42.03828430175781 C 155.6513977050781 37.58926391601562 152.1994018554688 33.40544128417969 148.39697265625 29.60302734375 C 144.5945434570312 25.80059814453125 140.4107360839844 22.34860229492188 135.9617156982422 19.34292602539062 C 131.4713134765625 16.30926513671875 126.6713104248047 13.70387268066406 121.6950531005859 11.59907531738281 C 116.6278991699219 9.45587158203125 111.3251876831055 7.809814453125 105.9342346191406 6.7066650390625 C 100.4000549316406 5.574203491210938 94.70255279541016 5 89 5 M 89 0 C 138.1533508300781 0 178 39.84666442871094 178 89 C 178 138.1533508300781 138.1533508300781 178 89 178 C 39.84666442871094 178 0 138.1533508300781 0 89 C 0 39.84666442871094 39.84666442871094 0 89 0 Z" stroke="none" fill="#f57c22"/>
    </g>
    <g id="Trazado_231259" data-name="Trazado 231259" transform="translate(545.667 3725)" fill="#fff">
      <path d="M 89 175.5 C 83.12944793701172 175.5 77.26332855224609 174.9087219238281 71.5645751953125 173.7425994873047 C 66.01194763183594 172.6063537597656 60.55020141601562 170.9109191894531 55.33105087280273 168.7034301757812 C 50.20612335205078 166.5357513427734 45.26292419433594 163.8526458740234 40.63877487182617 160.7286224365234 C 36.05789947509766 157.6338806152344 31.75017547607422 154.0796508789062 27.83525085449219 150.1647186279297 C 23.92034912109375 146.2498016357422 20.36612510681152 141.9420776367188 17.2713508605957 137.3612213134766 C 14.1473503112793 132.7370758056641 11.46424961090088 127.7938766479492 9.296574592590332 122.6689224243164 C 7.089075088500977 117.4497985839844 5.393650054931641 111.9880523681641 4.257400035858154 106.4354019165039 C 3.091274976730347 100.7366714477539 2.5 94.87055206298828 2.5 89 C 2.5 83.12944793701172 3.091274976730347 77.26332855224609 4.257400035858154 71.5645751953125 C 5.393650054931641 66.01194763183594 7.089075088500977 60.55020141601562 9.296574592590332 55.33105087280273 C 11.46424961090088 50.20612335205078 14.1473503112793 45.26292419433594 17.2713508605957 40.63877487182617 C 20.36612510681152 36.05789947509766 23.92032432556152 31.75017547607422 27.83525085449219 27.83525085449219 C 31.75017547607422 23.92032432556152 36.05789947509766 20.36612510681152 40.63877487182617 17.2713508605957 C 45.26292419433594 14.1473503112793 50.20612335205078 11.46424961090088 55.33105087280273 9.296574592590332 C 60.55020141601562 7.089075088500977 66.01194763183594 5.393650054931641 71.5645751953125 4.257400035858154 C 77.26332855224609 3.091274976730347 83.12944793701172 2.5 89 2.5 C 94.87055206298828 2.5 100.7366714477539 3.091274976730347 106.4354019165039 4.257400035858154 C 111.9880523681641 5.393650054931641 117.4497985839844 7.089075088500977 122.6689224243164 9.296574592590332 C 127.7938766479492 11.46424961090088 132.7370758056641 14.1473503112793 137.3612213134766 17.2713508605957 C 141.9420776367188 20.36612510681152 146.2498016357422 23.92034912109375 150.1647186279297 27.83525085449219 C 154.0796508789062 31.75017547607422 157.6338806152344 36.05789947509766 160.7286224365234 40.63877487182617 C 163.8526458740234 45.26292419433594 166.5357513427734 50.20612335205078 168.7034301757812 55.33105087280273 C 170.9109191894531 60.55020141601562 172.6063537597656 66.01194763183594 173.7425994873047 71.5645751953125 C 174.9087219238281 77.26332855224609 175.5 83.12944793701172 175.5 89 C 175.5 94.87055206298828 174.9087219238281 100.7366714477539 173.7425994873047 106.4354019165039 C 172.6063537597656 111.9880523681641 170.9109191894531 117.4497985839844 168.7034301757812 122.6689224243164 C 166.5357513427734 127.7938766479492 163.8526458740234 132.7370758056641 160.7286224365234 137.3612213134766 C 157.6338806152344 141.9420776367188 154.0796508789062 146.2498016357422 150.1647186279297 150.1647186279297 C 146.2498016357422 154.0796508789062 141.9420776367188 157.6338806152344 137.3612213134766 160.7286224365234 C 132.7370758056641 163.8526458740234 127.7938766479492 166.5357513427734 122.6689224243164 168.7034301757812 C 117.4497985839844 170.9109191894531 111.9880523681641 172.6063537597656 106.4354019165039 173.7425994873047 C 100.7366714477539 174.9087219238281 94.87055206298828 175.5 89 175.5 Z" stroke="none"/>
      <path d="M 89 5 C 83.29744720458984 5 77.59994506835938 5.574203491210938 72.06576538085938 6.7066650390625 C 66.67481231689453 7.809814453125 61.37210845947266 9.45587158203125 56.30494689941406 11.59907531738281 C 51.32868194580078 13.70387268066406 46.5286865234375 16.30926513671875 42.03828430175781 19.34292602539062 C 37.58926391601562 22.34860229492188 33.40544128417969 25.80059814453125 29.60302734375 29.60302734375 C 25.80059814453125 33.40544128417969 22.34860229492188 37.58926391601562 19.34292602539062 42.03828430175781 C 16.30926513671875 46.5286865234375 13.70387268066406 51.32868194580078 11.59907531738281 56.30494689941406 C 9.45587158203125 61.37210845947266 7.809814453125 66.67481231689453 6.7066650390625 72.06576538085938 C 5.574203491210938 77.59994506835938 5 83.29744720458984 5 89 C 5 94.70255279541016 5.574203491210938 100.4000549316406 6.7066650390625 105.9342346191406 C 7.809814453125 111.3251876831055 9.45587158203125 116.6278991699219 11.59907531738281 121.6950531005859 C 13.70387268066406 126.6713104248047 16.30926513671875 131.4713134765625 19.34292602539062 135.9617156982422 C 22.34860229492188 140.4107360839844 25.80059814453125 144.5945434570312 29.60302734375 148.39697265625 C 33.40544128417969 152.1994018554688 37.58926391601562 155.6513977050781 42.03828430175781 158.6570739746094 C 46.5286865234375 161.6907348632812 51.32868194580078 164.2961273193359 56.30494689941406 166.4009246826172 C 61.37210845947266 168.5441284179688 66.67481231689453 170.190185546875 72.06576538085938 171.2933349609375 C 77.59994506835938 172.4257965087891 83.29744720458984 173 89 173 C 94.70255279541016 173 100.4000549316406 172.4257965087891 105.9342346191406 171.2933349609375 C 111.3251876831055 170.190185546875 116.6278991699219 168.5441284179688 121.6950531005859 166.4009246826172 C 126.6713104248047 164.2961273193359 131.4713134765625 161.6907348632812 135.9617156982422 158.6570739746094 C 140.4107360839844 155.6513977050781 144.5945434570312 152.1994018554688 148.39697265625 148.39697265625 C 152.1994018554688 144.5945434570312 155.6513977050781 140.4107360839844 158.6570739746094 135.9617156982422 C 161.6907348632812 131.4713134765625 164.2961273193359 126.6713104248047 166.4009246826172 121.6950531005859 C 168.5441284179688 116.6278991699219 170.190185546875 111.3251876831055 171.2933349609375 105.9342346191406 C 172.4257965087891 100.4000549316406 173 94.70255279541016 173 89 C 173 83.29744720458984 172.4257965087891 77.59994506835938 171.2933349609375 72.06576538085938 C 170.190185546875 66.67481231689453 168.5441284179688 61.37210845947266 166.4009246826172 56.30494689941406 C 164.2961273193359 51.32868194580078 161.6907348632812 46.5286865234375 158.6570739746094 42.03828430175781 C 155.6513977050781 37.58926391601562 152.1994018554688 33.40544128417969 148.39697265625 29.60302734375 C 144.5945434570312 25.80059814453125 140.4107360839844 22.34860229492188 135.9617156982422 19.34292602539062 C 131.4713134765625 16.30926513671875 126.6713104248047 13.70387268066406 121.6950531005859 11.59907531738281 C 116.6278991699219 9.45587158203125 111.3251876831055 7.809814453125 105.9342346191406 6.7066650390625 C 100.4000549316406 5.574203491210938 94.70255279541016 5 89 5 M 89 0 C 138.1533508300781 0 178 39.84666442871094 178 89 C 178 138.1533508300781 138.1533508300781 178 89 178 C 39.84666442871094 178 0 138.1533508300781 0 89 C 0 39.84666442871094 39.84666442871094 0 89 0 Z" stroke="none" fill="#fda829"/>
    </g>
    <g id="Trazado_231260" data-name="Trazado 231260" transform="translate(875.667 3725)" fill="#fff">
      <path d="M 89 175.5 C 83.12944793701172 175.5 77.26332855224609 174.9087219238281 71.5645751953125 173.7425994873047 C 66.01194763183594 172.6063537597656 60.55020141601562 170.9109191894531 55.33105087280273 168.7034301757812 C 50.20612335205078 166.5357513427734 45.26292419433594 163.8526458740234 40.63877487182617 160.7286224365234 C 36.05789947509766 157.6338806152344 31.75017547607422 154.0796508789062 27.83525085449219 150.1647186279297 C 23.92034912109375 146.2498016357422 20.36612510681152 141.9420776367188 17.2713508605957 137.3612213134766 C 14.1473503112793 132.7370758056641 11.46424961090088 127.7938766479492 9.296574592590332 122.6689224243164 C 7.089075088500977 117.4497985839844 5.393650054931641 111.9880523681641 4.257400035858154 106.4354019165039 C 3.091274976730347 100.7366714477539 2.5 94.87055206298828 2.5 89 C 2.5 83.12944793701172 3.091274976730347 77.26332855224609 4.257400035858154 71.5645751953125 C 5.393650054931641 66.01194763183594 7.089075088500977 60.55020141601562 9.296574592590332 55.33105087280273 C 11.46424961090088 50.20612335205078 14.1473503112793 45.26292419433594 17.2713508605957 40.63877487182617 C 20.36612510681152 36.05789947509766 23.92032432556152 31.75017547607422 27.83525085449219 27.83525085449219 C 31.75017547607422 23.92032432556152 36.05789947509766 20.36612510681152 40.63877487182617 17.2713508605957 C 45.26292419433594 14.1473503112793 50.20612335205078 11.46424961090088 55.33105087280273 9.296574592590332 C 60.55020141601562 7.089075088500977 66.01194763183594 5.393650054931641 71.5645751953125 4.257400035858154 C 77.26332855224609 3.091274976730347 83.12944793701172 2.5 89 2.5 C 94.87055206298828 2.5 100.7366714477539 3.091274976730347 106.4354019165039 4.257400035858154 C 111.9880523681641 5.393650054931641 117.4497985839844 7.089075088500977 122.6689224243164 9.296574592590332 C 127.7938766479492 11.46424961090088 132.7370758056641 14.1473503112793 137.3612213134766 17.2713508605957 C 141.9420776367188 20.36612510681152 146.2498016357422 23.92034912109375 150.1647186279297 27.83525085449219 C 154.0796508789062 31.75017547607422 157.6338806152344 36.05789947509766 160.7286224365234 40.63877487182617 C 163.8526458740234 45.26292419433594 166.5357513427734 50.20612335205078 168.7034301757812 55.33105087280273 C 170.9109191894531 60.55020141601562 172.6063537597656 66.01194763183594 173.7425994873047 71.5645751953125 C 174.9087219238281 77.26332855224609 175.5 83.12944793701172 175.5 89 C 175.5 94.87055206298828 174.9087219238281 100.7366714477539 173.7425994873047 106.4354019165039 C 172.6063537597656 111.9880523681641 170.9109191894531 117.4497985839844 168.7034301757812 122.6689224243164 C 166.5357513427734 127.7938766479492 163.8526458740234 132.7370758056641 160.7286224365234 137.3612213134766 C 157.6338806152344 141.9420776367188 154.0796508789062 146.2498016357422 150.1647186279297 150.1647186279297 C 146.2498016357422 154.0796508789062 141.9420776367188 157.6338806152344 137.3612213134766 160.7286224365234 C 132.7370758056641 163.8526458740234 127.7938766479492 166.5357513427734 122.6689224243164 168.7034301757812 C 117.4497985839844 170.9109191894531 111.9880523681641 172.6063537597656 106.4354019165039 173.7425994873047 C 100.7366714477539 174.9087219238281 94.87055206298828 175.5 89 175.5 Z" stroke="none"/>
      <path d="M 89 5 C 83.29744720458984 5 77.59994506835938 5.574203491210938 72.06576538085938 6.7066650390625 C 66.67481231689453 7.809814453125 61.37210845947266 9.45587158203125 56.30494689941406 11.59907531738281 C 51.32868194580078 13.70387268066406 46.5286865234375 16.30926513671875 42.03828430175781 19.34292602539062 C 37.58926391601562 22.34860229492188 33.40544128417969 25.80059814453125 29.60302734375 29.60302734375 C 25.80059814453125 33.40544128417969 22.34860229492188 37.58926391601562 19.34292602539062 42.03828430175781 C 16.30926513671875 46.5286865234375 13.70387268066406 51.32868194580078 11.59907531738281 56.30494689941406 C 9.45587158203125 61.37210845947266 7.809814453125 66.67481231689453 6.7066650390625 72.06576538085938 C 5.574203491210938 77.59994506835938 5 83.29744720458984 5 89 C 5 94.70255279541016 5.574203491210938 100.4000549316406 6.7066650390625 105.9342346191406 C 7.809814453125 111.3251876831055 9.45587158203125 116.6278991699219 11.59907531738281 121.6950531005859 C 13.70387268066406 126.6713104248047 16.30926513671875 131.4713134765625 19.34292602539062 135.9617156982422 C 22.34860229492188 140.4107360839844 25.80059814453125 144.5945434570312 29.60302734375 148.39697265625 C 33.40544128417969 152.1994018554688 37.58926391601562 155.6513977050781 42.03828430175781 158.6570739746094 C 46.5286865234375 161.6907348632812 51.32868194580078 164.2961273193359 56.30494689941406 166.4009246826172 C 61.37210845947266 168.5441284179688 66.67481231689453 170.190185546875 72.06576538085938 171.2933349609375 C 77.59994506835938 172.4257965087891 83.29744720458984 173 89 173 C 94.70255279541016 173 100.4000549316406 172.4257965087891 105.9342346191406 171.2933349609375 C 111.3251876831055 170.190185546875 116.6278991699219 168.5441284179688 121.6950531005859 166.4009246826172 C 126.6713104248047 164.2961273193359 131.4713134765625 161.6907348632812 135.9617156982422 158.6570739746094 C 140.4107360839844 155.6513977050781 144.5945434570312 152.1994018554688 148.39697265625 148.39697265625 C 152.1994018554688 144.5945434570312 155.6513977050781 140.4107360839844 158.6570739746094 135.9617156982422 C 161.6907348632812 131.4713134765625 164.2961273193359 126.6713104248047 166.4009246826172 121.6950531005859 C 168.5441284179688 116.6278991699219 170.190185546875 111.3251876831055 171.2933349609375 105.9342346191406 C 172.4257965087891 100.4000549316406 173 94.70255279541016 173 89 C 173 83.29744720458984 172.4257965087891 77.59994506835938 171.2933349609375 72.06576538085938 C 170.190185546875 66.67481231689453 168.5441284179688 61.37210845947266 166.4009246826172 56.30494689941406 C 164.2961273193359 51.32868194580078 161.6907348632812 46.5286865234375 158.6570739746094 42.03828430175781 C 155.6513977050781 37.58926391601562 152.1994018554688 33.40544128417969 148.39697265625 29.60302734375 C 144.5945434570312 25.80059814453125 140.4107360839844 22.34860229492188 135.9617156982422 19.34292602539062 C 131.4713134765625 16.30926513671875 126.6713104248047 13.70387268066406 121.6950531005859 11.59907531738281 C 116.6278991699219 9.45587158203125 111.3251876831055 7.809814453125 105.9342346191406 6.7066650390625 C 100.4000549316406 5.574203491210938 94.70255279541016 5 89 5 M 89 0 C 138.1533508300781 0 178 39.84666442871094 178 89 C 178 138.1533508300781 138.1533508300781 178 89 178 C 39.84666442871094 178 0 138.1533508300781 0 89 C 0 39.84666442871094 39.84666442871094 0 89 0 Z" stroke="none" fill="#fed935"/>
    </g>
    <path id="Trazado_231261" data-name="Trazado 231261" d="M49.1,6.781l3.174,9.893,3.164-9.893h4.512V21H56.516V17.68l.332-6.8L53.41,21H51.145L47.7,10.873l.332,6.807V21H44.6V6.781ZM67.092,21.2a5.432,5.432,0,0,1-3.936-1.45,5.008,5.008,0,0,1-1.5-3.774V15.7a6.489,6.489,0,0,1,.6-2.861,4.395,4.395,0,0,1,1.753-1.919,5.292,5.292,0,0,1,2.734-.679,4.574,4.574,0,0,1,3.516,1.382,5.43,5.43,0,0,1,1.289,3.853v1.279H65a2.372,2.372,0,0,0,.771,1.4,2.3,2.3,0,0,0,1.543.508,2.958,2.958,0,0,0,2.441-1.094l1.5,1.777a4.2,4.2,0,0,1-1.743,1.353A5.891,5.891,0,0,1,67.092,21.2Zm-.371-8.418q-1.445,0-1.719,1.914h3.32v-.254a1.63,1.63,0,0,0-.4-1.226A1.593,1.593,0,0,0,66.721,12.777ZM66.682,5.99h3.477L67.443,9.057l-2.686,0ZM76.7,7.807v2.627h1.738v2.285H76.7v4.834a1.234,1.234,0,0,0,.215.83,1.152,1.152,0,0,0,.85.234,4.828,4.828,0,0,0,.82-.059v2.354a6.074,6.074,0,0,1-1.855.283,3.448,3.448,0,0,1-2.51-.8,3.282,3.282,0,0,1-.811-2.432V12.719H72.063V10.434H73.41V7.807Zm2.324,7.813a6.236,6.236,0,0,1,.615-2.817,4.4,4.4,0,0,1,1.768-1.9,5.323,5.323,0,0,1,2.705-.664,4.858,4.858,0,0,1,3.74,1.47,5.64,5.64,0,0,1,1.367,4v.117a5.472,5.472,0,0,1-1.372,3.921,4.871,4.871,0,0,1-3.716,1.45,4.927,4.927,0,0,1-3.623-1.353,5.29,5.29,0,0,1-1.475-3.667Zm3.291.205a3.932,3.932,0,0,0,.459,2.148,1.529,1.529,0,0,0,1.357.684q1.758,0,1.8-2.705v-.332q0-2.842-1.816-2.842-1.65,0-1.787,2.451Zm7.939-.186a6.455,6.455,0,0,1,1.084-3.955,3.568,3.568,0,0,1,3.027-1.445,3.035,3.035,0,0,1,2.383,1.113V6h3.3V21H97.092l-.166-1.133A3.116,3.116,0,0,1,94.348,21.2a3.562,3.562,0,0,1-2.988-1.445A6.659,6.659,0,0,1,90.256,15.639Zm3.291.205q0,2.813,1.641,2.813a1.62,1.62,0,0,0,1.563-.918V13.715a1.576,1.576,0,0,0-1.543-.937q-1.523,0-1.65,2.461Zm7.959-.225a6.236,6.236,0,0,1,.615-2.817,4.4,4.4,0,0,1,1.768-1.9,5.323,5.323,0,0,1,2.705-.664,4.858,4.858,0,0,1,3.74,1.47,5.64,5.64,0,0,1,1.367,4v.117a5.472,5.472,0,0,1-1.372,3.921,4.871,4.871,0,0,1-3.716,1.45,4.927,4.927,0,0,1-3.623-1.353,5.29,5.29,0,0,1-1.475-3.667Zm3.291.205a3.932,3.932,0,0,0,.459,2.148,1.529,1.529,0,0,0,1.357.684q1.758,0,1.8-2.705v-.332q0-2.842-1.816-2.842-1.65,0-1.787,2.451Zm13.887,2.207a.76.76,0,0,0-.439-.674,6.684,6.684,0,0,0-1.67-.527,7.615,7.615,0,0,1-2.031-.718,3.4,3.4,0,0,1-1.221-1.079,2.577,2.577,0,0,1-.42-1.455,2.92,2.92,0,0,1,1.2-2.4,4.948,4.948,0,0,1,3.145-.942,5.482,5.482,0,0,1,3.359.947,2.962,2.962,0,0,1,1.27,2.49h-3.3q0-1.27-1.338-1.27a1.326,1.326,0,0,0-.869.288.892.892,0,0,0-.352.718.819.819,0,0,0,.43.713,4.06,4.06,0,0,0,1.372.449,11.857,11.857,0,0,1,1.655.42,3.007,3.007,0,0,1,2.383,2.939,2.767,2.767,0,0,1-1.284,2.354,5.631,5.631,0,0,1-3.325.908,5.747,5.747,0,0,1-2.422-.488,4.05,4.05,0,0,1-1.66-1.328,3.007,3.007,0,0,1-.6-1.768h3.076a1.272,1.272,0,0,0,.488,1.069,2.009,2.009,0,0,0,1.2.337,1.58,1.58,0,0,0,1.011-.273A.875.875,0,0,0,118.684,18.031ZM13.02,46.857A3.393,3.393,0,0,1,10.2,48.2a3.328,3.328,0,0,1-2.632-1.011,4.251,4.251,0,0,1-.894-2.905V37.434H9.963V44.3a1.183,1.183,0,0,0,1.318,1.357,1.72,1.72,0,0,0,1.611-.811V37.434H16.2V48H13.117Zm8.818-12.051v2.627h1.738v2.285H21.838v4.834a1.234,1.234,0,0,0,.215.83,1.152,1.152,0,0,0,.85.234,4.828,4.828,0,0,0,.82-.059v2.354a6.074,6.074,0,0,1-1.855.283,3.448,3.448,0,0,1-2.51-.8,3.282,3.282,0,0,1-.811-2.432V39.719H17.2V37.434h1.348V34.807ZM28.342,48h-3.3V37.434h3.3Zm-3.5-13.291a1.469,1.469,0,0,1,.508-1.152,2.159,2.159,0,0,1,2.637,0,1.561,1.561,0,0,1,0,2.3,2.159,2.159,0,0,1-2.637,0A1.469,1.469,0,0,1,24.846,34.709ZM33.84,48h-3.3V33h3.3Zm5.5,0h-3.3V37.434h3.3Zm-3.5-13.291a1.469,1.469,0,0,1,.508-1.152,2.159,2.159,0,0,1,2.637,0,1.561,1.561,0,0,1,0,2.3,2.159,2.159,0,0,1-2.637,0A1.469,1.469,0,0,1,35.842,34.709Zm9.4,10.752h4.814V48H41.086V46.164l4.688-6.191H41.291V37.434h8.662v1.777ZM57.609,48a3.716,3.716,0,0,1-.312-.947A3.06,3.06,0,0,1,54.758,48.2a3.749,3.749,0,0,1-2.539-.9,2.875,2.875,0,0,1-1.045-2.271,2.955,2.955,0,0,1,1.27-2.6,6.468,6.468,0,0,1,3.691-.879H57.15v-.559q0-1.462-1.26-1.462a1.03,1.03,0,0,0-1.172,1.158H51.428a2.95,2.95,0,0,1,1.3-2.487,5.479,5.479,0,0,1,3.325-.956,4.8,4.8,0,0,1,3.193.986,3.429,3.429,0,0,1,1.2,2.705v4.678a4.79,4.79,0,0,0,.449,2.227V48Zm-2.061-2.148a1.836,1.836,0,0,0,1.021-.264,1.653,1.653,0,0,0,.581-.6V43.3h-.957q-1.719,0-1.719,1.543a.942.942,0,0,0,.3.728A1.1,1.1,0,0,0,55.549,45.852Zm6.309-3.213a6.455,6.455,0,0,1,1.084-3.955,3.568,3.568,0,0,1,3.027-1.445,3.035,3.035,0,0,1,2.383,1.113V33h3.3V48H68.693l-.166-1.133A3.116,3.116,0,0,1,65.949,48.2a3.562,3.562,0,0,1-2.988-1.445A6.659,6.659,0,0,1,61.857,42.639Zm3.291.205q0,2.813,1.641,2.813a1.62,1.62,0,0,0,1.563-.918V40.715a1.576,1.576,0,0,0-1.543-.937q-1.523,0-1.65,2.461Zm7.959-.225a6.236,6.236,0,0,1,.615-2.817,4.4,4.4,0,0,1,1.768-1.9,5.323,5.323,0,0,1,2.705-.664,4.858,4.858,0,0,1,3.74,1.47,5.64,5.64,0,0,1,1.367,4v.117a5.472,5.472,0,0,1-1.372,3.921,4.871,4.871,0,0,1-3.716,1.45,4.927,4.927,0,0,1-3.623-1.353,5.29,5.29,0,0,1-1.475-3.667Zm3.291.205a3.932,3.932,0,0,0,.459,2.148,1.529,1.529,0,0,0,1.357.684q1.758,0,1.8-2.705v-.332q0-2.842-1.816-2.842-1.65,0-1.787,2.451Zm13.887,2.207a.76.76,0,0,0-.439-.674,6.685,6.685,0,0,0-1.67-.527,7.615,7.615,0,0,1-2.031-.718,3.4,3.4,0,0,1-1.221-1.079,2.577,2.577,0,0,1-.42-1.455,2.92,2.92,0,0,1,1.2-2.4,4.948,4.948,0,0,1,3.145-.942,5.482,5.482,0,0,1,3.359.947,2.962,2.962,0,0,1,1.27,2.49h-3.3q0-1.27-1.338-1.27a1.326,1.326,0,0,0-.869.288.892.892,0,0,0-.352.718.819.819,0,0,0,.43.713,4.06,4.06,0,0,0,1.372.449,11.856,11.856,0,0,1,1.655.42,3.007,3.007,0,0,1,2.383,2.939,2.767,2.767,0,0,1-1.284,2.354,5.631,5.631,0,0,1-3.325.908,5.747,5.747,0,0,1-2.422-.488,4.05,4.05,0,0,1-1.66-1.328,3.007,3.007,0,0,1-.6-1.768h3.076a1.272,1.272,0,0,0,.488,1.069,2.009,2.009,0,0,0,1.2.337,1.58,1.58,0,0,0,1.011-.273A.875.875,0,0,0,90.285,45.031Zm19.5-2.236a6.372,6.372,0,0,1-1.108,3.931,3.554,3.554,0,0,1-2.993,1.47,3.046,3.046,0,0,1-2.393-1.064v4.932H100V37.434h3.076l.1.977a3.046,3.046,0,0,1,2.49-1.172,3.582,3.582,0,0,1,3.037,1.44,6.45,6.45,0,0,1,1.084,3.96ZM106.5,42.59q0-2.812-1.641-2.812a1.549,1.549,0,0,0-1.562.84v4.16a1.6,1.6,0,0,0,1.582.879q1.572,0,1.621-2.715ZM117.189,48a3.716,3.716,0,0,1-.312-.947,3.06,3.06,0,0,1-2.539,1.143,3.749,3.749,0,0,1-2.539-.9,2.875,2.875,0,0,1-1.045-2.271,2.955,2.955,0,0,1,1.27-2.6,6.468,6.468,0,0,1,3.691-.879h1.016v-.559q0-1.462-1.26-1.462a1.03,1.03,0,0,0-1.172,1.158h-3.291a2.95,2.95,0,0,1,1.3-2.487,5.479,5.479,0,0,1,3.325-.956,4.8,4.8,0,0,1,3.193.986,3.429,3.429,0,0,1,1.2,2.705v4.678a4.79,4.79,0,0,0,.449,2.227V48Zm-2.061-2.148a1.836,1.836,0,0,0,1.021-.264,1.653,1.653,0,0,0,.581-.6V43.3h-.957q-1.719,0-1.719,1.543a.942.942,0,0,0,.3.728A1.1,1.1,0,0,0,115.129,45.852Zm13.115-5.439-1.084-.078a1.947,1.947,0,0,0-1.992.977V48h-3.291V37.434h3.086l.107,1.357a2.548,2.548,0,0,1,2.314-1.553,3.209,3.209,0,0,1,.918.117ZM135.09,48a3.716,3.716,0,0,1-.312-.947,3.06,3.06,0,0,1-2.539,1.143,3.749,3.749,0,0,1-2.539-.9,2.875,2.875,0,0,1-1.045-2.271,2.955,2.955,0,0,1,1.27-2.6,6.468,6.468,0,0,1,3.691-.879h1.016v-.559q0-1.462-1.26-1.462a1.03,1.03,0,0,0-1.172,1.158h-3.291a2.95,2.95,0,0,1,1.3-2.487,5.479,5.479,0,0,1,3.325-.956,4.8,4.8,0,0,1,3.193.986,3.429,3.429,0,0,1,1.2,2.705v4.678a4.79,4.79,0,0,0,.449,2.227V48Zm-2.061-2.148a1.836,1.836,0,0,0,1.021-.264,1.652,1.652,0,0,0,.581-.6V43.3h-.957q-1.719,0-1.719,1.543a.942.942,0,0,0,.3.728A1.1,1.1,0,0,0,133.029,45.852ZM149.846,48.2a5.432,5.432,0,0,1-3.936-1.45,5.008,5.008,0,0,1-1.5-3.774V42.7a6.489,6.489,0,0,1,.6-2.861,4.395,4.395,0,0,1,1.753-1.919,5.292,5.292,0,0,1,2.734-.679,4.574,4.574,0,0,1,3.516,1.382,5.43,5.43,0,0,1,1.289,3.853v1.279h-6.543a2.372,2.372,0,0,0,.771,1.4,2.3,2.3,0,0,0,1.543.508,2.958,2.958,0,0,0,2.441-1.094l1.5,1.777a4.2,4.2,0,0,1-1.743,1.353A5.891,5.891,0,0,1,149.846,48.2Zm-.371-8.418q-1.445,0-1.719,1.914h3.32v-.254a1.63,1.63,0,0,0-.4-1.226A1.593,1.593,0,0,0,149.475,39.777ZM159.094,48h-3.3V33h3.3ZM42.971,72.656a1.464,1.464,0,0,0,1.074-.376,1.379,1.379,0,0,0,.371-1.05H47.5a3.653,3.653,0,0,1-1.245,2.852A4.631,4.631,0,0,1,43.049,75.2a4.689,4.689,0,0,1-3.633-1.445,5.7,5.7,0,0,1-1.328-4v-.137a6.436,6.436,0,0,1,.591-2.827,4.3,4.3,0,0,1,1.7-1.885,5.081,5.081,0,0,1,2.637-.659,4.573,4.573,0,0,1,3.271,1.143,4.053,4.053,0,0,1,1.211,3.1H44.416a1.807,1.807,0,0,0-.4-1.26,1.382,1.382,0,0,0-1.074-.439q-1.279,0-1.494,1.631a11.507,11.507,0,0,0-.068,1.426,4.52,4.52,0,0,0,.381,2.207A1.319,1.319,0,0,0,42.971,72.656Zm5.508-3.037a6.236,6.236,0,0,1,.615-2.817,4.4,4.4,0,0,1,1.768-1.9,5.323,5.323,0,0,1,2.705-.664,4.858,4.858,0,0,1,3.74,1.47,5.64,5.64,0,0,1,1.367,4v.117A5.472,5.472,0,0,1,57.3,73.745a4.871,4.871,0,0,1-3.716,1.45,4.927,4.927,0,0,1-3.623-1.353,5.29,5.29,0,0,1-1.475-3.667Zm3.291.205a3.932,3.932,0,0,0,.459,2.148,1.529,1.529,0,0,0,1.357.684q1.758,0,1.8-2.705v-.332q0-2.842-1.816-2.842-1.65,0-1.787,2.451Zm11.377-5.391.107,1.24a3.583,3.583,0,0,1,3.018-1.436,3.015,3.015,0,0,1,2.466.986,4.7,4.7,0,0,1,.845,2.969V75h-3.3V68.33a1.783,1.783,0,0,0-.322-1.177,1.491,1.491,0,0,0-1.172-.376,1.569,1.569,0,0,0-1.436.762V75H60.061V64.434Zm12.09-2.627v2.627h1.738v2.285H75.236v4.834a1.234,1.234,0,0,0,.215.83,1.152,1.152,0,0,0,.85.234,4.828,4.828,0,0,0,.82-.059v2.354a6.074,6.074,0,0,1-1.855.283,3.448,3.448,0,0,1-2.51-.8,3.282,3.282,0,0,1-.811-2.432V66.719H70.6V64.434h1.348V61.807Zm9.424,5.605-1.084-.078a1.947,1.947,0,0,0-1.992.977V75H78.293V64.434h3.086l.107,1.357A2.548,2.548,0,0,1,83.8,64.238a3.209,3.209,0,0,1,.918.117Zm.42,2.207A6.236,6.236,0,0,1,85.7,66.8a4.4,4.4,0,0,1,1.768-1.9,5.323,5.323,0,0,1,2.705-.664,4.858,4.858,0,0,1,3.74,1.47,5.64,5.64,0,0,1,1.367,4v.117A5.472,5.472,0,0,1,93.9,73.745a4.871,4.871,0,0,1-3.716,1.45,4.927,4.927,0,0,1-3.623-1.353,5.29,5.29,0,0,1-1.475-3.667Zm3.291.205a3.932,3.932,0,0,0,.459,2.148,1.529,1.529,0,0,0,1.357.684q1.758,0,1.8-2.705v-.332q0-2.842-1.816-2.842-1.65,0-1.787,2.451ZM100.2,75H96.9V60h3.3Zm6.592-5.361a6.455,6.455,0,0,1,1.084-3.955,3.568,3.568,0,0,1,3.027-1.445,3.035,3.035,0,0,1,2.383,1.113V60h3.3V75h-2.959l-.166-1.133a3.116,3.116,0,0,1-2.578,1.328,3.562,3.562,0,0,1-2.988-1.445A6.659,6.659,0,0,1,106.789,69.639Zm3.291.205q0,2.813,1.641,2.813a1.62,1.62,0,0,0,1.563-.918V67.715a1.576,1.576,0,0,0-1.543-.937q-1.523,0-1.65,2.461ZM123.566,75.2a5.432,5.432,0,0,1-3.936-1.45,5.008,5.008,0,0,1-1.5-3.774V69.7a6.489,6.489,0,0,1,.6-2.861,4.395,4.395,0,0,1,1.753-1.919,5.292,5.292,0,0,1,2.734-.679,4.574,4.574,0,0,1,3.516,1.382,5.43,5.43,0,0,1,1.289,3.853v1.279h-6.543a2.372,2.372,0,0,0,.771,1.4,2.3,2.3,0,0,0,1.543.508,2.958,2.958,0,0,0,2.441-1.094l1.5,1.777a4.2,4.2,0,0,1-1.743,1.353A5.891,5.891,0,0,1,123.566,75.2Zm-.371-8.418q-1.445,0-1.719,1.914h3.32v-.254a1.63,1.63,0,0,0-.4-1.226A1.593,1.593,0,0,0,123.2,66.777ZM36.74,102h-3.3V91.434h3.3Zm-3.5-13.291a1.469,1.469,0,0,1,.508-1.152,2.159,2.159,0,0,1,2.637,0,1.561,1.561,0,0,1,0,2.3,2.159,2.159,0,0,1-2.637,0A1.469,1.469,0,0,1,33.244,88.709Zm8.545,2.725.107,1.24a3.583,3.583,0,0,1,3.018-1.436,3.015,3.015,0,0,1,2.466.986,4.7,4.7,0,0,1,.845,2.969V102h-3.3V95.33a1.783,1.783,0,0,0-.322-1.177,1.491,1.491,0,0,0-1.172-.376,1.569,1.569,0,0,0-1.436.762V102H38.7V91.434Zm12.471,6.65,1.67-6.65H59.4L55.949,102H52.59L49.143,91.434h3.477ZM65.49,102.2a5.432,5.432,0,0,1-3.936-1.45,5.008,5.008,0,0,1-1.5-3.774V96.7a6.489,6.489,0,0,1,.6-2.861A4.395,4.395,0,0,1,62.4,91.917a5.292,5.292,0,0,1,2.734-.679,4.574,4.574,0,0,1,3.516,1.382,5.43,5.43,0,0,1,1.289,3.853v1.279H63.4a2.372,2.372,0,0,0,.771,1.4,2.3,2.3,0,0,0,1.543.508,2.958,2.958,0,0,0,2.441-1.094l1.5,1.777a4.2,4.2,0,0,1-1.743,1.353A5.891,5.891,0,0,1,65.49,102.2Zm-.371-8.418q-1.445,0-1.719,1.914h3.32v-.254a1.63,1.63,0,0,0-.4-1.226A1.593,1.593,0,0,0,65.119,93.777Zm9.17-2.344.107,1.24a3.583,3.583,0,0,1,3.018-1.436,3.015,3.015,0,0,1,2.466.986,4.7,4.7,0,0,1,.845,2.969V102h-3.3V95.33a1.783,1.783,0,0,0-.322-1.177,1.491,1.491,0,0,0-1.172-.376,1.569,1.569,0,0,0-1.436.762V102H71.2V91.434Zm12.09-2.627v2.627h1.738v2.285H86.379v4.834a1.234,1.234,0,0,0,.215.83,1.152,1.152,0,0,0,.85.234,4.828,4.828,0,0,0,.82-.059v2.354a6.074,6.074,0,0,1-1.855.283,3.448,3.448,0,0,1-2.51-.8,3.282,3.282,0,0,1-.811-2.432V93.719H81.74V91.434h1.348V88.807ZM95.363,102a3.716,3.716,0,0,1-.312-.947,3.06,3.06,0,0,1-2.539,1.143,3.749,3.749,0,0,1-2.539-.9,2.875,2.875,0,0,1-1.045-2.271,2.955,2.955,0,0,1,1.27-2.6,6.468,6.468,0,0,1,3.691-.879H94.9v-.559q0-1.462-1.26-1.462a1.03,1.03,0,0,0-1.172,1.158H89.182a2.95,2.95,0,0,1,1.3-2.487,5.479,5.479,0,0,1,3.325-.956A4.8,4.8,0,0,1,97,92.225a3.429,3.429,0,0,1,1.2,2.705v4.678a4.79,4.79,0,0,0,.449,2.227V102ZM93.3,99.852a1.836,1.836,0,0,0,1.021-.264,1.653,1.653,0,0,0,.581-.6V97.3h-.957q-1.719,0-1.719,1.543a.942.942,0,0,0,.3.728A1.1,1.1,0,0,0,93.3,99.852Zm13.115-5.439-1.084-.078a1.947,1.947,0,0,0-1.992.977V102h-3.291V91.434h3.086l.107,1.357a2.548,2.548,0,0,1,2.314-1.553,3.209,3.209,0,0,1,.918.117ZM111.076,102h-3.3V91.434h3.3Zm-3.5-13.291a1.469,1.469,0,0,1,.508-1.152,2.159,2.159,0,0,1,2.637,0,1.561,1.561,0,0,1,0,2.3,2.159,2.159,0,0,1-2.637,0A1.469,1.469,0,0,1,107.58,88.709Zm5.107,7.91A6.236,6.236,0,0,1,113.3,93.8a4.4,4.4,0,0,1,1.768-1.9,5.323,5.323,0,0,1,2.705-.664,4.858,4.858,0,0,1,3.74,1.47,5.64,5.64,0,0,1,1.367,4v.117a5.472,5.472,0,0,1-1.372,3.921,4.871,4.871,0,0,1-3.716,1.45,4.927,4.927,0,0,1-3.623-1.353,5.29,5.29,0,0,1-1.475-3.667Zm3.291.205a3.932,3.932,0,0,0,.459,2.148,1.529,1.529,0,0,0,1.357.684q1.758,0,1.8-2.705v-.332q0-2.842-1.816-2.842-1.65,0-1.787,2.451Zm13.887,2.207a.76.76,0,0,0-.439-.674,6.684,6.684,0,0,0-1.67-.527,7.615,7.615,0,0,1-2.031-.718,3.4,3.4,0,0,1-1.221-1.079,2.577,2.577,0,0,1-.42-1.455,2.92,2.92,0,0,1,1.2-2.4,4.948,4.948,0,0,1,3.145-.942,5.482,5.482,0,0,1,3.359.947,2.962,2.962,0,0,1,1.27,2.49h-3.3q0-1.27-1.338-1.27a1.326,1.326,0,0,0-.869.288.892.892,0,0,0-.352.718.819.819,0,0,0,.43.713,4.06,4.06,0,0,0,1.372.449,11.858,11.858,0,0,1,1.655.42,3.007,3.007,0,0,1,2.383,2.939,2.767,2.767,0,0,1-1.284,2.354,5.632,5.632,0,0,1-3.325.908,5.747,5.747,0,0,1-2.422-.488,4.05,4.05,0,0,1-1.66-1.328,3.007,3.007,0,0,1-.6-1.768h3.076a1.272,1.272,0,0,0,.488,1.069,2.009,2.009,0,0,0,1.2.337,1.58,1.58,0,0,0,1.011-.273A.875.875,0,0,0,129.865,99.031Z" transform="translate(716.667 3595)" fill="#12263f"/>
    <path id="Trazado_231262" data-name="Trazado 231262" d="M27.633,13.961q.164-.93-.914-1.422l-1.508-.6q-2.625-1.172-2.492-3.227a2.964,2.964,0,0,1,.625-1.687,3.758,3.758,0,0,1,1.6-1.152,5.67,5.67,0,0,1,2.227-.4,3.857,3.857,0,0,1,2.664.98,3.267,3.267,0,0,1,1,2.543H28.555a1.628,1.628,0,0,0-.34-1.2,1.531,1.531,0,0,0-1.176-.445A2.37,2.37,0,0,0,25.68,7.7a1.458,1.458,0,0,0-.687,1.02q-.148.852,1.141,1.352l1.031.391.594.273q2.3,1.141,2.156,3.2a3.09,3.09,0,0,1-.645,1.738A3.633,3.633,0,0,1,27.707,16.8a5.565,5.565,0,0,1-2.176.367,4.873,4.873,0,0,1-2.156-.508,3.349,3.349,0,0,1-1.437-1.367,3.54,3.54,0,0,1-.43-1.875l2.289.008q-.109,1.852,1.82,1.883a2.392,2.392,0,0,0,1.375-.367A1.43,1.43,0,0,0,27.633,13.961Zm8.055-5.57a3.39,3.39,0,0,1,1.926.574A3.234,3.234,0,0,1,38.8,10.5a4.762,4.762,0,0,1,.27,2.176,5.143,5.143,0,0,1-1.4,3.262,3.96,3.96,0,0,1-3.02,1.215,3.38,3.38,0,0,1-1.906-.566,3.222,3.222,0,0,1-1.187-1.527,4.657,4.657,0,0,1-.273-2.156A5.3,5.3,0,0,1,32.7,9.578,3.878,3.878,0,0,1,35.688,8.391Zm-2.227,5.315a1.95,1.95,0,0,0,.352,1.182,1.168,1.168,0,0,0,.945.449,1.712,1.712,0,0,0,1.594-.932,4.647,4.647,0,0,0,.539-2.531,2.122,2.122,0,0,0-.363-1.2,1.149,1.149,0,0,0-.949-.464A1.715,1.715,0,0,0,34,11.135,4.6,4.6,0,0,0,33.461,13.706ZM40.3,17l1.18-6.8H40.258l.289-1.648,1.219-.008.109-.844a3.332,3.332,0,0,1,1.1-2.121,3.334,3.334,0,0,1,2.289-.754,7.33,7.33,0,0,1,1.2.163l-.2,1.751a2.732,2.732,0,0,0-.648-.094,1.615,1.615,0,0,0-1,.3,1.355,1.355,0,0,0-.52.918l-.117.69h1.633L45.32,10.2H43.7L42.516,17ZM49.813,6.469l-.367,2.078h1.406L50.563,10.2H49.156l-.719,4.234a1.077,1.077,0,0,0,.063.609q.109.211.531.227.125.008.672-.039l-.156,1.727a3.706,3.706,0,0,1-1.266.18,1.985,1.985,0,0,1-1.617-.68,2.456,2.456,0,0,1-.437-1.8l.727-4.461h-1.2l.289-1.656h1.2L47.6,6.469ZM58.3,13.922,60.3,8.547h2.2L58.945,17H57.1l-.625-5.289L54.008,17H52.164l-.625-8.453H53.6l.133,5.32,2.414-5.32h1.594ZM67.039,17a2.281,2.281,0,0,1-.086-.766,2.863,2.863,0,0,1-2.156.922,2.594,2.594,0,0,1-1.84-.723,2.186,2.186,0,0,1-.684-1.746,2.527,2.527,0,0,1,1.16-2.121,5.266,5.266,0,0,1,2.965-.738l1.031.016.109-.508a1.764,1.764,0,0,0,.023-.492.846.846,0,0,0-.277-.574.955.955,0,0,0-.629-.215,1.345,1.345,0,0,0-.875.254,1.231,1.231,0,0,0-.461.777l-2.211.008a2.457,2.457,0,0,1,1.113-1.965,4.312,4.312,0,0,1,2.613-.738,3.117,3.117,0,0,1,2.25.855,2.5,2.5,0,0,1,.68,2.121l-.648,4.047-.039.5a2.412,2.412,0,0,0,.133.938L69.2,17Zm-1.7-1.555a2.017,2.017,0,0,0,1.664-.828l.273-1.461-.766-.008a2.139,2.139,0,0,0-1.758.742,1.292,1.292,0,0,0-.242.633.75.75,0,0,0,.176.668A.891.891,0,0,0,65.344,15.445Zm10.992-4.781a4.548,4.548,0,0,0-.742-.078,2.136,2.136,0,0,0-1.867.883L72.75,17h-2.2l1.469-8.453,2.07-.008-.2,1.031a2.325,2.325,0,0,1,1.969-1.2,3.214,3.214,0,0,1,.766.109ZM80.3,17.156a3.677,3.677,0,0,1-1.965-.543,3.292,3.292,0,0,1-1.277-1.469,4.093,4.093,0,0,1-.328-2.059l.023-.312a5.465,5.465,0,0,1,.719-2.266,4.341,4.341,0,0,1,1.547-1.59,3.827,3.827,0,0,1,2.094-.527,2.924,2.924,0,0,1,2.473,1.2,4.117,4.117,0,0,1,.637,2.962l-.125.962h-5.18a1.814,1.814,0,0,0,.4,1.313,1.521,1.521,0,0,0,1.172.508A2.7,2.7,0,0,0,82.6,14.4l1.008,1.25a3.135,3.135,0,0,1-1.375,1.121A4.5,4.5,0,0,1,80.3,17.156Zm.7-6.945a1.565,1.565,0,0,0-1.082.383,3.363,3.363,0,0,0-.848,1.383h3.031l.047-.2a2.071,2.071,0,0,0,.008-.594,1.134,1.134,0,0,0-.383-.707A1.2,1.2,0,0,0,81.008,10.211Zm8.648,4.406q.125-.625-.867-.906l-.711-.18q-2.523-.7-2.453-2.453a2.428,2.428,0,0,1,1.059-1.949,3.942,3.942,0,0,1,2.457-.738,3.536,3.536,0,0,1,2.313.758,2.5,2.5,0,0,1,.9,1.977l-2.187-.008a.963.963,0,0,0-1.078-1.1,1.552,1.552,0,0,0-.895.258,1.061,1.061,0,0,0-.465.7q-.117.625.945.883l.313.07a6.285,6.285,0,0,1,1.648.59,2.488,2.488,0,0,1,.879.824,2.04,2.04,0,0,1,.285,1.18,2.251,2.251,0,0,1-.52,1.406,3.18,3.18,0,0,1-1.359.93,4.736,4.736,0,0,1-1.816.3,3.568,3.568,0,0,1-2.344-.809A2.607,2.607,0,0,1,84.8,14.3l2.078.016a1.142,1.142,0,0,0,1.3,1.227,1.845,1.845,0,0,0,1-.25A.987.987,0,0,0,89.656,14.617ZM27.883,40.141a2.831,2.831,0,0,1-2.312,1.016,2.67,2.67,0,0,1-2.074-.781,3.335,3.335,0,0,1-.73-2.289V32.547h2.258v5.467q0,1.322,1.2,1.322a1.63,1.63,0,0,0,1.578-.8V32.547H30.07V41H27.945Zm6.594-9.672v2.078h1.445V34.2H34.477v4.219a1.007,1.007,0,0,0,.18.672.9.9,0,0,0,.688.2,3.6,3.6,0,0,0,.664-.055v1.711a4.648,4.648,0,0,1-1.367.2,2.156,2.156,0,0,1-2.422-2.4V34.2H30.984V32.547h1.234V30.469ZM39.563,41H37.3V32.547h2.266Zm-2.4-10.641a1.112,1.112,0,0,1,.34-.836,1.465,1.465,0,0,1,1.848,0,1.193,1.193,0,0,1,0,1.68,1.448,1.448,0,0,1-1.836,0A1.108,1.108,0,0,1,37.164,30.359ZM43.8,41H41.539V29H43.8Zm4.242,0H45.781V32.547h2.266Zm-2.4-10.641a1.112,1.112,0,0,1,.34-.836,1.465,1.465,0,0,1,1.848,0,1.193,1.193,0,0,1,0,1.68A1.448,1.448,0,0,1,46,31.2,1.108,1.108,0,0,1,45.648,30.359ZM52.5,39.18h4.133V41H49.617V39.625l3.977-5.258H49.734v-1.82h6.773v1.33ZM62.945,41a2.507,2.507,0,0,1-.227-.758,2.732,2.732,0,0,1-2.133.914,3,3,0,0,1-2.059-.719,2.312,2.312,0,0,1-.816-1.812,2.389,2.389,0,0,1,1-2.062,4.915,4.915,0,0,1,2.879-.727h1.039v-.484a1.393,1.393,0,0,0-.3-.937,1.183,1.183,0,0,0-.949-.352,1.345,1.345,0,0,0-.895.273.929.929,0,0,0-.324.75H57.9a2.268,2.268,0,0,1,.453-1.359,3,3,0,0,1,1.281-.98,4.669,4.669,0,0,1,1.859-.355,3.689,3.689,0,0,1,2.48.785,2.747,2.747,0,0,1,.918,2.207v3.664a4.041,4.041,0,0,0,.336,1.82V41Zm-1.867-1.57A1.945,1.945,0,0,0,62,39.207a1.462,1.462,0,0,0,.625-.6V37.156h-.844q-1.7,0-1.8,1.172l-.008.133a.9.9,0,0,0,.3.7A1.153,1.153,0,0,0,61.078,39.43Zm5.2-2.719a5.094,5.094,0,0,1,.887-3.148,2.877,2.877,0,0,1,2.426-1.172,2.589,2.589,0,0,1,2.039.922V29h2.266V41H71.852l-.109-.9a2.657,2.657,0,0,1-2.172,1.055,2.869,2.869,0,0,1-2.395-1.176A5.258,5.258,0,0,1,66.273,36.711Zm2.258.168a3.337,3.337,0,0,0,.414,1.823,1.349,1.349,0,0,0,1.2.634,1.511,1.511,0,0,0,1.477-.884V35.111a1.489,1.489,0,0,0-1.461-.884Q68.531,34.227,68.531,36.879Zm6.758-.184a5.013,5.013,0,0,1,.484-2.242,3.546,3.546,0,0,1,1.395-1.523,4.069,4.069,0,0,1,2.113-.539,3.849,3.849,0,0,1,2.793,1.047,4.2,4.2,0,0,1,1.207,2.844l.016.578a4.418,4.418,0,0,1-1.086,3.121,4.209,4.209,0,0,1-5.832,0,4.5,4.5,0,0,1-1.09-3.187Zm2.258.16A3.16,3.16,0,0,0,78,38.7a1.628,1.628,0,0,0,2.578.008,3.457,3.457,0,0,0,.461-2.015,3.128,3.128,0,0,0-.461-1.831,1.5,1.5,0,0,0-1.3-.649A1.474,1.474,0,0,0,78,34.856,3.516,3.516,0,0,0,77.547,36.856Zm11.719,1.808a.727.727,0,0,0-.41-.652,4.659,4.659,0,0,0-1.316-.426q-3.016-.633-3.016-2.562a2.323,2.323,0,0,1,.934-1.879,3.766,3.766,0,0,1,2.441-.754,4.053,4.053,0,0,1,2.574.758,2.388,2.388,0,0,1,.965,1.969H89.18a1.092,1.092,0,0,0-.312-.8A1.322,1.322,0,0,0,87.891,34a1.351,1.351,0,0,0-.883.258.814.814,0,0,0-.312.656.7.7,0,0,0,.355.605,3.657,3.657,0,0,0,1.2.4,9.8,9.8,0,0,1,1.422.379,2.336,2.336,0,0,1,1.789,2.273,2.2,2.2,0,0,1-.992,1.871,4.28,4.28,0,0,1-2.562.715,4.47,4.47,0,0,1-1.887-.379,3.166,3.166,0,0,1-1.293-1.039,2.414,2.414,0,0,1-.469-1.426H86.4a1.179,1.179,0,0,0,.445.922,1.766,1.766,0,0,0,1.109.32,1.635,1.635,0,0,0,.98-.246A.766.766,0,0,0,89.266,38.664Z" transform="translate(577.667 3500)" fill="#12263f"/>
    <path id="Trazado_231263" data-name="Trazado 231263" d="M22.891,5.625l2.922,8.25,2.906-8.25H31.8V17H29.445V13.891l.234-5.367L26.609,17H25L21.938,8.531l.234,5.359V17H19.828V5.625Zm14.7,11.531a4.15,4.15,0,0,1-3.027-1.141,4.054,4.054,0,0,1-1.168-3.039v-.219a5.106,5.106,0,0,1,.492-2.277,3.612,3.612,0,0,1,1.395-1.547,3.914,3.914,0,0,1,2.059-.543,3.508,3.508,0,0,1,2.73,1.094,4.444,4.444,0,0,1,1,3.1v.922H35.68a2.1,2.1,0,0,0,.66,1.328,2,2,0,0,0,1.395.5,2.437,2.437,0,0,0,2.039-.945l1.109,1.242a3.389,3.389,0,0,1-1.375,1.121A4.511,4.511,0,0,1,37.586,17.156Zm-.258-6.945a1.411,1.411,0,0,0-1.09.455,2.357,2.357,0,0,0-.535,1.3h3.141v-.181a1.681,1.681,0,0,0-.406-1.165A1.456,1.456,0,0,0,37.328,10.211ZM37.531,5h2.461L37.828,7.422H35.992Zm7.516,1.469V8.547h1.445V10.2H45.047v4.219a1.007,1.007,0,0,0,.18.672.9.9,0,0,0,.688.2,3.6,3.6,0,0,0,.664-.055v1.711a4.648,4.648,0,0,1-1.367.2,2.156,2.156,0,0,1-2.422-2.4V10.2H41.555V8.547h1.234V6.469ZM47.164,12.7a5.013,5.013,0,0,1,.484-2.242A3.546,3.546,0,0,1,49.043,8.93a4.069,4.069,0,0,1,2.113-.539,3.849,3.849,0,0,1,2.793,1.047,4.2,4.2,0,0,1,1.207,2.844l.016.578a4.418,4.418,0,0,1-1.086,3.121,4.209,4.209,0,0,1-5.832,0,4.5,4.5,0,0,1-1.09-3.187Zm2.258.16a3.16,3.16,0,0,0,.453,1.843,1.628,1.628,0,0,0,2.578.008,3.457,3.457,0,0,0,.461-2.015,3.128,3.128,0,0,0-.461-1.831,1.5,1.5,0,0,0-1.3-.649,1.474,1.474,0,0,0-1.281.646A3.516,3.516,0,0,0,49.422,12.856Zm6.789-.145A5.094,5.094,0,0,1,57.1,9.563a2.877,2.877,0,0,1,2.426-1.172,2.589,2.589,0,0,1,2.039.922V5h2.266V17H61.789l-.109-.9a2.657,2.657,0,0,1-2.172,1.055,2.869,2.869,0,0,1-2.395-1.176A5.258,5.258,0,0,1,56.211,12.711Zm2.258.168a3.337,3.337,0,0,0,.414,1.823,1.349,1.349,0,0,0,1.2.634,1.511,1.511,0,0,0,1.477-.884V11.111a1.489,1.489,0,0,0-1.461-.884Q58.469,10.227,58.469,12.879Zm6.758-.184a5.013,5.013,0,0,1,.484-2.242A3.546,3.546,0,0,1,67.105,8.93a4.069,4.069,0,0,1,2.113-.539,3.849,3.849,0,0,1,2.793,1.047,4.2,4.2,0,0,1,1.207,2.844l.016.578a4.418,4.418,0,0,1-1.086,3.121,4.209,4.209,0,0,1-5.832,0,4.5,4.5,0,0,1-1.09-3.187Zm2.258.16a3.16,3.16,0,0,0,.453,1.843,1.628,1.628,0,0,0,2.578.008,3.457,3.457,0,0,0,.461-2.015,3.128,3.128,0,0,0-.461-1.831,1.5,1.5,0,0,0-1.3-.649,1.474,1.474,0,0,0-1.281.646A3.516,3.516,0,0,0,67.484,12.856Zm17.7,1.8H81.07L80.289,17H77.8L82.031,5.625H84.2L88.461,17H85.969Zm-3.477-1.9h2.844L83.117,8.5ZM89.523,17V5.625h3.984a5.232,5.232,0,0,1,3.141.793,2.712,2.712,0,0,1,1.07,2.324,2.57,2.57,0,0,1-.43,1.473,2.482,2.482,0,0,1-1.2.934,2.4,2.4,0,0,1,1.379.883,2.61,2.61,0,0,1,.5,1.625,3,3,0,0,1-1.047,2.484A4.713,4.713,0,0,1,93.945,17Zm2.344-4.953v3.07h2.008a1.938,1.938,0,0,0,1.293-.395,1.353,1.353,0,0,0,.465-1.09,1.428,1.428,0,0,0-1.617-1.586Zm0-1.656H93.6q1.773-.031,1.773-1.414a1.307,1.307,0,0,0-.449-1.113,2.363,2.363,0,0,0-1.418-.34H91.867Zm16.8,2.82a4.025,4.025,0,0,1-1.355,2.891,4.76,4.76,0,0,1-3.223,1.055,4.28,4.28,0,0,1-3.441-1.473,6.038,6.038,0,0,1-1.254-4.043v-.7a6.819,6.819,0,0,1,.578-2.891,4.332,4.332,0,0,1,1.652-1.918,5.164,5.164,0,0,1,5.668.387,4.326,4.326,0,0,1,1.391,2.961h-2.344a2.376,2.376,0,0,0-.613-1.6,2.271,2.271,0,0,0-1.605-.5,1.991,1.991,0,0,0-1.754.84,4.707,4.707,0,0,0-.6,2.605V11.7a5.038,5.038,0,0,0,.559,2.7,1.954,1.954,0,0,0,1.762.852,2.314,2.314,0,0,0,1.621-.5,2.241,2.241,0,0,0,.613-1.535Z" transform="translate(900.667 3515)" fill="#12263f"/>
    <path id="Trazado_231264" data-name="Trazado 231264" d="M23.98,14.016A1.2,1.2,0,0,0,23.512,13a6.148,6.148,0,0,0-1.687-.75,11.963,11.963,0,0,1-1.93-.777,3.153,3.153,0,0,1-1.937-2.82A2.747,2.747,0,0,1,18.477,7a3.389,3.389,0,0,1,1.492-1.129,5.616,5.616,0,0,1,2.184-.406,5.112,5.112,0,0,1,2.172.441A3.458,3.458,0,0,1,25.8,7.156a3.261,3.261,0,0,1,.527,1.828H23.988A1.534,1.534,0,0,0,23.5,7.77a2.023,2.023,0,0,0-1.383-.434,2.162,2.162,0,0,0-1.336.363,1.146,1.146,0,0,0-.477.957,1.1,1.1,0,0,0,.559.93,6.311,6.311,0,0,0,1.645.7,7.106,7.106,0,0,1,2.914,1.492A2.972,2.972,0,0,1,26.332,14a2.737,2.737,0,0,1-1.117,2.316,4.891,4.891,0,0,1-3.008.84,5.808,5.808,0,0,1-2.391-.48,3.783,3.783,0,0,1-1.645-1.316,3.371,3.371,0,0,1-.566-1.937h2.352q0,1.883,2.25,1.883a2.189,2.189,0,0,0,1.3-.34A1.106,1.106,0,0,0,23.98,14.016ZM30.152,17H27.887V8.547h2.266Zm-2.4-10.641a1.112,1.112,0,0,1,.34-.836,1.465,1.465,0,0,1,1.848,0,1.105,1.105,0,0,1,.344.836,1.108,1.108,0,0,1-.348.844,1.448,1.448,0,0,1-1.836,0A1.108,1.108,0,0,1,27.754,6.359Zm8.836,8.3a.727.727,0,0,0-.41-.652,4.659,4.659,0,0,0-1.316-.426q-3.016-.633-3.016-2.562a2.323,2.323,0,0,1,.934-1.879,3.766,3.766,0,0,1,2.441-.754,4.053,4.053,0,0,1,2.574.758,2.388,2.388,0,0,1,.965,1.969H36.5a1.092,1.092,0,0,0-.312-.8A1.322,1.322,0,0,0,35.215,10a1.351,1.351,0,0,0-.883.258.814.814,0,0,0-.312.656.7.7,0,0,0,.355.605,3.657,3.657,0,0,0,1.2.4A9.8,9.8,0,0,1,37,12.3a2.336,2.336,0,0,1,1.789,2.273,2.2,2.2,0,0,1-.992,1.871,4.28,4.28,0,0,1-2.562.715,4.47,4.47,0,0,1-1.887-.379,3.166,3.166,0,0,1-1.293-1.039,2.414,2.414,0,0,1-.469-1.426h2.141a1.179,1.179,0,0,0,.445.922,1.766,1.766,0,0,0,1.109.32,1.635,1.635,0,0,0,.98-.246A.766.766,0,0,0,36.59,14.664Zm6.352-8.2V8.547h1.445V10.2H42.941v4.219a1.007,1.007,0,0,0,.18.672.9.9,0,0,0,.688.2,3.6,3.6,0,0,0,.664-.055v1.711a4.648,4.648,0,0,1-1.367.2,2.156,2.156,0,0,1-2.422-2.4V10.2H39.449V8.547h1.234V6.469Zm6.594,10.688a4.15,4.15,0,0,1-3.027-1.141,4.054,4.054,0,0,1-1.168-3.039v-.219a5.106,5.106,0,0,1,.492-2.277,3.612,3.612,0,0,1,1.395-1.547,3.914,3.914,0,0,1,2.059-.543,3.508,3.508,0,0,1,2.73,1.094,4.444,4.444,0,0,1,1,3.1v.922H47.629a2.1,2.1,0,0,0,.66,1.328,2,2,0,0,0,1.395.5,2.437,2.437,0,0,0,2.039-.945l1.109,1.242a3.389,3.389,0,0,1-1.375,1.121A4.511,4.511,0,0,1,49.535,17.156Zm-.258-6.945a1.411,1.411,0,0,0-1.09.455,2.357,2.357,0,0,0-.535,1.3h3.141v-.181a1.681,1.681,0,0,0-.406-1.165A1.456,1.456,0,0,0,49.277,10.211ZM56.41,8.547l.07.945a2.971,2.971,0,0,1,2.43-1.1A2.255,2.255,0,0,1,61.152,9.68a2.9,2.9,0,0,1,2.539-1.289,2.521,2.521,0,0,1,2.047.8,3.681,3.681,0,0,1,.672,2.41V17H64.145V11.609a1.61,1.61,0,0,0-.281-1.051,1.246,1.246,0,0,0-.992-.332,1.409,1.409,0,0,0-1.406.969l.008,5.8H59.215V11.617a1.59,1.59,0,0,0-.289-1.062,1.259,1.259,0,0,0-.984-.328,1.463,1.463,0,0,0-1.391.8V17H54.293V8.547ZM73.043,17a2.507,2.507,0,0,1-.227-.758,2.732,2.732,0,0,1-2.133.914,3,3,0,0,1-2.059-.719,2.312,2.312,0,0,1-.816-1.812,2.389,2.389,0,0,1,1-2.062,4.915,4.915,0,0,1,2.879-.727h1.039v-.484a1.393,1.393,0,0,0-.3-.937,1.183,1.183,0,0,0-.949-.352,1.345,1.345,0,0,0-.895.273.929.929,0,0,0-.324.75H68a2.268,2.268,0,0,1,.453-1.359,3,3,0,0,1,1.281-.98,4.669,4.669,0,0,1,1.859-.355,3.689,3.689,0,0,1,2.48.785,2.747,2.747,0,0,1,.918,2.207v3.664a4.041,4.041,0,0,0,.336,1.82V17Zm-1.867-1.57a1.945,1.945,0,0,0,.922-.223,1.462,1.462,0,0,0,.625-.6V13.156h-.844q-1.7,0-1.8,1.172l-.008.133a.9.9,0,0,0,.3.7A1.153,1.153,0,0,0,71.176,15.43ZM87.7,12.07H83.2v3.047H88.48V17H80.855V5.625h7.609v1.9H83.2v2.711h4.5Zm11.5-.5a6.867,6.867,0,0,1-.594,2.945,4.472,4.472,0,0,1-1.7,1.953,5.021,5.021,0,0,1-5.059.008,4.515,4.515,0,0,1-1.719-1.941,6.67,6.67,0,0,1-.617-2.9V11.07a6.831,6.831,0,0,1,.605-2.957,4.508,4.508,0,0,1,1.711-1.961,5.014,5.014,0,0,1,5.055,0,4.508,4.508,0,0,1,1.711,1.961,6.811,6.811,0,0,1,.605,2.949Zm-2.375-.516a4.787,4.787,0,0,0-.641-2.719,2.263,2.263,0,0,0-3.648-.012,4.732,4.732,0,0,0-.648,2.691v.555a4.847,4.847,0,0,0,.641,2.7,2.243,2.243,0,0,0,3.656.035,4.819,4.819,0,0,0,.641-2.7Zm13.406.516a6.853,6.853,0,0,1-.516,2.77,4.754,4.754,0,0,1-1.43,1.887l1.891,1.484-1.492,1.32-2.422-1.945a5.126,5.126,0,0,1-.859.07,4.732,4.732,0,0,1-2.523-.68,4.515,4.515,0,0,1-1.719-1.941,6.67,6.67,0,0,1-.617-2.9V11.07a6.831,6.831,0,0,1,.605-2.957,4.508,4.508,0,0,1,1.711-1.961,5.014,5.014,0,0,1,5.055,0,4.508,4.508,0,0,1,1.711,1.961,6.811,6.811,0,0,1,.605,2.949Zm-2.375-.516a4.787,4.787,0,0,0-.641-2.719,2.263,2.263,0,0,0-3.648-.012,4.732,4.732,0,0,0-.648,2.691v.555a4.847,4.847,0,0,0,.641,2.7,2.243,2.243,0,0,0,3.656.035,4.819,4.819,0,0,0,.641-2.7Z" transform="translate(570.667 3844)" fill="#12263f"/>
    <path id="Trazado_231265" data-name="Trazado 231265" d="M18.875,5.625l2.922,8.25L24.7,5.625h3.078V17H25.43V13.891l.234-5.367L22.594,17H20.984L17.922,8.531l.234,5.359V17H15.813V5.625Zm14.7,11.531a4.15,4.15,0,0,1-3.027-1.141,4.054,4.054,0,0,1-1.168-3.039v-.219a5.106,5.106,0,0,1,.492-2.277,3.612,3.612,0,0,1,1.395-1.547,3.914,3.914,0,0,1,2.059-.543,3.508,3.508,0,0,1,2.73,1.094,4.444,4.444,0,0,1,1,3.1v.922H31.664a2.1,2.1,0,0,0,.66,1.328,2,2,0,0,0,1.395.5,2.437,2.437,0,0,0,2.039-.945l1.109,1.242a3.389,3.389,0,0,1-1.375,1.121A4.511,4.511,0,0,1,33.57,17.156Zm-.258-6.945a1.411,1.411,0,0,0-1.09.455,2.357,2.357,0,0,0-.535,1.3h3.141v-.181a1.681,1.681,0,0,0-.406-1.165A1.456,1.456,0,0,0,33.313,10.211ZM33.516,5h2.461L33.813,7.422H31.977Zm7.516,1.469V8.547h1.445V10.2H41.031v4.219a1.007,1.007,0,0,0,.18.672.9.9,0,0,0,.688.2,3.6,3.6,0,0,0,.664-.055v1.711a4.648,4.648,0,0,1-1.367.2,2.156,2.156,0,0,1-2.422-2.4V10.2H37.539V8.547h1.234V6.469ZM43.148,12.7a5.013,5.013,0,0,1,.484-2.242A3.546,3.546,0,0,1,45.027,8.93a4.069,4.069,0,0,1,2.113-.539,3.849,3.849,0,0,1,2.793,1.047,4.2,4.2,0,0,1,1.207,2.844l.016.578A4.418,4.418,0,0,1,50.07,15.98a4.209,4.209,0,0,1-5.832,0,4.5,4.5,0,0,1-1.09-3.187Zm2.258.16a3.16,3.16,0,0,0,.453,1.843,1.628,1.628,0,0,0,2.578.008,3.457,3.457,0,0,0,.461-2.015,3.128,3.128,0,0,0-.461-1.831,1.5,1.5,0,0,0-1.3-.649,1.474,1.474,0,0,0-1.281.646A3.516,3.516,0,0,0,45.406,12.856Zm6.789-.145a5.094,5.094,0,0,1,.887-3.148,2.877,2.877,0,0,1,2.426-1.172,2.589,2.589,0,0,1,2.039.922V5h2.266V17H57.773l-.109-.9a2.657,2.657,0,0,1-2.172,1.055A2.869,2.869,0,0,1,53.1,15.98,5.258,5.258,0,0,1,52.2,12.711Zm2.258.168a3.337,3.337,0,0,0,.414,1.823,1.349,1.349,0,0,0,1.2.634,1.511,1.511,0,0,0,1.477-.884V11.111a1.489,1.489,0,0,0-1.461-.884Q54.453,10.227,54.453,12.879Zm6.758-.184a5.013,5.013,0,0,1,.484-2.242A3.546,3.546,0,0,1,63.09,8.93,4.069,4.069,0,0,1,65.2,8.391,3.849,3.849,0,0,1,68,9.438,4.2,4.2,0,0,1,69.2,12.281l.016.578a4.418,4.418,0,0,1-1.086,3.121,4.209,4.209,0,0,1-5.832,0,4.5,4.5,0,0,1-1.09-3.187Zm2.258.16a3.16,3.16,0,0,0,.453,1.843,1.628,1.628,0,0,0,2.578.008,3.457,3.457,0,0,0,.461-2.015A3.128,3.128,0,0,0,66.5,10.86a1.5,1.5,0,0,0-1.3-.649,1.474,1.474,0,0,0-1.281.646A3.516,3.516,0,0,0,63.469,12.856Zm13.617.137V17H74.742V5.625H79.18a5.134,5.134,0,0,1,2.254.469,3.454,3.454,0,0,1,1.5,1.332,3.714,3.714,0,0,1,.523,1.965,3.266,3.266,0,0,1-1.145,2.637,4.767,4.767,0,0,1-3.168.965Zm0-1.9H79.18a2.059,2.059,0,0,0,1.418-.437,1.591,1.591,0,0,0,.488-1.25,1.876,1.876,0,0,0-.492-1.352,1.839,1.839,0,0,0-1.359-.531H77.086Zm14.82.977h-4.5v3.047h5.281V17H85.063V5.625h7.609v1.9H87.406v2.711h4.5Zm4.5.922V17H94.063V5.625H98.5a5.134,5.134,0,0,1,2.254.469,3.454,3.454,0,0,1,1.5,1.332,3.714,3.714,0,0,1,.523,1.965,3.266,3.266,0,0,1-1.145,2.637,4.767,4.767,0,0,1-3.168.965Zm0-1.9H98.5a2.059,2.059,0,0,0,1.418-.437,1.591,1.591,0,0,0,.488-1.25,1.876,1.876,0,0,0-.492-1.352,1.839,1.839,0,0,0-1.359-.531H96.406Zm13.875,2.922a1.2,1.2,0,0,0-.469-1.02,6.148,6.148,0,0,0-1.687-.75,11.963,11.963,0,0,1-1.93-.777,3.153,3.153,0,0,1-1.937-2.82A2.747,2.747,0,0,1,104.777,7a3.389,3.389,0,0,1,1.492-1.129,5.616,5.616,0,0,1,2.184-.406,5.112,5.112,0,0,1,2.172.441,3.458,3.458,0,0,1,1.48,1.246,3.261,3.261,0,0,1,.527,1.828h-2.344A1.534,1.534,0,0,0,109.8,7.77a2.023,2.023,0,0,0-1.383-.434,2.162,2.162,0,0,0-1.336.363,1.146,1.146,0,0,0-.477.957,1.1,1.1,0,0,0,.559.93,6.311,6.311,0,0,0,1.645.7,7.106,7.106,0,0,1,2.914,1.492A2.972,2.972,0,0,1,112.633,14a2.737,2.737,0,0,1-1.117,2.316,4.891,4.891,0,0,1-3.008.84,5.808,5.808,0,0,1-2.391-.48,3.783,3.783,0,0,1-1.645-1.316,3.371,3.371,0,0,1-.566-1.937h2.352q0,1.883,2.25,1.883a2.189,2.189,0,0,0,1.3-.34A1.106,1.106,0,0,0,110.281,14.016Z" transform="translate(900.667 3843)" fill="#12263f"/>
    <g id="Grupo_159797" data-name="Grupo 159797" transform="translate(925.334 3427.667)">
      <g id="Grupo_159795" data-name="Grupo 159795" transform="translate(1.269 1.269)">
        <g id="Grupo_159774" data-name="Grupo 159774" transform="translate(25.376)">
          <path id="Trazado_225701" data-name="Trazado 225701" d="M64.14,3.538v1.9L61.6,6.075H21V3.538A2.545,2.545,0,0,1,23.538,1H61.6A2.545,2.545,0,0,1,64.14,3.538Z" transform="translate(-21 -1)" fill="#aab2bd"/>
        </g>
        <g id="Grupo_159775" data-name="Grupo 159775" transform="translate(30.896 48.215)">
          <path id="Trazado_225702" data-name="Trazado 225702" d="M60.433,39v5.075H30.819A12.675,12.675,0,0,0,25.35,39H60.433Z" transform="translate(-25.35 -39)" fill="#aab2bd"/>
        </g>
        <g id="Grupo_159776" data-name="Grupo 159776" transform="translate(55.828 53.29)">
          <path id="Trazado_225703" data-name="Trazado 225703" d="M52.613,43v5.075a2.545,2.545,0,0,1-2.538,2.538H47.538A2.545,2.545,0,0,1,45,48.075V43Z" transform="translate(-45 -43)" fill="#969faa"/>
        </g>
        <g id="Grupo_159777" data-name="Grupo 159777" transform="translate(45.677 5.075)">
          <path id="Trazado_225704" data-name="Trazado 225704" d="M57.3,5V37.989H52.226V27.839H42.075V37.989H37V5Z" transform="translate(-37 -5)" fill="#e6e9ed"/>
        </g>
        <g id="Grupo_159778" data-name="Grupo 159778" transform="translate(24.107 5.075)">
          <path id="Trazado_225705" data-name="Trazado 225705" d="M30.163,30.376a3.8,3.8,0,0,0,2.677-6.5,3.326,3.326,0,0,0-.317-.279,11.443,11.443,0,0,0,1.434-5.532A11.315,11.315,0,0,0,31.229,10.7L29.618,8.819A10.944,10.944,0,0,0,21.32,5H41.57V48.14H26.788a9.65,9.65,0,0,0-1.18-.495l-2.614-.952L20,45.6V42.633a1.273,1.273,0,0,1,.774-1.167,13.349,13.349,0,0,0,8.044-11.089h1.345Z" transform="translate(-20 -5)" fill="#ccd1d9"/>
        </g>
        <g id="Grupo_159779" data-name="Grupo 159779" transform="translate(71.054 24.107)">
          <path id="Trazado_225706" data-name="Trazado 225706" d="M62.075,21.269v7.613a1.273,1.273,0,0,1-1.269,1.269H57V20h3.806A1.273,1.273,0,0,1,62.075,21.269Z" transform="translate(-57 -20)" fill="#aab2bd"/>
        </g>
        <g id="Grupo_159780" data-name="Grupo 159780" transform="translate(65.978 3.806)">
          <path id="Trazado_225707" data-name="Trazado 225707" d="M58.075,34.452v20.3L53,53.484V5.269l2.538-.634L58.075,4V34.452Z" transform="translate(-53 -4)" fill="#ccd1d9"/>
        </g>
        <g id="Grupo_159781" data-name="Grupo 159781" transform="translate(55.828 38.064)">
          <path id="Trazado_225708" data-name="Trazado 225708" d="M50.075,31h5.075V41.151H45V31Z" transform="translate(-45 -31)" fill="#d3a06c"/>
        </g>
        <g id="Grupo_159782" data-name="Grupo 159782" transform="translate(45.677 38.064)">
          <path id="Trazado_225709" data-name="Trazado 225709" d="M42.075,31h5.075V41.151H37V31Z" transform="translate(-37 -31)" fill="#d3a06c"/>
        </g>
        <g id="Grupo_159783" data-name="Grupo 159783" transform="translate(50.753 27.914)">
          <path id="Trazado_225710" data-name="Trazado 225710" d="M46.075,23h5.075V33.151H41V23Z" transform="translate(-41 -23)" fill="#d3a06c"/>
        </g>
        <g id="Grupo_159784" data-name="Grupo 159784" transform="translate(2.538 5.075)">
          <path id="Trazado_225711" data-name="Trazado 225711" d="M6.806,22.763a3.842,3.842,0,0,0-2.373.825A11.331,11.331,0,0,1,5.728,10.7L7.339,8.819a10.938,10.938,0,0,1,13.2-2.665l.228.114.228-.114A11.073,11.073,0,0,1,25.839,5h.051a10.944,10.944,0,0,1,8.3,3.819L35.8,10.7a11.315,11.315,0,0,1,2.728,7.372A11.443,11.443,0,0,1,37.093,23.6a3.776,3.776,0,0,0-2.373-.837H33.452a5.578,5.578,0,0,0-3.806-5.075,3.516,3.516,0,0,1-2.411,3.337l-1.4.469V20.53A4.585,4.585,0,0,0,23.3,16.419l-2.538,2.538-2.538-2.538a4.585,4.585,0,0,0-2.538,4.111v.964l-1.4-.469a3.516,3.516,0,0,1-2.411-3.337,5.6,5.6,0,0,0-3.806,5.075Z" transform="translate(-3 -5)" fill="#b27946"/>
        </g>
        <g id="Grupo_159785" data-name="Grupo 159785" transform="translate(2.538 46.769)">
          <path id="Trazado_225712" data-name="Trazado 225712" d="M36.827,44.382a12.675,12.675,0,0,0-5.469-5.075,9.65,9.65,0,0,0-1.18-.495l-2.614-.952-1.726,7.791-5.075-5.075-5.075,5.075L13.963,37.86l-2.614.952A12.673,12.673,0,0,0,3,50.726v2.766a3.517,3.517,0,0,1,1.269-.228H5.538A2.545,2.545,0,0,1,8.075,55.8V46.919H33.452V55.8a2.545,2.545,0,0,1,2.538-2.538h1.269a3.517,3.517,0,0,1,1.269.228V50.726A12.656,12.656,0,0,0,36.827,44.382Z" transform="translate(-3 -37.86)" fill="#f57c22"/>
        </g>
        <g id="Grupo_159786" data-name="Grupo 159786" transform="translate(20.301 45.677)">
          <path id="Trazado_225713" data-name="Trazado 225713" d="M23.8,38.091l-1.726,7.791L17,40.806,20.806,37Z" transform="translate(-17 -37)" fill="#f57c22"/>
        </g>
        <g id="Grupo_159787" data-name="Grupo 159787" transform="translate(13.5 45.677)">
          <path id="Trazado_225714" data-name="Trazado 225714" d="M18.441,40.806l-5.075,5.075L11.64,38.091,14.634,37Z" transform="translate(-11.64 -37)" fill="#f57c22"/>
        </g>
        <g id="Grupo_159788" data-name="Grupo 159788" transform="translate(7.613 55.828)">
          <rect id="Rectngulo_44842" data-name="Rectngulo 44842" width="25" height="20" transform="translate(0.452 0.237)" fill="#d3a06c"/>
        </g>
        <g id="Grupo_159789" data-name="Grupo 159789" transform="translate(12.688 55.828)">
          <rect id="Rectngulo_44843" data-name="Rectngulo 44843" width="5" height="10" transform="translate(0.376 0.237)" fill="#b27946"/>
        </g>
        <g id="Grupo_159790" data-name="Grupo 159790" transform="translate(0 62.172)">
          <path id="Trazado_225715" data-name="Trazado 225715" d="M8.613,55.075v2.538a2.545,2.545,0,0,1-2.538,2.538H4.806A3.8,3.8,0,0,1,1,56.344V53.806a3.766,3.766,0,0,1,2.538-3.578A3.517,3.517,0,0,1,4.806,50H6.075a2.545,2.545,0,0,1,2.538,2.538Z" transform="translate(-1 -50)" fill="#f0d0b4"/>
        </g>
        <g id="Grupo_159791" data-name="Grupo 159791" transform="translate(32.989 62.172)">
          <path id="Trazado_225716" data-name="Trazado 225716" d="M29.538,50h1.269a3.517,3.517,0,0,1,1.269.228,3.766,3.766,0,0,1,2.538,3.578v2.538a3.8,3.8,0,0,1-3.806,3.806H29.538A2.545,2.545,0,0,1,27,57.613V52.538A2.545,2.545,0,0,1,29.538,50Z" transform="translate(-27 -50)" fill="#f0d0b4"/>
        </g>
        <g id="Grupo_159792" data-name="Grupo 159792" transform="translate(32.926 22.839)">
          <path id="Trazado_225717" data-name="Trazado 225717" d="M30.655,19.837a3.326,3.326,0,0,1,.317.279,3.8,3.8,0,0,1-2.677,6.5H26.95a9.793,9.793,0,0,0,.063-1.218V19h1.269A3.776,3.776,0,0,1,30.655,19.837Z" transform="translate(-26.95 -19)" fill="#f0d0b4"/>
        </g>
        <g id="Grupo_159793" data-name="Grupo 159793" transform="translate(7.613 16.495)">
          <path id="Trazado_225718" data-name="Trazado 225718" d="M32.376,20.547v6.192a9.794,9.794,0,0,1-.063,1.218,13.349,13.349,0,0,1-8.044,11.089,1.273,1.273,0,0,0-.774,1.167v2.969l-3.806,3.806-3.806-3.806V40.214a1.273,1.273,0,0,0-.774-1.167A13.355,13.355,0,0,1,7.063,27.957,9.794,9.794,0,0,1,7,26.739V20.344a5.6,5.6,0,0,1,3.806-5.075,3.516,3.516,0,0,0,2.411,3.337l1.4.469v-.964A4.585,4.585,0,0,1,17.151,14l2.538,2.538L22.226,14a4.585,4.585,0,0,1,2.538,4.111v.964l1.4-.469a3.516,3.516,0,0,0,2.411-3.337,5.578,5.578,0,0,1,3.806,5.075Z" transform="translate(-7 -14)" fill="#f0d0b4"/>
        </g>
        <g id="Grupo_159794" data-name="Grupo 159794" transform="translate(2.538 22.839)">
          <path id="Trazado_225719" data-name="Trazado 225719" d="M8.075,25.395a9.794,9.794,0,0,0,.063,1.218H6.781A3.812,3.812,0,0,1,3,22.819,3.8,3.8,0,0,1,6.806,19H8.075v6.395Z" transform="translate(-3 -19)" fill="#f0d0b4"/>
        </g>
      </g>
      <g id="Grupo_159796" data-name="Grupo 159796">
        <rect id="Rectngulo_44844" data-name="Rectngulo 44844" width="7" height="2" transform="translate(23.333 61.333)" fill="#12263f"/>
        <rect id="Rectngulo_44845" data-name="Rectngulo 44845" width="7" height="2" transform="translate(23.333 66.333)" fill="#12263f"/>
        <circle id="Elipse_6493" data-name="Elipse 6493" cx="1.5" cy="1.5" r="1.5" transform="translate(26.333 25.333)" fill="#12263f"/>
        <ellipse id="Elipse_6494" data-name="Elipse 6494" cx="1" cy="1.5" rx="1" ry="1.5" transform="translate(14.333 25.333)" fill="#12263f"/>
        <path id="Trazado_225720" data-name="Trazado 225720" d="M18.046,32.927a5.347,5.347,0,0,0,4.808-2.972l.133-.268-2.27-1.136-.133.268a2.837,2.837,0,0,1-5.075,0l-.133-.268-2.27,1.136.133.268A5.344,5.344,0,0,0,18.046,32.927Z" transform="translate(3.523 7.675)" fill="#12263f"/>
        <path id="Trazado_225721" data-name="Trazado 225721" d="M16.686,29.48l1.4-.7a2.538,2.538,0,0,0,1.136-3.4l-.567-1.136V22H16.119v2.538a1.272,1.272,0,0,0,.133.567l.7,1.4-1.4.7Z" transform="translate(4.181 5.914)" fill="#12263f"/>
        <path id="Trazado_225722" data-name="Trazado 225722" d="M76.129,24.107H73.591V3.45l-2.538.634V3.806A3.811,3.811,0,0,0,67.247,0H29.183a3.811,3.811,0,0,0-3.806,3.806V5.148A12.3,12.3,0,0,0,21.57,6.2,12.207,12.207,0,0,0,7.181,9.338L5.57,11.218A12.5,12.5,0,0,0,3.727,24.7a5.04,5.04,0,0,0,3.886,8.292h.216a14.625,14.625,0,0,0,8.662,10.987v2.082l-4.767,1.733A14,14,0,0,0,2.538,60.908v1.969A5.059,5.059,0,0,0,0,67.247v2.538A5.08,5.08,0,0,0,5.075,74.86H6.344a3.764,3.764,0,0,0,1.269-.233v4.04H35.527v-4.04a3.764,3.764,0,0,0,1.269.233h1.269a5.08,5.08,0,0,0,5.075-5.075V67.247a5.059,5.059,0,0,0-2.538-4.37V60.908a13.871,13.871,0,0,0-.969-5.08h16.2v3.806a3.811,3.811,0,0,0,3.806,3.806h2.538a3.811,3.811,0,0,0,3.806-3.806V55.828h1.113l6.5,1.625V36.8h2.538a2.54,2.54,0,0,0,2.538-2.538V26.645A2.54,2.54,0,0,0,76.129,24.107ZM27.914,3.806a1.269,1.269,0,0,1,1.269-1.269H67.247a1.269,1.269,0,0,1,1.269,1.269v.912l-1.427.357H27.914Zm3.5,43.985-4.767-1.733V43.976a14.627,14.627,0,0,0,8.662-10.987h.235A5.041,5.041,0,0,0,39.414,24.7,12.5,12.5,0,0,0,37.57,11.22L35.958,9.338a12.284,12.284,0,0,0-1.827-1.726H45.677v40.6H32.446C32.11,48.061,31.766,47.919,31.415,47.791ZM15.226,58.365h2.538v7.613H15.226Zm3.063-2.538,3.281-3.281,3.281,3.281Zm5.075-5.075,2.34-2.338,1.193.434L25.908,53.3Zm14.7-22.82a2.526,2.526,0,0,1-2.535,2.519V25.376A2.552,2.552,0,0,1,38.064,27.933ZM48.215,40.6h2.538V43.14H53.29V40.6h2.538v7.613H48.215Zm10.151-7.613V30.452H60.9v7.613H53.29V30.452h2.538v2.538Zm0,7.613H60.9V43.14h2.538V40.6h2.538v7.613H58.365Zm5.075-2.538V27.914H50.753V38.064H48.215V7.613H65.978V38.064ZM5.075,27.933A2.549,2.549,0,0,1,7.61,25.378v5.075H7.594A2.524,2.524,0,0,1,5.075,27.933Zm2.715-5.094H7.614a5.015,5.015,0,0,0-1.8.348A10.045,10.045,0,0,1,7.5,12.871L9.11,10.989A9.666,9.666,0,0,1,20.774,8.634l.8.4.8-.4A9.666,9.666,0,0,1,34.03,10.989l1.613,1.882A10.05,10.05,0,0,1,37.33,23.186a5.029,5.029,0,0,0-1.806-.348h-.175a6.812,6.812,0,0,0-4.494-5.009A1.252,1.252,0,0,0,29.713,18a1.267,1.267,0,0,0-.528,1.029,2.252,2.252,0,0,1-1.322,2.052,5.823,5.823,0,0,0-3.187-4.455,1.265,1.265,0,0,0-1.464.239L21.57,18.507l-1.641-1.641a1.269,1.269,0,0,0-1.464-.239,5.821,5.821,0,0,0-3.187,4.455,2.252,2.252,0,0,1-1.322-2.052,1.269,1.269,0,0,0-1.67-1.2A6.818,6.818,0,0,0,7.791,22.839Zm2.357,7.667V24.314a4.3,4.3,0,0,1,1.658-3.393,4.79,4.79,0,0,0,2.888,2.656l1.4.466a1.269,1.269,0,0,0,1.67-1.2v-.969a3.3,3.3,0,0,1,1.105-2.475l1.8,1.8a1.267,1.267,0,0,0,1.794,0l1.8-1.8a3.3,3.3,0,0,1,1.105,2.475v.969a1.269,1.269,0,0,0,1.67,1.205l1.4-.467a4.784,4.784,0,0,0,2.888-2.654,4.294,4.294,0,0,1,1.658,3.392v6.193a12.1,12.1,0,0,1-7.34,11.136,2.533,2.533,0,0,0-1.54,2.331l0,2.446L21.57,48.958,19.031,46.42l0-2.445a2.532,2.532,0,0,0-1.539-2.331A12.1,12.1,0,0,1,10.148,30.506Zm7.288,17.908,2.34,2.338L17.232,53.3l-.988-4.448ZM5.075,60.908a11.455,11.455,0,0,1,7.518-10.733l1.245-.453L15.2,55.828H7.613v6.578a3.764,3.764,0,0,0-1.269-.233H5.075ZM6.344,72.322H5.075a2.54,2.54,0,0,1-2.538-2.538V67.247A2.54,2.54,0,0,1,5.075,64.71H6.344a1.269,1.269,0,0,1,1.269,1.269v1.269H5.075v2.538H7.613v1.269A1.269,1.269,0,0,1,6.344,72.322Zm26.645,3.806H10.151V58.365h2.538V68.516H20.3V58.365H32.989V76.129ZM40.6,69.785a2.54,2.54,0,0,1-2.538,2.538H36.8a1.269,1.269,0,0,1-1.269-1.269V69.785h2.538V67.247H35.527V65.978A1.269,1.269,0,0,1,36.8,64.71h1.269A2.54,2.54,0,0,1,40.6,67.247ZM36.8,62.172a3.764,3.764,0,0,0-1.269.233V55.828H27.944L29.3,49.722l1.245.453a11.455,11.455,0,0,1,7.519,10.733v1.264Zm26.645-2.538A1.269,1.269,0,0,1,62.172,60.9H59.634a1.269,1.269,0,0,1-1.269-1.269V55.828h5.075ZM38.317,53.29a14.028,14.028,0,0,0-2.12-2.538H65.978V53.29Zm32.737.912-2.538-.634V7.335L71.054,6.7Zm5.075-19.944H73.591V26.645h2.538Z" fill="#12263f"/>
      </g>
    </g>
    <g id="Grupo_159820" data-name="Grupo 159820" transform="translate(925.667 3757.486)">
      <g id="Grupo_159818" data-name="Grupo 159818" transform="translate(1.263 1.263)">
        <g id="Grupo_159798" data-name="Grupo 159798" transform="translate(0 60.645)">
          <path id="Trazado_225723" data-name="Trazado 225723" d="M6.054,49h5.054a2.534,2.534,0,0,1,2.527,2.527v7.581a2.534,2.534,0,0,1-2.527,2.527H3.527A2.534,2.534,0,0,1,1,59.108V51.527A2.534,2.534,0,0,1,3.527,49Z" transform="translate(-1 -49)" fill="#d3a06c"/>
        </g>
        <g id="Grupo_159799" data-name="Grupo 159799" transform="translate(12.634 60.645)">
          <path id="Trazado_225724" data-name="Trazado 225724" d="M21.322,61.634h-7.8A2.534,2.534,0,0,1,11,59.108V51.527A2.534,2.534,0,0,1,13.527,49h5.054v5.054a2.534,2.534,0,0,0,2.527,2.527v3.79a3.5,3.5,0,0,0,.227,1.263Z" transform="translate(-11 -49)" fill="#d3a06c"/>
        </g>
        <g id="Grupo_159800" data-name="Grupo 159800" transform="translate(2.527 48.011)">
          <path id="Trazado_225725" data-name="Trazado 225725" d="M8.054,39h5.054a2.534,2.534,0,0,1,2.527,2.527v7.581a2.534,2.534,0,0,1-2.527,2.527H5.527A2.534,2.534,0,0,1,3,49.108V41.527A2.534,2.534,0,0,1,5.527,39Z" transform="translate(-3 -39)" fill="#d3a06c"/>
        </g>
        <g id="Grupo_159801" data-name="Grupo 159801">
          <path id="Trazado_225726" data-name="Trazado 225726" d="M16.161,1A15.1,15.1,0,0,1,27.684,6.319a2.527,2.527,0,0,0-1.415,2.262H23.742a2.534,2.534,0,0,0-2.527,2.527V30.463A15.167,15.167,0,1,1,16.161,1Z" transform="translate(-1 -1)" fill="#b0c0d2"/>
        </g>
        <g id="Grupo_159802" data-name="Grupo 159802" transform="translate(65.699 7.581)">
          <path id="Trazado_225727" data-name="Trazado 225727" d="M58.054,9.527v2.527H53V7h2.527A2.534,2.534,0,0,1,58.054,9.527Z" transform="translate(-53 -7)" fill="#fed935"/>
        </g>
        <g id="Grupo_159803" data-name="Grupo 159803" transform="translate(37.903 7.581)">
          <rect id="Rectngulo_44846" data-name="Rectngulo 44846" width="15" height="5" transform="translate(0.167 0.156)" fill="#fed935"/>
        </g>
        <g id="Grupo_159804" data-name="Grupo 159804" transform="translate(20.215 7.581)">
          <path id="Trazado_225728" data-name="Trazado 225728" d="M22.054,7v5.054H17V9.527A2.534,2.534,0,0,1,19.527,7Z" transform="translate(-17 -7)" fill="#fed935"/>
        </g>
        <g id="Grupo_159805" data-name="Grupo 159805" transform="translate(20.215 12.634)">
          <path id="Trazado_225729" data-name="Trazado 225729" d="M22.559,32.9l-.9,8.035-1.39-1.39a2.535,2.535,0,0,0-1.794-.745H17V11H67.538V38.8H66.059a2.535,2.535,0,0,0-1.794.745l-1.39,1.39-.9-8.035a7.586,7.586,0,0,0-7.53-6.734H30.089A7.586,7.586,0,0,0,22.559,32.9Z" transform="translate(-17 -11)" fill="#fed935"/>
        </g>
        <g id="Grupo_159806" data-name="Grupo 159806" transform="translate(53.064 5.054)">
          <path id="Trazado_225730" data-name="Trazado 225730" d="M55.634,7.527v5.054H43V7.527A2.534,2.534,0,0,1,45.527,5h7.581A2.534,2.534,0,0,1,55.634,7.527Z" transform="translate(-43 -5)" fill="#aab2bd"/>
        </g>
        <g id="Grupo_159807" data-name="Grupo 159807" transform="translate(25.269 5.054)">
          <path id="Trazado_225731" data-name="Trazado 225731" d="M33.634,7.527v5.054H21V7.527a2.527,2.527,0,0,1,1.415-2.262A2.367,2.367,0,0,1,23.527,5h7.581A2.534,2.534,0,0,1,33.634,7.527Z" transform="translate(-21 -5)" fill="#aab2bd"/>
        </g>
        <g id="Grupo_159808" data-name="Grupo 159808" transform="translate(66.091 40.43)">
          <path id="Trazado_225732" data-name="Trazado 225732" d="M63.026,35.527v2.527A2.534,2.534,0,0,1,60.5,40.581h-6.57l-.619-5.445,1.39-1.39A2.535,2.535,0,0,1,56.494,33H60.5A2.534,2.534,0,0,1,63.026,35.527Z" transform="translate(-53.31 -33)" fill="#aab2bd"/>
        </g>
        <g id="Grupo_159809" data-name="Grupo 159809" transform="translate(15.161 40.43)">
          <path id="Trazado_225733" data-name="Trazado 225733" d="M19.532,33a2.535,2.535,0,0,1,1.794.745l1.39,1.39L22.1,40.581h-6.57A2.534,2.534,0,0,1,13,38.054V35.527A2.534,2.534,0,0,1,15.527,33h4.005Z" transform="translate(-13 -33)" fill="#aab2bd"/>
        </g>
        <g id="Grupo_159810" data-name="Grupo 159810" transform="translate(20.215 27.796)">
          <path id="Trazado_225734" data-name="Trazado 225734" d="M63.545,43.657l-.051-.442-.619-5.445-.9-8.035A7.586,7.586,0,0,0,54.448,23H30.089a7.586,7.586,0,0,0-7.53,6.734l-.9,8.035-.619,5.445-.051.442A6.319,6.319,0,0,0,17,49.532v8.844H67.538V49.532A6.319,6.319,0,0,0,63.545,43.657Z" transform="translate(-17 -23)" fill="#fed935"/>
        </g>
        <g id="Grupo_159811" data-name="Grupo 159811" transform="translate(58.118 68.226)">
          <path id="Trazado_225735" data-name="Trazado 225735" d="M57.108,55v3.79a3.785,3.785,0,0,1-3.79,3.79H50.79A3.785,3.785,0,0,1,47,58.79V55Z" transform="translate(-47 -55)" fill="#969faa"/>
        </g>
        <g id="Grupo_159812" data-name="Grupo 159812" transform="translate(22.742 68.226)">
          <path id="Trazado_225736" data-name="Trazado 225736" d="M29.108,55v3.79a3.785,3.785,0,0,1-3.79,3.79H22.79a3.75,3.75,0,0,1-3.563-2.527A3.5,3.5,0,0,1,19,58.79V55Z" transform="translate(-19 -55)" fill="#969faa"/>
        </g>
        <g id="Grupo_159813" data-name="Grupo 159813" transform="translate(35.376 58.118)">
          <path id="Trazado_225737" data-name="Trazado 225737" d="M46.688,47l2.527,5.054H29L31.527,47Z" transform="translate(-29 -47)" fill="#aab2bd"/>
        </g>
        <g id="Grupo_159814" data-name="Grupo 159814" transform="translate(20.215 63.172)">
          <path id="Trazado_225738" data-name="Trazado 225738" d="M67.538,51v2.527a2.534,2.534,0,0,1-2.527,2.527H19.527A2.534,2.534,0,0,1,17,53.527V51H67.538Z" transform="translate(-17 -51)" fill="#ccd1d9"/>
        </g>
        <g id="Grupo_159815" data-name="Grupo 159815" transform="translate(60.645 53.064)">
          <circle id="Elipse_6495" data-name="Elipse 6495" cx="2.5" cy="2.5" r="2.5" transform="translate(0.425 -0.328)" fill="#fff"/>
        </g>
        <g id="Grupo_159816" data-name="Grupo 159816" transform="translate(25.269 53.064)">
          <circle id="Elipse_6496" data-name="Elipse 6496" cx="2.5" cy="2.5" r="2.5" transform="translate(-0.199 -0.328)" fill="#fff"/>
        </g>
        <g id="Grupo_159817" data-name="Grupo 159817" transform="translate(29.337 32.849)">
          <path id="Trazado_225739" data-name="Trazado 225739" d="M28.238,27H52.5a2.538,2.538,0,0,1,2.514,2.236l1.5,12.925H24.22l1.5-12.925A2.538,2.538,0,0,1,28.238,27Z" transform="translate(-24.22 -27)" fill="#b0c0d2"/>
        </g>
      </g>
      <g id="Grupo_159819" data-name="Grupo 159819">
        <path id="Trazado_225740" data-name="Trazado 225740" d="M51.79,42a3.79,3.79,0,1,0,3.79,3.79A3.795,3.795,0,0,0,51.79,42Zm0,5.054a1.263,1.263,0,1,1,1.263-1.263A1.264,1.264,0,0,1,51.79,47.054Z" transform="translate(12.645 11.064)" fill="#12263f"/>
        <path id="Trazado_225741" data-name="Trazado 225741" d="M23.79,42a3.79,3.79,0,1,0,3.79,3.79A3.795,3.795,0,0,0,23.79,42Zm0,5.054a1.263,1.263,0,1,1,1.263-1.263A1.264,1.264,0,0,1,23.79,47.054Z" transform="translate(5.269 11.064)" fill="#12263f"/>
        <path id="Trazado_225742" data-name="Trazado 225742" d="M74.543,40.43H73.279V11.371a3.8,3.8,0,0,0-3.79-3.79h-1.5a3.785,3.785,0,0,0-3.558-2.527H56.855A3.785,3.785,0,0,0,53.3,7.581H40.2A3.785,3.785,0,0,0,36.64,5.054H29.059a3.708,3.708,0,0,0-.744.076,16.424,16.424,0,1,0-8.1,27.269V40.43H18.952a3.8,3.8,0,0,0-3.79,3.79v2.527a3.741,3.741,0,0,0,.4,1.666,3.741,3.741,0,0,0-1.666-.4H6.317a3.8,3.8,0,0,0-3.79,3.79v7.581a3.77,3.77,0,0,0,.278,1.41A3.783,3.783,0,0,0,0,64.435v7.581a3.8,3.8,0,0,0,3.79,3.79h7.581a3.766,3.766,0,0,0,2.527-.985,3.76,3.76,0,0,0,2.527.985h7.02A5.037,5.037,0,0,0,27.8,78.333h2.527a5.059,5.059,0,0,0,5.054-5.054V70.753H58.118v2.527a5.059,5.059,0,0,0,5.054,5.054H65.7a5.059,5.059,0,0,0,5.054-5.054V70.52a3.785,3.785,0,0,0,2.527-3.558V55.591a7.542,7.542,0,0,0-1.946-5.054h3.209a3.8,3.8,0,0,0,3.79-3.79V44.22A3.8,3.8,0,0,0,74.543,40.43Zm-3.79-29.059v1.263H68.226V10.108h1.263A1.264,1.264,0,0,1,70.753,11.371Zm-13.9-3.79h7.581A1.264,1.264,0,0,1,65.7,8.844v3.79H55.591V8.844A1.264,1.264,0,0,1,56.855,7.581Zm-3.79,5.054H40.43V10.108H53.064ZM36.64,7.581A1.264,1.264,0,0,1,37.9,8.844v3.79H27.8V8.844a1.264,1.264,0,0,1,1.263-1.263ZM25.269,12.634H22.742V11.371a1.264,1.264,0,0,1,1.263-1.263h1.263ZM17.688,30.263V27.8H15.161v2.462A13.839,13.839,0,0,1,7.538,27.1l1.74-1.74L7.491,23.572l-1.74,1.74a13.83,13.83,0,0,1-3.16-7.624H5.054V15.161H2.591a13.839,13.839,0,0,1,3.16-7.624l1.74,1.74L9.277,7.491l-1.74-1.74a13.83,13.83,0,0,1,7.624-3.16V5.054h2.527V2.6a13.865,13.865,0,0,1,8.431,3.886,3.781,3.781,0,0,0-.618,1.1h-1.5a3.8,3.8,0,0,0-3.79,3.79v18.42A13.794,13.794,0,0,1,17.688,30.263Zm5.054-15.1H70.753V40.43h-.217a3.756,3.756,0,0,0-2.207.721l-.617-5.5a8.839,8.839,0,0,0-8.79-7.857H34.573a8.838,8.838,0,0,0-8.79,7.859l-.617,5.5a3.748,3.748,0,0,0-2.207-.723h-.217ZM70.753,63.172H57.636l-2.527-5.054H38.386l-2.527,5.054H22.742V55.591A5.059,5.059,0,0,1,27.8,50.538H65.7a5.059,5.059,0,0,1,5.054,5.054Zm-15.942,0H38.684l1.263-2.527h13.6ZM17.285,50.135a3.741,3.741,0,0,0,1.666.4h3.209a7.542,7.542,0,0,0-1.946,5.054v5.054H17.456a3.748,3.748,0,0,0,.232-1.263V51.8A3.741,3.741,0,0,0,17.285,50.135Zm46.732-2.124L62.64,36.2a3.789,3.789,0,0,0-3.764-3.352H34.618A3.788,3.788,0,0,0,30.854,36.2L29.477,48.011H27.8a7.459,7.459,0,0,0-.862.053l1.361-12.128a6.313,6.313,0,0,1,6.278-5.613H58.921A6.312,6.312,0,0,1,65.2,35.935l1.361,12.128a7.712,7.712,0,0,0-.86-.052Zm-2.543,0H32.021l1.343-11.518a1.264,1.264,0,0,1,1.255-1.117H58.876a1.262,1.262,0,0,1,1.255,1.118ZM17.688,44.22a1.264,1.264,0,0,1,1.263-1.263h4.008a1.268,1.268,0,0,1,.893.37l.961.961L24.4,48.011H18.952a1.264,1.264,0,0,1-1.263-1.263ZM5.054,51.8a1.264,1.264,0,0,1,1.263-1.263H7.581v5.054h2.527V50.538H13.9A1.264,1.264,0,0,1,15.161,51.8v7.581A1.264,1.264,0,0,1,13.9,60.645H6.317a1.264,1.264,0,0,1-1.263-1.263Zm6.317,21.478H3.79a1.264,1.264,0,0,1-1.263-1.263V64.435A1.264,1.264,0,0,1,3.79,63.172H5.054v5.054H7.581V63.172h3.79a1.264,1.264,0,0,1,1.263,1.263v7.581A1.264,1.264,0,0,1,11.371,73.279Zm5.054,0a1.264,1.264,0,0,1-1.263-1.263V64.435a1.264,1.264,0,0,1,1.263-1.263h3.79v3.79a3.785,3.785,0,0,0,2.527,3.558v2.759Zm16.425,0a2.529,2.529,0,0,1-2.527,2.527H27.8a2.529,2.529,0,0,1-2.527-2.527V70.753h7.581ZM65.7,75.806H63.172a2.529,2.529,0,0,1-2.527-2.527V70.753h7.581v2.527A2.529,2.529,0,0,1,65.7,75.806Zm3.79-7.581H24.005a1.264,1.264,0,0,1-1.263-1.263V65.7H70.753v1.263A1.264,1.264,0,0,1,69.489,68.226Zm6.317-21.478a1.264,1.264,0,0,1-1.263,1.263H69.1l-.418-3.722.961-.961a1.275,1.275,0,0,1,.895-.37h4.008a1.264,1.264,0,0,1,1.263,1.263Z" fill="#12263f"/>
        <rect id="Rectngulo_44847" data-name="Rectngulo 44847" width="10.72" height="2.527" transform="translate(34.482 44.591) rotate(-45)" fill="#12263f"/>
        <rect id="Rectngulo_44848" data-name="Rectngulo 44848" width="10.72" height="2.527" transform="translate(42.063 44.591) rotate(-45)" fill="#12263f"/>
        <rect id="Rectngulo_44849" data-name="Rectngulo 44849" width="10.72" height="2.527" transform="translate(49.643 44.591) rotate(-45)" fill="#12263f"/>
        <path id="Trazado_225743" data-name="Trazado 225743" d="M13.054,13.581H8v2.527h7.581V6H13.054Z" transform="translate(2.108 1.581)" fill="#12263f"/>
      </g>
    </g>
    <g id="Grupo_159835" data-name="Grupo 159835" transform="translate(595.5 3757.486)">
      <g id="Grupo_159833" data-name="Grupo 159833" transform="translate(1.263 1.263)">
        <g id="Grupo_159821" data-name="Grupo 159821" transform="translate(0 40.43)">
          <rect id="Rectngulo_44850" data-name="Rectngulo 44850" width="38" height="35" transform="translate(-0.263 0.306)" fill="#d3a06c"/>
        </g>
        <g id="Grupo_159822" data-name="Grupo 159822" transform="translate(5.054 40.43)">
          <path id="Trazado_225744" data-name="Trazado 225744" d="M15.108,45.634v2.527L12.581,46.9l-2.527,1.263L7.527,46.9,5,48.161V33H15.108Z" transform="translate(-5 -33)" fill="#b27946"/>
        </g>
        <g id="Grupo_159823" data-name="Grupo 159823" transform="translate(60.645 13.898)">
          <rect id="Rectngulo_44851" data-name="Rectngulo 44851" width="15" height="18" transform="translate(0.091 -0.162)" fill="#fda829"/>
        </g>
        <g id="Grupo_159824" data-name="Grupo 159824" transform="translate(25.269)">
          <path id="Trazado_225745" data-name="Trazado 225745" d="M43.742,4.79V6.054H21V4.79A3.785,3.785,0,0,1,24.79,1H39.952A3.785,3.785,0,0,1,43.742,4.79Z" transform="translate(-21 -1)" fill="#969faa"/>
        </g>
        <g id="Grupo_159825" data-name="Grupo 159825" transform="translate(25.269 32.849)">
          <path id="Trazado_225746" data-name="Trazado 225746" d="M43.742,29.527v3.79a3.785,3.785,0,0,1-3.79,3.79H24.79a3.75,3.75,0,0,1-3.563-2.527A3.5,3.5,0,0,1,21,33.317v-3.79h2.527A2.534,2.534,0,0,0,26.054,27H43.742Z" transform="translate(-21 -27)" fill="#969faa"/>
        </g>
        <g id="Grupo_159826" data-name="Grupo 159826" transform="translate(25.269 5.054)">
          <path id="Trazado_225747" data-name="Trazado 225747" d="M21,15.108V5H43.742v5.054H34.9a1.267,1.267,0,0,0-1.263,1.263,3.785,3.785,0,0,0,3.79,3.79h6.317V32.8H26.054a2.545,2.545,0,0,0-2.527-2.527,2.534,2.534,0,0,0,2.527-2.527,2.545,2.545,0,0,0-2.527-2.527,2.534,2.534,0,0,0,2.527-2.527,2.545,2.545,0,0,0-2.527-2.527,2.534,2.534,0,0,0,2.527-2.527,2.545,2.545,0,0,0-2.527-2.527Z" transform="translate(-21 -5)" fill="#fda829"/>
        </g>
        <g id="Grupo_159827" data-name="Grupo 159827" transform="translate(37.903 10.108)">
          <path id="Trazado_225748" data-name="Trazado 225748" d="M53.742,12.79V30.478l-3.917,2.35a10.066,10.066,0,0,1-5.205,1.44H41.108V14.054H34.79A3.785,3.785,0,0,1,31,10.263,1.267,1.267,0,0,1,32.263,9H44.62a10.066,10.066,0,0,1,5.205,1.44Z" transform="translate(-31 -9)" fill="#f0d0b4"/>
        </g>
        <g id="Grupo_159828" data-name="Grupo 159828" transform="translate(20.215 30.323)">
          <path id="Trazado_225749" data-name="Trazado 225749" d="M26.362,25.745a2.47,2.47,0,0,1,.745,1.781,2.534,2.534,0,0,1-2.527,2.527H19.527A2.545,2.545,0,0,1,17,27.527,2.534,2.534,0,0,1,19.527,25h5.054A2.47,2.47,0,0,1,26.362,25.745Z" transform="translate(-17 -25)" fill="#f0d0b4"/>
        </g>
        <g id="Grupo_159829" data-name="Grupo 159829" transform="translate(20.215 15.161)">
          <path id="Trazado_225750" data-name="Trazado 225750" d="M26.362,13.745a2.47,2.47,0,0,1,.745,1.781,2.534,2.534,0,0,1-2.527,2.527H19.527A2.545,2.545,0,0,1,17,15.527,2.534,2.534,0,0,1,19.527,13h5.054A2.47,2.47,0,0,1,26.362,13.745Z" transform="translate(-17 -13)" fill="#f0d0b4"/>
        </g>
        <g id="Grupo_159830" data-name="Grupo 159830" transform="translate(20.215 20.215)">
          <path id="Trazado_225751" data-name="Trazado 225751" d="M26.362,17.745a2.47,2.47,0,0,1,.745,1.781,2.534,2.534,0,0,1-2.527,2.527H19.527A2.545,2.545,0,0,1,17,19.527,2.534,2.534,0,0,1,19.527,17h5.054A2.47,2.47,0,0,1,26.362,17.745Z" transform="translate(-17 -17)" fill="#f0d0b4"/>
        </g>
        <g id="Grupo_159831" data-name="Grupo 159831" transform="translate(20.215 25.269)">
          <path id="Trazado_225752" data-name="Trazado 225752" d="M26.362,21.745a2.47,2.47,0,0,1,.745,1.781,2.534,2.534,0,0,1-2.527,2.527H19.527A2.545,2.545,0,0,1,17,23.527,2.534,2.534,0,0,1,19.527,21h5.054A2.47,2.47,0,0,1,26.362,21.745Z" transform="translate(-17 -21)" fill="#f0d0b4"/>
        </g>
        <g id="Grupo_159832" data-name="Grupo 159832" transform="translate(35.376 20.215)">
          <rect id="Rectngulo_44852" data-name="Rectngulo 44852" width="7" height="8" transform="translate(0.36 -0.479)" fill="#fff"/>
        </g>
      </g>
      <g id="Grupo_159834" data-name="Grupo 159834">
        <path id="Trazado_225753" data-name="Trazado 225753" d="M62.259,13.9l-3.616-2.169a11.366,11.366,0,0,0-5.851-1.621H50.538V5.054A5.059,5.059,0,0,0,45.484,0H30.323a5.059,5.059,0,0,0-5.054,5.054V15.161H24.005a3.774,3.774,0,0,0-2.8,6.317,3.732,3.732,0,0,0,0,5.054,3.732,3.732,0,0,0,0,5.054,3.774,3.774,0,0,0,2.8,6.317h1.263V40.43H0v37.9H40.43V45.484h5.054a5.059,5.059,0,0,0,5.054-5.054V37.9h2.254a11.358,11.358,0,0,0,5.85-1.621l3.617-2.169H78.333V13.9ZM30.323,2.527H45.484a2.529,2.529,0,0,1,2.527,2.527H27.8A2.529,2.529,0,0,1,30.323,2.527ZM27.8,7.581H48.011v2.527H40.43A2.529,2.529,0,0,0,37.9,12.634a5.059,5.059,0,0,0,5.054,5.054h5.054V32.849H32.617a3.755,3.755,0,0,0-.753-1.263,3.732,3.732,0,0,0,0-5.054,3.732,3.732,0,0,0,0-5.054,3.774,3.774,0,0,0-2.8-6.317H27.8ZM22.742,29.059A1.266,1.266,0,0,1,24.005,27.8h5.054a1.263,1.263,0,0,1,0,2.527H24.005A1.266,1.266,0,0,1,22.742,29.059Zm0-5.054a1.266,1.266,0,0,1,1.263-1.263h5.054a1.263,1.263,0,0,1,0,2.527H24.005A1.266,1.266,0,0,1,22.742,24.005Zm1.263-6.317h5.054a1.263,1.263,0,0,1,0,2.527H24.005a1.263,1.263,0,1,1,0-2.527ZM22.742,34.113a1.266,1.266,0,0,1,1.263-1.263h5.054a1.263,1.263,0,0,1,0,2.527H24.005A1.266,1.266,0,0,1,22.742,34.113ZM7.581,42.957h7.581V54.811L13.9,54.179l-2.527,1.263L8.844,54.179l-1.263.632ZM37.9,75.806H2.527V42.957H5.054V58.9L8.844,57l2.527,1.263L13.9,57l3.79,1.9V42.957h8.283a5.037,5.037,0,0,0,4.351,2.527H37.9Zm7.581-32.849H30.323A2.529,2.529,0,0,1,27.8,40.43V37.9h1.263a3.785,3.785,0,0,0,3.558-2.527H48.011V40.43A2.529,2.529,0,0,1,45.484,42.957Zm11.857-8.842a8.835,8.835,0,0,1-4.55,1.261H50.538V32.849a4.916,4.916,0,0,1,3.939-4.806l1.362-.272-.5-2.478-1.362.272a7.38,7.38,0,0,0-3.444,1.714V19.543a9.749,9.749,0,0,0,5.818,1.936h1.762V18.952H56.356a7.232,7.232,0,0,1-6.03-3.228l-.375-.562H42.957a2.529,2.529,0,0,1-2.527-2.527H52.792a8.835,8.835,0,0,1,4.55,1.261l3.3,1.981V32.134Zm18.465-2.529H63.172V16.425H75.806Z" fill="#12263f"/>
        <rect id="Rectngulo_44853" data-name="Rectngulo 44853" width="5" height="2" transform="translate(35 38)" fill="#12263f"/>
        <path id="Trazado_225754" data-name="Trazado 225754" d="M28,26.108H38.108V16H28Zm2.527-7.581h5.054v5.054H30.527Z" transform="translate(7.376 4.215)" fill="#12263f"/>
        <rect id="Rectngulo_44854" data-name="Rectngulo 44854" width="5" height="3" transform="translate(30 10)" fill="#12263f"/>
        <rect id="Rectngulo_44855" data-name="Rectngulo 44855" width="15" height="3" transform="translate(20 48)" fill="#12263f"/>
        <rect id="Rectngulo_44856" data-name="Rectngulo 44856" width="3" height="3" transform="translate(20 53)" fill="#12263f"/>
        <rect id="Rectngulo_44857" data-name="Rectngulo 44857" width="10" height="3" transform="translate(25 53)" fill="#12263f"/>
        <rect id="Rectngulo_44858" data-name="Rectngulo 44858" width="2" height="2" transform="translate(28 71)" fill="#12263f"/>
        <rect id="Rectngulo_44859" data-name="Rectngulo 44859" width="2" height="2" transform="translate(23 71)" fill="#12263f"/>
        <rect id="Rectngulo_44860" data-name="Rectngulo 44860" width="2" height="2" transform="translate(33 71)" fill="#12263f"/>
        <path id="Trazado_225755" data-name="Trazado 225755" d="M48.054,43.054h2.527a2.529,2.529,0,0,1,2.527,2.527h2.527a5.059,5.059,0,0,0-5.054-5.054V38H48.054v2.527a5.054,5.054,0,0,0,0,10.108h2.527a2.527,2.527,0,1,1,0,5.054H48.054a2.529,2.529,0,0,1-2.527-2.527H43a5.059,5.059,0,0,0,5.054,5.054v2.527h2.527V58.215a5.054,5.054,0,0,0,0-10.108H48.054a2.527,2.527,0,0,1,0-5.054Z" transform="translate(11.328 10.011)" fill="#12263f"/>
        <path id="Trazado_225756" data-name="Trazado 225756" d="M9.581,22.688H7.054a2.529,2.529,0,0,1-2.527-2.527H2a5.059,5.059,0,0,0,5.054,5.054v2.527H9.581V25.215a5.054,5.054,0,0,0,0-10.108H7.054a2.527,2.527,0,0,1,0-5.054H9.581a2.529,2.529,0,0,1,2.527,2.527h2.527A5.059,5.059,0,0,0,9.581,7.527V5H7.054V7.527a5.054,5.054,0,0,0,0,10.108H9.581a2.527,2.527,0,1,1,0,5.054Z" transform="translate(0.527 1.317)" fill="#12263f"/>
      </g>
    </g>
    <g id="Grupo_159845" data-name="Grupo 159845" transform="translate(594.334 3379.99)">
      <g id="Grupo_159836" data-name="Grupo 159836" transform="translate(1 68.45)">
        <path id="Trazado_225757" data-name="Trazado 225757" d="M85.012,210.4V166.32H8.73V210.4H85.012" transform="translate(-7.538 -165.128)" fill="#b0c0d2"/>
        <path id="Trazado_225758" data-name="Trazado 225758" d="M78.473,205.055H2.192A1.192,1.192,0,0,1,1,203.863v-44.08a1.192,1.192,0,0,1,1.192-1.192H78.475a1.192,1.192,0,0,1,1.192,1.192v44.08A1.194,1.194,0,0,1,78.473,205.055ZM3.383,202.67h73.9v-41.7H3.383Z" transform="translate(-1 -158.59)" fill="#12263f"/>
      </g>
      <g id="Grupo_159837" data-name="Grupo 159837" transform="translate(1 52.01)">
        <path id="Trazado_225759" data-name="Trazado 225759" d="M85.012,76.18V59.74H8.73V76.18H85.012" transform="translate(-7.538 -58.548)" fill="#eaf3f2"/>
        <path id="Trazado_225760" data-name="Trazado 225760" d="M78.473,70.834H2.192A1.192,1.192,0,0,1,1,69.642V53.2A1.192,1.192,0,0,1,2.192,52.01H78.475A1.192,1.192,0,0,1,79.667,53.2v16.44A1.194,1.194,0,0,1,78.473,70.834ZM3.383,68.45h73.9V54.395H3.383Z" transform="translate(-1 -52.01)" fill="#12263f"/>
      </g>
      <g id="Grupo_159838" data-name="Grupo 159838" transform="translate(12.285 82.93)">
        <path id="Trazado_225761" data-name="Trazado 225761" d="M135.123,283.69l-8.13-.71a.51.51,0,0,1-.45-.389,18.233,18.233,0,0,0-2.047-4.93.508.508,0,0,1,.045-.592l5.251-6.255a.525.525,0,0,0-.031-.71l-4.043-4.043a.525.525,0,0,0-.71-.031l-6.255,5.251a.509.509,0,0,1-.592.045,18.253,18.253,0,0,0-4.93-2.047.511.511,0,0,1-.389-.45l-.71-8.13a.526.526,0,0,0-.524-.48h-5.716a.527.527,0,0,0-.524.48l-.71,8.13a.511.511,0,0,1-.389.45,18.253,18.253,0,0,0-4.93,2.047.509.509,0,0,1-.592-.045l-6.255-5.251a.525.525,0,0,0-.71.031l-4.043,4.043a.525.525,0,0,0-.031.71l5.251,6.255a.509.509,0,0,1,.045.592,18.2,18.2,0,0,0-2.047,4.93.51.51,0,0,1-.45.389l-8.138.71a.526.526,0,0,0-.48.524v5.6H135.6v-5.6A.527.527,0,0,0,135.123,283.69Z" transform="translate(-80.698 -259.025)" fill="#fddd7b"/>
        <path id="Trazado_225762" data-name="Trazado 225762" d="M129.065,284.454H75.352a1.192,1.192,0,0,1-1.192-1.192v-5.6a1.709,1.709,0,0,1,1.567-1.712l7.654-.668a19.513,19.513,0,0,1,1.812-4.368l-4.94-5.886a1.707,1.707,0,0,1,.1-2.32l4.04-4.041a1.71,1.71,0,0,1,2.32-.1L92.6,263.5a19.406,19.406,0,0,1,4.37-1.814l.668-7.652a1.708,1.708,0,0,1,1.711-1.569h5.716a1.707,1.707,0,0,1,1.711,1.57l.668,7.651a19.416,19.416,0,0,1,4.37,1.814l5.886-4.942a1.707,1.707,0,0,1,2.32.1l4.041,4.041a1.708,1.708,0,0,1,.1,2.317l-4.944,5.889a19.517,19.517,0,0,1,1.814,4.368l7.652.668h0a1.709,1.709,0,0,1,1.569,1.712v5.6A1.188,1.188,0,0,1,129.065,284.454ZM76.543,282.07h51.33v-3.8l-7.523-.657a1.7,1.7,0,0,1-1.5-1.286,17.015,17.015,0,0,0-1.914-4.607,1.711,1.711,0,0,1,.151-1.97l4.86-5.789-3.179-3.179-5.787,4.857a1.7,1.7,0,0,1-1.971.154,17.007,17.007,0,0,0-4.607-1.914,1.707,1.707,0,0,1-1.288-1.5l-.657-7.526h-4.5l-.657,7.523a1.706,1.706,0,0,1-1.286,1.5,17.036,17.036,0,0,0-4.609,1.914,1.712,1.712,0,0,1-1.971-.153l-5.789-4.859-3.177,3.179,4.856,5.787a1.7,1.7,0,0,1,.153,1.976,17.075,17.075,0,0,0-1.911,4.606,1.705,1.705,0,0,1-1.5,1.285l-7.524.657v3.8Zm51.936-3.747h0Zm-43.042-7.829a.005.005,0,0,1,0,0A.005.005,0,0,0,85.437,270.494Zm36.94-6.1Zm-40.335,0,0,0A0,0,0,0,0,82.042,264.39Zm10.142-.643,0,0Zm14.8-2.179h0Zm11.356-1.219,0,0Zm-13.931-6.1v0Zm-4.388,0v0Z" transform="translate(-74.16 -252.47)" fill="#12263f"/>
      </g>
      <g id="Grupo_159839" data-name="Grupo 159839" transform="translate(30.776 101.421)">
        <path id="Trazado_225763" data-name="Trazado 225763" d="M210.135,380.08a8.365,8.365,0,0,0-8.365,8.365,8.158,8.158,0,0,0,.46,2.744l15.8.025a8.371,8.371,0,0,0-7.894-11.133Z" transform="translate(-200.578 -378.888)" fill="#eaf3f2"/>
        <path id="Trazado_225764" data-name="Trazado 225764" d="M211.493,385.868h0l-15.8-.025a1.189,1.189,0,0,1-1.121-.8,9.325,9.325,0,0,1-.529-3.14,9.556,9.556,0,1,1,18.576,3.164A1.185,1.185,0,0,1,211.493,385.868Zm-14.9-2.408,14.007.023a7.174,7.174,0,1,0-14.174-1.575A7.3,7.3,0,0,0,196.59,383.46Z" transform="translate(-194.04 -372.35)" fill="#12263f"/>
      </g>
      <g id="Grupo_159840" data-name="Grupo 159840" transform="translate(47.795 60.324)">
        <path id="Trazado_225765" data-name="Trazado 225765" d="M326.374,108.295h-20.8a1.192,1.192,0,1,1,0-2.385h20.8a1.192,1.192,0,1,1,0,2.385Z" transform="translate(-304.38 -105.91)" fill="#12263f"/>
      </g>
      <g id="Grupo_159844" data-name="Grupo 159844" transform="translate(9.963 60.324)">
        <g id="Grupo_159841" data-name="Grupo 159841" transform="translate(0 0)">
          <path id="Trazado_225766" data-name="Trazado 225766" d="M62.685,108.295H60.3a1.192,1.192,0,0,1,0-2.385h2.383a1.192,1.192,0,0,1,0,2.385Z" transform="translate(-59.11 -105.91)" fill="#12263f"/>
        </g>
        <g id="Grupo_159842" data-name="Grupo 159842" transform="translate(7.729 0)">
          <path id="Trazado_225767" data-name="Trazado 225767" d="M115.757,108.295h-5.345a1.192,1.192,0,1,1,0-2.385h5.345a1.192,1.192,0,1,1,0,2.385Z" transform="translate(-109.22 -105.91)" fill="#12263f"/>
        </g>
        <g id="Grupo_159843" data-name="Grupo 159843" transform="translate(18.42 0)">
          <path id="Trazado_225768" data-name="Trazado 225768" d="M182.105,108.295h-2.383a1.192,1.192,0,0,1,0-2.385h2.383a1.192,1.192,0,0,1,0,2.385Z" transform="translate(-178.53 -105.91)" fill="#12263f"/>
        </g>
      </g>
    </g>
  </g>
</svg>
