<svg id="Grupo_160849" data-name="Grupo 160849" xmlns="http://www.w3.org/2000/svg" xmlns:xlink="http://www.w3.org/1999/xlink" width="78.822" height="124.176" viewBox="0 0 78.822 124.176">
  <defs>
    <clipPath id="clip-path">
      <rect id="Rectángulo_45191" data-name="Rectángulo 45191" width="78.822" height="124.175" fill="none"/>
    </clipPath>
  </defs>
  <g id="Grupo_160848" data-name="Grupo 160848" clip-path="url(#clip-path)">
    <path id="Trazado_231247" data-name="Trazado 231247" d="M267.863,84.057a3.391,3.391,0,0,0,3.387-3.387c0-1.8-1.744-4.467-3.386-6.436-1.642,1.973-3.388,4.646-3.388,6.436a3.391,3.391,0,0,0,3.387,3.387" transform="translate(-197.06 -55.311)" fill="#29abe2"/>
    <path id="Trazado_231248" data-name="Trazado 231248" d="M267.863,84.057a3.391,3.391,0,0,0,3.387-3.387c0-1.8-1.744-4.467-3.386-6.436-1.642,1.973-3.388,4.646-3.388,6.436A3.391,3.391,0,0,0,267.863,84.057Z" transform="translate(-197.06 -55.311)" fill="none" stroke="#000" stroke-miterlimit="10" stroke-width="1"/>
    <path id="Trazado_231249" data-name="Trazado 231249" d="M31.959,212.707v-4.259H44.736c3.485,0,5.035-2.6,5.4-5.418H35.5c-12.342,0-20.317,7.9-20.317,20.129v6.192H17.12c8.321,0,14.838-7.311,14.838-16.643" transform="translate(-11.314 -151.277)" fill="#ffc9a4"/>
    <path id="Trazado_231250" data-name="Trazado 231250" d="M142.582,84.057a3.391,3.391,0,0,0,3.387-3.387c0-1.8-1.745-4.467-3.386-6.436-1.642,1.973-3.388,4.646-3.388,6.436a3.391,3.391,0,0,0,3.387,3.387" transform="translate(-103.713 -55.311)" fill="#29abe2"/>
    <path id="Trazado_231251" data-name="Trazado 231251" d="M142.582,84.057a3.391,3.391,0,0,0,3.387-3.387c0-1.8-1.745-4.467-3.386-6.436-1.642,1.973-3.388,4.646-3.388,6.436A3.391,3.391,0,0,0,142.582,84.057Z" transform="translate(-103.713 -55.311)" fill="none" stroke="#000" stroke-miterlimit="10" stroke-width="1"/>
    <path id="Trazado_231252" data-name="Trazado 231252" d="M205.223,131.038a3.391,3.391,0,0,0,3.387-3.387c0-1.8-1.744-4.467-3.386-6.436-1.642,1.973-3.388,4.646-3.388,6.436a3.391,3.391,0,0,0,3.387,3.387" transform="translate(-150.387 -90.317)" fill="#29abe2"/>
    <path id="Trazado_231253" data-name="Trazado 231253" d="M205.223,131.038a3.391,3.391,0,0,0,3.387-3.387c0-1.8-1.744-4.467-3.386-6.436-1.642,1.973-3.388,4.646-3.388,6.436A3.391,3.391,0,0,0,205.223,131.038Z" transform="translate(-150.387 -90.317)" fill="none" stroke="#000" stroke-miterlimit="10" stroke-width="1"/>
    <path id="Trazado_231254" data-name="Trazado 231254" d="M132.573,245.968l-.227-.131a2.586,2.586,0,0,0-3.5.913l-7.439,12.885a1.935,1.935,0,0,1-3.352-1.936l7.416-12.852c.006-.012.016-.02.023-.032l4.5-7.788a2.584,2.584,0,0,0-.944-3.525l-.227-.131a2.584,2.584,0,0,0-3.525.945l-11.935,20.672a1.935,1.935,0,0,1-3.352-1.935L121.94,232.38l2.581-4.47a2.584,2.584,0,0,0-.945-3.525l-.227-.131a2.584,2.584,0,0,0-3.525.945l-2.549,4.415c-.011.019-.016.04-.027.059l-11.94,20.668a1.935,1.935,0,0,1-3.352-1.936l11.968-20.728a2.583,2.583,0,0,0-.97-3.466l-.227-.131a2.583,2.583,0,0,0-3.525.945L94.945,249.717l-5.421,9.389a1.935,1.935,0,1,1-3.352-1.935l5.421-9.389c1.743-3.018.264-5.661-1.994-7.383l-7.315,12.67c-6.171,10.689-3.315,21.546,7.274,27.66l7.038,4.064c7.187,4.149,15.144,2.416,18.919-4.122l8.647-14.976h0l9.355-16.2a2.584,2.584,0,0,0-.944-3.525" transform="translate(-58.912 -166.704)" fill="#ffc9a4"/>
    <path id="Trazado_231255" data-name="Trazado 231255" d="M43.142,248.02a11.908,11.908,0,0,1,4.9,5.053l7.854-13.6H36.167v.388c0,11.5-8.218,20.514-18.709,20.514h-1.82c.77,7.149,5.785,12.19,12.542,12.372a27.276,27.276,0,0,1,3.492-9.887l9.293-16.1Z" transform="translate(-11.651 -178.429)" fill="#ffc9a4"/>
    <path id="Trazado_231256" data-name="Trazado 231256" d="M205.223,31.857a3.391,3.391,0,0,0,3.387-3.387c0-1.8-1.744-4.467-3.386-6.436-1.642,1.973-3.388,4.646-3.388,6.436a3.391,3.391,0,0,0,3.387,3.387" transform="translate(-150.387 -16.417)" fill="#29abe2"/>
    <path id="Trazado_231257" data-name="Trazado 231257" d="M205.223,31.857a3.391,3.391,0,0,0,3.387-3.387c0-1.8-1.744-4.467-3.386-6.436-1.642,1.973-3.388,4.646-3.388,6.436A3.391,3.391,0,0,0,205.223,31.857Z" transform="translate(-150.387 -16.417)" fill="none" stroke="#000" stroke-miterlimit="10" stroke-width="1"/>
    <path id="Trazado_231258" data-name="Trazado 231258" d="M256.548,71.511a7.266,7.266,0,0,0,7.258-7.257c0-4.659-5.286-10.08-5.89-10.683L256.548,52.2,255.18,53.57c-.6.6-5.89,6.024-5.89,10.683a7.266,7.266,0,0,0,7.258,7.257m0-13.694c1.642,1.969,3.386,4.639,3.386,6.436a3.387,3.387,0,0,1-6.774,0c0-1.79,1.746-4.463,3.388-6.436" transform="translate(-185.745 -38.895)"/>
    <path id="Trazado_231259" data-name="Trazado 231259" d="M75.6,215.874l-.227-.131a6.39,6.39,0,0,0-2.5-.813l1.564-2.71a6.459,6.459,0,0,0-2.361-8.813l-.227-.131a6.388,6.388,0,0,0-2.589-.819,6.438,6.438,0,0,0-2.652-8.167l-.227-.131a6.438,6.438,0,0,0-8.4,1.786,6.386,6.386,0,0,0-2-1.829l-.227-.131a6.459,6.459,0,0,0-8.813,2.361l-.454.786H40.85a11.91,11.91,0,0,0,1.924-6.774v-2.515H24.188c-14.467,0-24.188,9.645-24.188,24v8.127c0,10.159,6.976,17.852,16.314,18.165.252,7.684,4.526,14.659,12.4,19.2l7.038,4.064c8.983,5.186,19.389,2.8,24.206-5.539L68.6,240.888h0l9.355-16.2a6.459,6.459,0,0,0-2.361-8.813m-71.726-4.03c0-12.228,7.975-20.129,20.317-20.129h14.63c-.361,2.816-1.911,5.418-5.4,5.418H20.645v4.259c0,9.333-6.517,16.643-14.838,16.643H3.871Zm12.657,22.434c-6.757-.181-11.771-5.223-12.542-12.372h1.82c10.491,0,18.709-9.011,18.709-20.514V201H44.249l-7.854,13.6a11.911,11.911,0,0,0-4.9-5.053L29.313,208.3l-9.293,16.1a27.277,27.277,0,0,0-3.492,9.886m58.079-11.527-9.355,16.2h0L56.6,253.929c-3.775,6.538-11.732,8.271-18.919,4.122l-7.038-4.064c-10.589-6.114-13.445-16.971-7.274-27.66l7.315-12.67c2.258,1.721,3.737,4.364,1.994,7.383l-5.421,9.389a1.935,1.935,0,0,0,3.352,1.936l5.421-9.389,14.256-24.693a2.584,2.584,0,0,1,3.525-.944l.227.131a2.583,2.583,0,0,1,.97,3.466L43.045,221.663A1.935,1.935,0,0,0,46.4,223.6l11.94-20.668c.011-.019.016-.04.027-.059l2.549-4.415a2.583,2.583,0,0,1,3.525-.944l.227.131a2.583,2.583,0,0,1,.945,3.525l-2.581,4.47L51.094,226.31a1.935,1.935,0,1,0,3.352,1.936l11.935-20.672a2.584,2.584,0,0,1,3.525-.945l.227.131a2.584,2.584,0,0,1,.945,3.525l-4.5,7.788c-.007.011-.016.02-.023.032l-7.416,12.852a1.935,1.935,0,1,0,3.352,1.936l7.439-12.885a2.586,2.586,0,0,1,3.5-.913l.227.131a2.584,2.584,0,0,1,.944,3.525" transform="translate(0 -139.962)"/>
    <path id="Trazado_231260" data-name="Trazado 231260" d="M131.268,71.511a7.266,7.266,0,0,0,7.258-7.257c0-4.659-5.286-10.08-5.889-10.683L131.268,52.2,129.9,53.57c-.6.6-5.89,6.024-5.89,10.683a7.266,7.266,0,0,0,7.258,7.257m0-13.694c1.641,1.969,3.386,4.639,3.386,6.436a3.387,3.387,0,0,1-6.774,0c0-1.79,1.746-4.463,3.388-6.436" transform="translate(-92.399 -38.895)"/>
    <path id="Trazado_231261" data-name="Trazado 231261" d="M193.908,118.491a7.266,7.266,0,0,0,7.258-7.258c0-4.659-5.286-10.08-5.89-10.683l-1.368-1.369-1.369,1.369c-.6.6-5.889,6.024-5.889,10.683a7.266,7.266,0,0,0,7.258,7.258m0-13.694c1.642,1.969,3.386,4.638,3.386,6.436a3.387,3.387,0,1,1-6.774,0c0-1.79,1.746-4.463,3.388-6.436" transform="translate(-139.072 -73.899)"/>
    <path id="Trazado_231262" data-name="Trazado 231262" d="M193.908,19.31a7.266,7.266,0,0,0,7.258-7.258c0-4.659-5.286-10.08-5.89-10.683L193.908,0l-1.369,1.369c-.6.6-5.889,6.024-5.889,10.683a7.266,7.266,0,0,0,7.258,7.258m0-13.694c1.642,1.969,3.386,4.638,3.386,6.436a3.387,3.387,0,1,1-6.774,0c0-1.79,1.746-4.463,3.388-6.436" transform="translate(-139.072)"/>
  </g>
</svg>
